G04 #@! TF.GenerationSoftware,KiCad,Pcbnew,9.0.7*
G04 #@! TF.CreationDate,2026-02-01T12:24:02+05:30*
G04 #@! TF.ProjectId,motherboard_sub,6d6f7468-6572-4626-9f61-72645f737562,rev?*
G04 #@! TF.SameCoordinates,Original*
G04 #@! TF.FileFunction,Copper,L1,Top*
G04 #@! TF.FilePolarity,Positive*
%FSLAX46Y46*%
G04 Gerber Fmt 4.6, Leading zero omitted, Abs format (unit mm)*
G04 Created by KiCad (PCBNEW 9.0.7) date 2026-02-01 12:24:02*
%MOMM*%
%LPD*%
G01*
G04 APERTURE LIST*
G04 Aperture macros list*
%AMRoundRect*
0 Rectangle with rounded corners*
0 $1 Rounding radius*
0 $2 $3 $4 $5 $6 $7 $8 $9 X,Y pos of 4 corners*
0 Add a 4 corners polygon primitive as box body*
4,1,4,$2,$3,$4,$5,$6,$7,$8,$9,$2,$3,0*
0 Add four circle primitives for the rounded corners*
1,1,$1+$1,$2,$3*
1,1,$1+$1,$4,$5*
1,1,$1+$1,$6,$7*
1,1,$1+$1,$8,$9*
0 Add four rect primitives between the rounded corners*
20,1,$1+$1,$2,$3,$4,$5,0*
20,1,$1+$1,$4,$5,$6,$7,0*
20,1,$1+$1,$6,$7,$8,$9,0*
20,1,$1+$1,$8,$9,$2,$3,0*%
G04 Aperture macros list end*
G04 #@! TA.AperFunction,NonConductor*
%ADD10C,0.200000*%
G04 #@! TD*
G04 #@! TA.AperFunction,Conductor*
%ADD11C,0.200000*%
G04 #@! TD*
G04 #@! TA.AperFunction,ComponentPad*
%ADD12C,1.600000*%
G04 #@! TD*
G04 #@! TA.AperFunction,ComponentPad*
%ADD13R,1.700000X1.700000*%
G04 #@! TD*
G04 #@! TA.AperFunction,ComponentPad*
%ADD14C,1.700000*%
G04 #@! TD*
G04 #@! TA.AperFunction,ComponentPad*
%ADD15C,1.500000*%
G04 #@! TD*
G04 #@! TA.AperFunction,ComponentPad*
%ADD16O,2.000000X1.200000*%
G04 #@! TD*
G04 #@! TA.AperFunction,ComponentPad*
%ADD17R,1.800000X1.800000*%
G04 #@! TD*
G04 #@! TA.AperFunction,ComponentPad*
%ADD18C,1.800000*%
G04 #@! TD*
G04 #@! TA.AperFunction,ComponentPad*
%ADD19RoundRect,0.250000X-0.550000X0.550000X-0.550000X-0.550000X0.550000X-0.550000X0.550000X0.550000X0*%
G04 #@! TD*
G04 #@! TA.AperFunction,SMDPad,CuDef*
%ADD20R,2.900000X5.400000*%
G04 #@! TD*
G04 #@! TA.AperFunction,ComponentPad*
%ADD21R,2.000000X1.905000*%
G04 #@! TD*
G04 #@! TA.AperFunction,ComponentPad*
%ADD22O,2.000000X1.905000*%
G04 #@! TD*
G04 #@! TA.AperFunction,ComponentPad*
%ADD23RoundRect,0.250000X1.050000X-1.050000X1.050000X1.050000X-1.050000X1.050000X-1.050000X-1.050000X0*%
G04 #@! TD*
G04 #@! TA.AperFunction,ComponentPad*
%ADD24C,2.600000*%
G04 #@! TD*
G04 #@! TA.AperFunction,ComponentPad*
%ADD25RoundRect,0.250000X1.350000X1.350000X-1.350000X1.350000X-1.350000X-1.350000X1.350000X-1.350000X0*%
G04 #@! TD*
G04 #@! TA.AperFunction,ComponentPad*
%ADD26C,3.200000*%
G04 #@! TD*
G04 #@! TA.AperFunction,ComponentPad*
%ADD27RoundRect,0.250000X1.050000X1.050000X-1.050000X1.050000X-1.050000X-1.050000X1.050000X-1.050000X0*%
G04 #@! TD*
G04 #@! TA.AperFunction,ComponentPad*
%ADD28RoundRect,0.250000X-1.350000X1.350000X-1.350000X-1.350000X1.350000X-1.350000X1.350000X1.350000X0*%
G04 #@! TD*
G04 #@! TA.AperFunction,ComponentPad*
%ADD29R,1.905000X2.000000*%
G04 #@! TD*
G04 #@! TA.AperFunction,ComponentPad*
%ADD30O,1.905000X2.000000*%
G04 #@! TD*
G04 #@! TA.AperFunction,ComponentPad*
%ADD31RoundRect,0.249999X0.850001X-0.850001X0.850001X0.850001X-0.850001X0.850001X-0.850001X-0.850001X0*%
G04 #@! TD*
G04 #@! TA.AperFunction,ComponentPad*
%ADD32C,2.200000*%
G04 #@! TD*
G04 #@! TA.AperFunction,ComponentPad*
%ADD33RoundRect,0.250000X-1.050000X-1.050000X1.050000X-1.050000X1.050000X1.050000X-1.050000X1.050000X0*%
G04 #@! TD*
G04 #@! TA.AperFunction,ComponentPad*
%ADD34RoundRect,0.250000X-1.350000X-1.350000X1.350000X-1.350000X1.350000X1.350000X-1.350000X1.350000X0*%
G04 #@! TD*
G04 #@! TA.AperFunction,ComponentPad*
%ADD35RoundRect,0.250000X0.650000X1.550000X-0.650000X1.550000X-0.650000X-1.550000X0.650000X-1.550000X0*%
G04 #@! TD*
G04 #@! TA.AperFunction,ComponentPad*
%ADD36O,1.800000X3.600000*%
G04 #@! TD*
G04 #@! TA.AperFunction,SMDPad,CuDef*
%ADD37RoundRect,1.500000X-1.500000X-1.500000X1.500000X-1.500000X1.500000X1.500000X-1.500000X1.500000X0*%
G04 #@! TD*
G04 #@! TA.AperFunction,ViaPad*
%ADD38C,0.600000*%
G04 #@! TD*
G04 #@! TA.AperFunction,ViaPad*
%ADD39C,1.000000*%
G04 #@! TD*
G04 #@! TA.AperFunction,Conductor*
%ADD40C,1.500000*%
G04 #@! TD*
G04 #@! TA.AperFunction,Conductor*
%ADD41C,1.200000*%
G04 #@! TD*
G04 #@! TA.AperFunction,Conductor*
%ADD42C,1.700000*%
G04 #@! TD*
G04 #@! TA.AperFunction,Conductor*
%ADD43C,0.350000*%
G04 #@! TD*
G04 #@! TA.AperFunction,Conductor*
%ADD44C,0.250000*%
G04 #@! TD*
G04 #@! TA.AperFunction,Conductor*
%ADD45C,0.500000*%
G04 #@! TD*
G04 #@! TA.AperFunction,Conductor*
%ADD46C,1.000000*%
G04 #@! TD*
G04 #@! TA.AperFunction,Conductor*
%ADD47C,2.000000*%
G04 #@! TD*
G04 #@! TA.AperFunction,Conductor*
%ADD48C,2.500000*%
G04 #@! TD*
G04 #@! TA.AperFunction,Conductor*
%ADD49C,1.300000*%
G04 #@! TD*
G04 APERTURE END LIST*
D10*
X26081139Y-65000000D02*
G75*
G02*
X22918861Y-65000000I-1581139J0D01*
G01*
X22918861Y-65000000D02*
G75*
G02*
X26081139Y-65000000I1581139J0D01*
G01*
X26618034Y-156000000D02*
G75*
G02*
X24381966Y-156000000I-1118034J0D01*
G01*
X24381966Y-156000000D02*
G75*
G02*
X26618034Y-156000000I1118034J0D01*
G01*
X138618034Y-63500000D02*
G75*
G02*
X136381966Y-63500000I-1118034J0D01*
G01*
X136381966Y-63500000D02*
G75*
G02*
X138618034Y-63500000I1118034J0D01*
G01*
D11*
X21500000Y-62000000D02*
X139000000Y-62000000D01*
X139000000Y-159000000D01*
X21500000Y-159000000D01*
X21500000Y-62000000D01*
D12*
X41000000Y-91920000D03*
X41000000Y-102080000D03*
D13*
X32500000Y-129000000D03*
D14*
X29960000Y-129000000D03*
X27420000Y-129000000D03*
X24880000Y-129000000D03*
D13*
X67540000Y-150000000D03*
D14*
X65000000Y-150000000D03*
X62460000Y-150000000D03*
X59920000Y-150000000D03*
D13*
X56080000Y-150000000D03*
D14*
X53540000Y-150000000D03*
X51000000Y-150000000D03*
X48460000Y-150000000D03*
D13*
X44580000Y-150000000D03*
D14*
X42040000Y-150000000D03*
X39500000Y-150000000D03*
X36960000Y-150000000D03*
D13*
X32500000Y-140500000D03*
D14*
X29960000Y-140500000D03*
X27420000Y-140500000D03*
X24880000Y-140500000D03*
D15*
X27000000Y-144000000D03*
X32000000Y-144000000D03*
X61000000Y-154000000D03*
X66000000Y-154000000D03*
D16*
X62000000Y-121210000D03*
X62000000Y-118670000D03*
X62000000Y-116130000D03*
X62000000Y-113590000D03*
X62000000Y-111050000D03*
X62000000Y-108510000D03*
X62000000Y-105970000D03*
X62000000Y-103430000D03*
X62000000Y-100890000D03*
X62000000Y-98350000D03*
X62000000Y-95790000D03*
X62000000Y-93250000D03*
X62000000Y-90710000D03*
X62000000Y-88170000D03*
X62000000Y-85630000D03*
X62000000Y-83090000D03*
X62000000Y-80550000D03*
X62000000Y-78010000D03*
X62000000Y-75470000D03*
X62000000Y-72930000D03*
X62000000Y-70390000D03*
X62000000Y-67850000D03*
X36500000Y-121210000D03*
X36500000Y-118670000D03*
X36500000Y-116130000D03*
X36500000Y-113590000D03*
X36500000Y-111050000D03*
X36500000Y-108510000D03*
X36500000Y-105970000D03*
X36500000Y-103430000D03*
X36500000Y-100890000D03*
X36500000Y-98350000D03*
X36500000Y-95790000D03*
X36500000Y-93250000D03*
X36500000Y-90710000D03*
X36500000Y-85630000D03*
X36500000Y-83090000D03*
X36500000Y-80550000D03*
X36500000Y-78010000D03*
X36500000Y-75470000D03*
X36500000Y-72930000D03*
X36500000Y-70390000D03*
X36500000Y-67850000D03*
X36500000Y-88170000D03*
D13*
X66000000Y-120500000D03*
D14*
X66000000Y-117960000D03*
X66000000Y-115420000D03*
X66000000Y-112880000D03*
D13*
X33000000Y-94460000D03*
D14*
X33000000Y-97000000D03*
X33000000Y-99540000D03*
X33000000Y-102080000D03*
D13*
X73000000Y-120540000D03*
D14*
X73000000Y-118000000D03*
X73000000Y-115460000D03*
X73000000Y-112920000D03*
D13*
X33000000Y-82460000D03*
D14*
X33000000Y-85000000D03*
X33000000Y-87540000D03*
X33000000Y-90080000D03*
D13*
X77000000Y-120500000D03*
D14*
X77000000Y-117960000D03*
X77000000Y-115420000D03*
X77000000Y-112880000D03*
D12*
X76500000Y-124500000D03*
X86660000Y-124500000D03*
D17*
X89960000Y-128000000D03*
D18*
X92500000Y-128000000D03*
D17*
X46700000Y-142400000D03*
D18*
X43000000Y-140700000D03*
X46700000Y-139000000D03*
X43000000Y-137300000D03*
X46700000Y-135600000D03*
D19*
X58580000Y-69380000D03*
D12*
X56040000Y-69380000D03*
X53500000Y-69380000D03*
X50960000Y-69380000D03*
X48420000Y-69380000D03*
X45880000Y-69380000D03*
X43340000Y-69380000D03*
X40800000Y-69380000D03*
X40800000Y-77000000D03*
X43340000Y-77000000D03*
X45880000Y-77000000D03*
X48420000Y-77000000D03*
X50960000Y-77000000D03*
X53500000Y-77000000D03*
X56040000Y-77000000D03*
X58580000Y-77000000D03*
X44500000Y-102080000D03*
X44500000Y-91920000D03*
X28500000Y-68000000D03*
X28500000Y-78160000D03*
X33500000Y-64420000D03*
X33500000Y-74580000D03*
D20*
X52050000Y-141500000D03*
X61950000Y-141500000D03*
D15*
X30000000Y-87040000D03*
X30000000Y-82040000D03*
D21*
X103500000Y-115000000D03*
D22*
X103500000Y-117540000D03*
X103500000Y-120080000D03*
D12*
X96500000Y-115500000D03*
X99000000Y-115500000D03*
D23*
X132500000Y-119580000D03*
D24*
X132500000Y-114500000D03*
D12*
X111920000Y-112500000D03*
X122080000Y-112500000D03*
X111920000Y-115500000D03*
X122080000Y-115500000D03*
D25*
X124120000Y-120000000D03*
D26*
X108880000Y-120000000D03*
D15*
X95500000Y-120500000D03*
X100500000Y-120500000D03*
D12*
X66000000Y-90580000D03*
X66000000Y-80420000D03*
D27*
X111045000Y-70832500D03*
D24*
X105965000Y-70832500D03*
D27*
X134010000Y-70665000D03*
D24*
X128930000Y-70665000D03*
D12*
X105000000Y-90660000D03*
X105000000Y-80500000D03*
D28*
X73500000Y-79380000D03*
D26*
X73500000Y-94620000D03*
D29*
X117460000Y-101000000D03*
D30*
X120000000Y-101000000D03*
X122540000Y-101000000D03*
D12*
X70000000Y-144000000D03*
X66500000Y-144000000D03*
X67500000Y-136500000D03*
X70000000Y-136500000D03*
D15*
X71000000Y-149000000D03*
X71000000Y-154000000D03*
D12*
X58000000Y-81500000D03*
X58000000Y-91660000D03*
D31*
X123240000Y-134460000D03*
D32*
X123240000Y-124300000D03*
D15*
X122000000Y-105000000D03*
X122000000Y-110000000D03*
D12*
X41000000Y-87420000D03*
X51160000Y-87420000D03*
D29*
X129960000Y-100950000D03*
D30*
X132500000Y-100950000D03*
X135040000Y-100950000D03*
D12*
X58000000Y-123660000D03*
X58000000Y-113500000D03*
D27*
X88045000Y-70832500D03*
D24*
X82965000Y-70832500D03*
D17*
X96225000Y-128000000D03*
D18*
X98765000Y-128000000D03*
D12*
X44500000Y-115580000D03*
X44500000Y-105420000D03*
X49080000Y-146000000D03*
X38920000Y-146000000D03*
X51080000Y-84500000D03*
X40920000Y-84500000D03*
D15*
X97500000Y-105000000D03*
X97500000Y-110000000D03*
X31500000Y-147000000D03*
X36500000Y-147000000D03*
D27*
X122465000Y-70832500D03*
D24*
X117385000Y-70832500D03*
D12*
X129000000Y-106000000D03*
X129000000Y-108500000D03*
D29*
X92500000Y-101000000D03*
D30*
X95040000Y-101000000D03*
X97580000Y-101000000D03*
D33*
X87420000Y-149500000D03*
D24*
X92500000Y-149500000D03*
D19*
X115780000Y-137880000D03*
D12*
X113240000Y-137880000D03*
X110700000Y-137880000D03*
X108160000Y-137880000D03*
X105620000Y-137880000D03*
X103080000Y-137880000D03*
X100540000Y-137880000D03*
X98000000Y-137880000D03*
X98000000Y-145500000D03*
X100540000Y-145500000D03*
X103080000Y-145500000D03*
X105620000Y-145500000D03*
X108160000Y-145500000D03*
X110700000Y-145500000D03*
X113240000Y-145500000D03*
X115780000Y-145500000D03*
X55000000Y-94920000D03*
X55000000Y-105080000D03*
X133740000Y-134960000D03*
X133740000Y-124800000D03*
X55000000Y-113420000D03*
X55000000Y-123580000D03*
D15*
X134000000Y-105000000D03*
X134000000Y-110000000D03*
D27*
X76545000Y-70832500D03*
D24*
X71465000Y-70832500D03*
D12*
X58000000Y-105080000D03*
X58000000Y-94920000D03*
X116500000Y-106250000D03*
X116500000Y-108750000D03*
X81000000Y-90660000D03*
X81000000Y-80500000D03*
X69000000Y-90580000D03*
X69000000Y-80420000D03*
X40000000Y-132580000D03*
X40000000Y-122420000D03*
D33*
X76000000Y-149500000D03*
D24*
X81080000Y-149500000D03*
D12*
X91000000Y-112920000D03*
X91000000Y-123080000D03*
X48500000Y-107500000D03*
X58660000Y-107500000D03*
D34*
X70880000Y-129000000D03*
D26*
X86120000Y-129000000D03*
D28*
X109500000Y-79380000D03*
D26*
X109500000Y-94620000D03*
D12*
X115740000Y-134880000D03*
X115740000Y-124720000D03*
X48500000Y-110500000D03*
X58660000Y-110500000D03*
X105000000Y-106000000D03*
X105000000Y-108500000D03*
D35*
X113740000Y-150880000D03*
D36*
X110240000Y-150880000D03*
X106740000Y-150880000D03*
X103240000Y-150880000D03*
X99740000Y-150880000D03*
D12*
X106740000Y-134960000D03*
X106740000Y-124800000D03*
D28*
X97500000Y-79380000D03*
D26*
X97500000Y-94620000D03*
D35*
X135740000Y-150880000D03*
D36*
X132240000Y-150880000D03*
X128740000Y-150880000D03*
X125240000Y-150880000D03*
X121740000Y-150880000D03*
D12*
X117000000Y-90500000D03*
X117000000Y-80340000D03*
D28*
X85500000Y-79380000D03*
D26*
X85500000Y-94620000D03*
D12*
X63250000Y-129500000D03*
X66750000Y-129500000D03*
X55000000Y-91580000D03*
X55000000Y-81420000D03*
X78000000Y-90660000D03*
X78000000Y-80500000D03*
X128500000Y-91000000D03*
X128500000Y-80840000D03*
D15*
X110000000Y-105000000D03*
X110000000Y-110000000D03*
X55000000Y-154000000D03*
X50000000Y-154000000D03*
X69500000Y-121000000D03*
X69500000Y-116000000D03*
D12*
X127740000Y-134960000D03*
X127740000Y-124800000D03*
D25*
X58620000Y-129000000D03*
D26*
X43380000Y-129000000D03*
D12*
X92000000Y-106000000D03*
X92000000Y-108500000D03*
D31*
X102240000Y-134460000D03*
D32*
X102240000Y-124300000D03*
D15*
X59000000Y-133500000D03*
X54000000Y-133500000D03*
D29*
X105000000Y-101000000D03*
D30*
X107540000Y-101000000D03*
X110080000Y-101000000D03*
D12*
X79500000Y-106000000D03*
X79500000Y-108500000D03*
X114000000Y-90660000D03*
X114000000Y-80500000D03*
X136740000Y-134960000D03*
X136740000Y-124800000D03*
D37*
X75500000Y-137500000D03*
X92500000Y-137500000D03*
D29*
X67460000Y-101000000D03*
D30*
X70000000Y-101000000D03*
X72540000Y-101000000D03*
D12*
X112740000Y-134960000D03*
X112740000Y-124800000D03*
D15*
X85500000Y-105000000D03*
X85500000Y-110000000D03*
X32000000Y-132000000D03*
X27000000Y-132000000D03*
D12*
X109740000Y-134960000D03*
X109740000Y-124800000D03*
D27*
X99545000Y-70832500D03*
D24*
X94465000Y-70832500D03*
D15*
X30000000Y-94000000D03*
X30000000Y-99000000D03*
D12*
X130725000Y-134960000D03*
X130725000Y-124800000D03*
X82000000Y-118000000D03*
X87000000Y-118000000D03*
X90000000Y-90660000D03*
X90000000Y-80500000D03*
D28*
X121500000Y-79500000D03*
D26*
X121500000Y-94740000D03*
D29*
X80000000Y-101000000D03*
D30*
X82540000Y-101000000D03*
X85080000Y-101000000D03*
D12*
X69000000Y-106000000D03*
X69000000Y-108500000D03*
D15*
X74000000Y-105000000D03*
X74000000Y-110000000D03*
D28*
X133500000Y-79500000D03*
D26*
X133500000Y-94740000D03*
D12*
X102000000Y-90660000D03*
X102000000Y-80500000D03*
X93000000Y-90660000D03*
X93000000Y-80500000D03*
X125500000Y-91000000D03*
X125500000Y-80840000D03*
D19*
X136740000Y-137880000D03*
D12*
X134200000Y-137880000D03*
X131660000Y-137880000D03*
X129120000Y-137880000D03*
X126580000Y-137880000D03*
X124040000Y-137880000D03*
X121500000Y-137880000D03*
X118960000Y-137880000D03*
X118960000Y-145500000D03*
X121500000Y-145500000D03*
X124040000Y-145500000D03*
X126580000Y-145500000D03*
X129120000Y-145500000D03*
X131660000Y-145500000D03*
X134200000Y-145500000D03*
X136740000Y-145500000D03*
X40000000Y-105420000D03*
X40000000Y-115580000D03*
D38*
X43500000Y-122000000D03*
X46000000Y-78500000D03*
X38460000Y-99540000D03*
D39*
X25000000Y-109500000D03*
X25250000Y-112750000D03*
X25250000Y-114750000D03*
X32000000Y-116000000D03*
D38*
X38500000Y-117500000D03*
X36250000Y-122750000D03*
X39250000Y-85500000D03*
X41000000Y-142000000D03*
X45000000Y-79375000D03*
X52000000Y-153500000D03*
D40*
X100500000Y-122560000D02*
X102240000Y-124300000D01*
X100500000Y-120500000D02*
X100500000Y-122560000D01*
D41*
X123840000Y-82500000D02*
X124700001Y-81639999D01*
X119160000Y-82500000D02*
X123840000Y-82500000D01*
X117000000Y-80340000D02*
X119160000Y-82500000D01*
X107000000Y-82500000D02*
X114840000Y-82500000D01*
X114840000Y-82500000D02*
X117000000Y-80340000D01*
X105000000Y-80500000D02*
X107000000Y-82500000D01*
X103000000Y-82500000D02*
X105000000Y-80500000D01*
X95000000Y-82500000D02*
X103000000Y-82500000D01*
X93000000Y-80500000D02*
X95000000Y-82500000D01*
X79000000Y-82500000D02*
X81000000Y-80500000D01*
X71080000Y-82500000D02*
X79000000Y-82500000D01*
X69000000Y-80420000D02*
X71080000Y-82500000D01*
X81000000Y-80500000D02*
X83000000Y-82500000D01*
X83000000Y-82500000D02*
X91000000Y-82500000D01*
X91000000Y-82500000D02*
X93000000Y-80500000D01*
D42*
X137500000Y-106500000D02*
X134000000Y-110000000D01*
X137500000Y-102000000D02*
X137500000Y-106500000D01*
X136450000Y-100950000D02*
X137500000Y-102000000D01*
X135040000Y-100950000D02*
X136450000Y-100950000D01*
D43*
X65500000Y-67000000D02*
X65500000Y-74510000D01*
X65500000Y-74510000D02*
X62000000Y-78010000D01*
X62920000Y-64420000D02*
X65500000Y-67000000D01*
X33500000Y-64420000D02*
X62920000Y-64420000D01*
D44*
X33500000Y-76000000D02*
X31340000Y-78160000D01*
X33500000Y-74580000D02*
X33500000Y-76000000D01*
X30000000Y-78500000D02*
X27500000Y-81000000D01*
X30000000Y-75000000D02*
X30000000Y-78500000D01*
X27500000Y-126540000D02*
X29960000Y-129000000D01*
X33530000Y-72500000D02*
X32500000Y-72500000D01*
X36500000Y-75470000D02*
X33530000Y-72500000D01*
X32500000Y-72500000D02*
X30000000Y-75000000D01*
X27500000Y-81000000D02*
X27500000Y-126540000D01*
D45*
X37500000Y-66080000D02*
X37500000Y-66000000D01*
X30500000Y-66000000D02*
X28500000Y-68000000D01*
X40800000Y-69380000D02*
X37500000Y-66080000D01*
X37500000Y-66000000D02*
X30500000Y-66000000D01*
D44*
X55000000Y-94920000D02*
X58000000Y-94920000D01*
X31540000Y-89000000D02*
X33000000Y-87540000D01*
X28500000Y-89000000D02*
X31540000Y-89000000D01*
X28500000Y-81000000D02*
X28500000Y-89000000D01*
X31340000Y-78160000D02*
X28500000Y-81000000D01*
D43*
X31040000Y-94460000D02*
X33000000Y-94460000D01*
X28500000Y-100500000D02*
X28500000Y-97000000D01*
X30000000Y-126500000D02*
X30000000Y-102000000D01*
X30000000Y-102000000D02*
X28500000Y-100500000D01*
X32500000Y-129000000D02*
X30000000Y-126500000D01*
X28500000Y-97000000D02*
X31040000Y-94460000D01*
X117784000Y-154216000D02*
X117784000Y-139884000D01*
X114847000Y-157153000D02*
X117784000Y-154216000D01*
X36094536Y-157153000D02*
X114847000Y-157153000D01*
X21898000Y-142956464D02*
X36094536Y-157153000D01*
X117784000Y-139884000D02*
X115780000Y-137880000D01*
X25000000Y-109500000D02*
X21898000Y-112602000D01*
X21898000Y-112602000D02*
X21898000Y-142956464D01*
X23000000Y-117000000D02*
X25250000Y-114750000D01*
X117000000Y-153000000D02*
X117000000Y-141640000D01*
X113398000Y-156602000D02*
X117000000Y-153000000D01*
X36322768Y-156602000D02*
X113398000Y-156602000D01*
X22449000Y-142728232D02*
X36322768Y-156602000D01*
X117000000Y-141640000D02*
X113240000Y-137880000D01*
X25250000Y-112750000D02*
X22449000Y-115551000D01*
X22449000Y-115551000D02*
X22449000Y-142728232D01*
X40000000Y-105420000D02*
X41000000Y-105420000D01*
D41*
X45000000Y-119000000D02*
X36830000Y-119000000D01*
X51000000Y-125000000D02*
X45000000Y-119000000D01*
X51000000Y-126000000D02*
X51000000Y-125000000D01*
X36830000Y-119000000D02*
X36500000Y-118670000D01*
X61500000Y-126000000D02*
X51000000Y-126000000D01*
X63500000Y-128000000D02*
X61500000Y-126000000D01*
X63500000Y-129250000D02*
X63500000Y-128000000D01*
X63250000Y-129500000D02*
X63500000Y-129250000D01*
D44*
X43500000Y-122000000D02*
X41500000Y-120000000D01*
D45*
X118960000Y-127940000D02*
X118960000Y-137880000D01*
X115740000Y-124720000D02*
X118960000Y-127940000D01*
X96225000Y-136105000D02*
X98000000Y-137880000D01*
X96225000Y-128000000D02*
X96225000Y-136105000D01*
D44*
X68000000Y-107500000D02*
X69000000Y-108500000D01*
X58580000Y-105080000D02*
X61000000Y-107500000D01*
X58000000Y-105080000D02*
X58580000Y-105080000D01*
X61000000Y-107500000D02*
X68000000Y-107500000D01*
X51080000Y-84500000D02*
X51080000Y-87340000D01*
X51080000Y-87340000D02*
X51160000Y-87420000D01*
X40000000Y-90000000D02*
X36750000Y-93250000D01*
X36750000Y-93250000D02*
X36500000Y-93250000D01*
X51160000Y-87420000D02*
X48580000Y-90000000D01*
X48580000Y-90000000D02*
X40000000Y-90000000D01*
X57920000Y-91580000D02*
X58000000Y-91660000D01*
X55000000Y-91580000D02*
X57920000Y-91580000D01*
X54000000Y-90580000D02*
X55000000Y-91580000D01*
X51000000Y-82500000D02*
X52500000Y-82500000D01*
X47500000Y-86000000D02*
X51000000Y-82500000D01*
X52500000Y-82500000D02*
X54000000Y-84000000D01*
X40500000Y-86000000D02*
X47500000Y-86000000D01*
X54000000Y-84000000D02*
X54000000Y-90580000D01*
X38000000Y-148500000D02*
X39500000Y-150000000D01*
X35424000Y-147924000D02*
X36000000Y-148500000D01*
X36000000Y-148500000D02*
X38000000Y-148500000D01*
X35424000Y-145576000D02*
X35424000Y-147924000D01*
X36500000Y-144500000D02*
X35424000Y-145576000D01*
X36500000Y-123885298D02*
X36500000Y-144500000D01*
X35000000Y-122385298D02*
X36500000Y-123885298D01*
X35000000Y-110840438D02*
X35000000Y-122385298D01*
X35840438Y-110000000D02*
X35000000Y-110840438D01*
X44000000Y-110000000D02*
X35840438Y-110000000D01*
X51000000Y-103000000D02*
X44000000Y-110000000D01*
X51000000Y-96500000D02*
X51000000Y-103000000D01*
X54000000Y-93500000D02*
X51000000Y-96500000D01*
X58500000Y-93500000D02*
X54000000Y-93500000D01*
X59500000Y-92500000D02*
X58500000Y-93500000D01*
X59500000Y-89500000D02*
X59500000Y-92500000D01*
X55000000Y-85000000D02*
X59500000Y-89500000D01*
X55000000Y-81420000D02*
X55000000Y-85000000D01*
X59580000Y-93420000D02*
X59500000Y-93420000D01*
X56500000Y-80000000D02*
X56500000Y-85000000D01*
X59500000Y-93420000D02*
X58000000Y-94920000D01*
X39590000Y-80000000D02*
X56500000Y-80000000D01*
X56500000Y-85000000D02*
X60000000Y-88500000D01*
X60000000Y-93000000D02*
X59580000Y-93420000D01*
X36500000Y-83090000D02*
X39590000Y-80000000D01*
X60000000Y-88500000D02*
X60000000Y-93000000D01*
X38330000Y-88170000D02*
X40500000Y-86000000D01*
X36500000Y-88170000D02*
X38330000Y-88170000D01*
X36630000Y-85500000D02*
X36500000Y-85630000D01*
X39250000Y-85500000D02*
X36630000Y-85500000D01*
D45*
X41000000Y-115580000D02*
X44500000Y-115580000D01*
X66750000Y-126250000D02*
X66750000Y-129500000D01*
X62000000Y-121500000D02*
X66750000Y-126250000D01*
X62000000Y-121210000D02*
X62000000Y-121500000D01*
D44*
X36990000Y-78500000D02*
X36500000Y-78010000D01*
X46000000Y-78500000D02*
X36990000Y-78500000D01*
X45000000Y-79375000D02*
X45125000Y-79500000D01*
X45125000Y-79500000D02*
X58500000Y-79500000D01*
X62000000Y-76000000D02*
X62000000Y-75470000D01*
X58500000Y-79500000D02*
X62000000Y-76000000D01*
X44340000Y-102080000D02*
X44500000Y-102080000D01*
X41000000Y-105420000D02*
X44340000Y-102080000D01*
X44500000Y-98580000D02*
X44500000Y-91920000D01*
X41000000Y-102080000D02*
X44500000Y-98580000D01*
X41000000Y-97000000D02*
X41000000Y-91920000D01*
X38460000Y-99540000D02*
X41000000Y-97000000D01*
D43*
X23000000Y-142500000D02*
X23000000Y-117000000D01*
X36551000Y-156051000D02*
X23000000Y-142500000D01*
X80000000Y-156051000D02*
X36551000Y-156051000D01*
X96000000Y-153279232D02*
X93228232Y-156051000D01*
X96000000Y-144500000D02*
X96000000Y-153279232D01*
X104580000Y-144000000D02*
X97500000Y-144000000D01*
X93228232Y-156051000D02*
X80000000Y-156051000D01*
X97500000Y-144000000D02*
X96500000Y-144000000D01*
X110700000Y-137880000D02*
X104580000Y-144000000D01*
X96500000Y-144000000D02*
X96000000Y-144500000D01*
X32000000Y-123500000D02*
X32000000Y-116000000D01*
X34500000Y-126000000D02*
X32000000Y-123500000D01*
X34500000Y-143000000D02*
X34500000Y-126000000D01*
X33499000Y-144001000D02*
X34500000Y-143000000D01*
X33499000Y-150186256D02*
X33499000Y-144001000D01*
X95000000Y-153500000D02*
X93000000Y-155500000D01*
X38812744Y-155500000D02*
X33499000Y-150186256D01*
X95000000Y-145500000D02*
X95000000Y-153500000D01*
X95000000Y-144000000D02*
X95000000Y-145500000D01*
X96500000Y-142500000D02*
X95000000Y-144000000D01*
X93000000Y-155500000D02*
X38812744Y-155500000D01*
X108160000Y-137880000D02*
X103540000Y-142500000D01*
X103540000Y-142500000D02*
X96500000Y-142500000D01*
D44*
X47500000Y-118000000D02*
X39000000Y-118000000D01*
X39000000Y-118000000D02*
X38500000Y-117500000D01*
X55000000Y-110500000D02*
X47500000Y-118000000D01*
X55000000Y-105080000D02*
X55000000Y-110500000D01*
X37250000Y-122750000D02*
X36250000Y-122750000D01*
X40000000Y-120000000D02*
X37250000Y-122750000D01*
X41500000Y-120000000D02*
X40000000Y-120000000D01*
X34000000Y-105930000D02*
X36500000Y-103430000D01*
X35500000Y-125500000D02*
X34000000Y-124000000D01*
X35500000Y-144000000D02*
X35500000Y-125500000D01*
X34522000Y-149862926D02*
X34522000Y-144978000D01*
X62972000Y-152028000D02*
X36687074Y-152028000D01*
X36687074Y-152028000D02*
X34522000Y-149862926D01*
X65000000Y-150000000D02*
X62972000Y-152028000D01*
X34522000Y-144978000D02*
X35500000Y-144000000D01*
X34000000Y-124000000D02*
X34000000Y-105930000D01*
X35790000Y-107210000D02*
X42710000Y-107210000D01*
X34500000Y-108500000D02*
X35790000Y-107210000D01*
X36000000Y-125000000D02*
X34500000Y-123500000D01*
X42710000Y-107210000D02*
X44500000Y-105420000D01*
X36000000Y-144362190D02*
X36000000Y-125000000D01*
X34500000Y-123500000D02*
X34500000Y-108500000D01*
X34973000Y-145389190D02*
X36000000Y-144362190D01*
X36873884Y-151577000D02*
X34973000Y-149676116D01*
X60883000Y-151577000D02*
X36873884Y-151577000D01*
X62460000Y-150000000D02*
X60883000Y-151577000D01*
X34973000Y-149676116D02*
X34973000Y-145389190D01*
X27000000Y-132000000D02*
X27000000Y-138380000D01*
X27000000Y-138380000D02*
X24880000Y-140500000D01*
X27000000Y-142620000D02*
X27000000Y-144000000D01*
X24880000Y-140500000D02*
X27000000Y-142620000D01*
D46*
X31500000Y-145000000D02*
X31500000Y-147000000D01*
X32000000Y-144500000D02*
X31500000Y-145000000D01*
D43*
X64529000Y-152529000D02*
X66000000Y-154000000D01*
X55000000Y-154000000D02*
X56471000Y-152529000D01*
X56471000Y-152529000D02*
X64529000Y-152529000D01*
D46*
X32000000Y-142000000D02*
X32000000Y-144000000D01*
X32500000Y-141500000D02*
X32000000Y-142000000D01*
X32500000Y-140500000D02*
X32500000Y-141500000D01*
X32000000Y-132500000D02*
X32500000Y-133000000D01*
X32500000Y-133000000D02*
X32500000Y-140500000D01*
D43*
X32000000Y-132000000D02*
X32000000Y-132500000D01*
D46*
X32500000Y-129000000D02*
X32500000Y-131500000D01*
X32500000Y-131500000D02*
X32000000Y-132000000D01*
D44*
X42040000Y-143040000D02*
X41000000Y-142000000D01*
X42040000Y-150000000D02*
X42040000Y-143040000D01*
X42040000Y-150460000D02*
X42000000Y-150500000D01*
X42040000Y-150000000D02*
X42040000Y-150460000D01*
D45*
X56080000Y-74500000D02*
X58580000Y-77000000D01*
X43340000Y-77000000D02*
X45840000Y-74500000D01*
X45840000Y-74500000D02*
X56080000Y-74500000D01*
X36730000Y-70390000D02*
X43340000Y-77000000D01*
X36500000Y-70390000D02*
X36730000Y-70390000D01*
X36500000Y-67850000D02*
X36500000Y-70390000D01*
X43000000Y-137300000D02*
X43000000Y-133500000D01*
X43000000Y-133500000D02*
X40000000Y-130500000D01*
X40000000Y-130500000D02*
X40000000Y-122420000D01*
X38749000Y-131751000D02*
X40000000Y-130500000D01*
X38749000Y-145829000D02*
X38749000Y-131751000D01*
X38920000Y-146000000D02*
X38749000Y-145829000D01*
D40*
X87000000Y-108500000D02*
X92000000Y-108500000D01*
X85500000Y-110000000D02*
X87000000Y-108500000D01*
D47*
X89081000Y-110919000D02*
X82000000Y-118000000D01*
X93419000Y-110919000D02*
X89081000Y-110919000D01*
X96500000Y-114000000D02*
X93419000Y-110919000D01*
X96500000Y-115500000D02*
X96500000Y-114000000D01*
D40*
X125500000Y-91000000D02*
X128500000Y-91000000D01*
X87500000Y-98000000D02*
X95660000Y-98000000D01*
X85080000Y-100420000D02*
X87500000Y-98000000D01*
X95660000Y-98000000D02*
X97580000Y-99920000D01*
X85080000Y-101000000D02*
X85080000Y-100420000D01*
X82779456Y-98500000D02*
X85080000Y-100800544D01*
X75000000Y-98500000D02*
X82779456Y-98500000D01*
X72540000Y-100960000D02*
X75000000Y-98500000D01*
X85080000Y-100800544D02*
X85080000Y-101000000D01*
X72540000Y-101000000D02*
X72540000Y-100960000D01*
D41*
X97580000Y-99920000D02*
X97580000Y-101000000D01*
X99500000Y-98000000D02*
X97580000Y-99920000D01*
X107080000Y-98000000D02*
X99500000Y-98000000D01*
X110080000Y-101000000D02*
X107080000Y-98000000D01*
X110080000Y-100420000D02*
X110080000Y-101000000D01*
X112000000Y-98500000D02*
X110080000Y-100420000D01*
X120040000Y-98500000D02*
X122540000Y-101000000D01*
X112000000Y-98500000D02*
X120040000Y-98500000D01*
D45*
X60450000Y-121210000D02*
X58000000Y-123660000D01*
X62000000Y-121210000D02*
X60450000Y-121210000D01*
X62000000Y-118670000D02*
X62000000Y-121210000D01*
X65290000Y-118670000D02*
X66000000Y-117960000D01*
X62000000Y-118670000D02*
X65290000Y-118670000D01*
X65520000Y-114570000D02*
X66850000Y-114570000D01*
X62000000Y-111050000D02*
X65520000Y-114570000D01*
X66000000Y-111000000D02*
X66000000Y-112880000D01*
X63510000Y-108510000D02*
X66000000Y-111000000D01*
X62000000Y-108510000D02*
X63510000Y-108510000D01*
X79500000Y-111500000D02*
X78000000Y-110000000D01*
X79500000Y-115460000D02*
X79500000Y-111500000D01*
X77000000Y-117960000D02*
X79500000Y-115460000D01*
X66000000Y-120500000D02*
X77000000Y-120500000D01*
X73000000Y-118000000D02*
X76960000Y-118000000D01*
X76960000Y-118000000D02*
X77000000Y-117960000D01*
X71000000Y-116000000D02*
X73000000Y-118000000D01*
X69500000Y-116000000D02*
X71000000Y-116000000D01*
X67540000Y-117960000D02*
X69500000Y-116000000D01*
X66000000Y-117960000D02*
X67540000Y-117960000D01*
X76960000Y-115460000D02*
X77000000Y-115420000D01*
X73000000Y-115460000D02*
X76960000Y-115460000D01*
X72110000Y-114570000D02*
X73000000Y-115460000D01*
X66850000Y-114570000D02*
X72110000Y-114570000D01*
X66000000Y-115420000D02*
X66850000Y-114570000D01*
X66000000Y-112880000D02*
X77000000Y-112880000D01*
X93845000Y-123080000D02*
X98765000Y-128000000D01*
X91000000Y-123080000D02*
X93845000Y-123080000D01*
X84000000Y-126880000D02*
X86120000Y-129000000D01*
X84000000Y-123000000D02*
X84000000Y-126880000D01*
X87890818Y-121500000D02*
X85500000Y-121500000D01*
X91000000Y-118390818D02*
X87890818Y-121500000D01*
X85500000Y-121500000D02*
X84000000Y-123000000D01*
X91000000Y-112920000D02*
X91000000Y-118390818D01*
X40000000Y-137700000D02*
X43000000Y-140700000D01*
X40000000Y-132580000D02*
X40000000Y-137700000D01*
D46*
X51250000Y-140700000D02*
X43000000Y-140700000D01*
X52050000Y-141500000D02*
X51250000Y-140700000D01*
X70000000Y-148000000D02*
X71000000Y-149000000D01*
X70000000Y-144000000D02*
X70000000Y-148000000D01*
X66000000Y-148000000D02*
X70000000Y-144000000D01*
X47500000Y-148000000D02*
X66000000Y-148000000D01*
X46700000Y-147200000D02*
X47500000Y-148000000D01*
X46700000Y-142400000D02*
X46700000Y-147200000D01*
X56500000Y-131120000D02*
X58620000Y-129000000D01*
X52250000Y-140000000D02*
X56500000Y-140000000D01*
X52050000Y-140200000D02*
X52250000Y-140000000D01*
X52050000Y-141500000D02*
X52050000Y-140200000D01*
X56500000Y-140000000D02*
X56500000Y-131120000D01*
X63000000Y-129500000D02*
X59000000Y-133500000D01*
X63250000Y-129500000D02*
X63000000Y-129500000D01*
X67500000Y-133750000D02*
X63250000Y-129500000D01*
X67500000Y-136500000D02*
X67500000Y-133750000D01*
X62500000Y-141500000D02*
X67500000Y-136500000D01*
X61950000Y-141500000D02*
X62500000Y-141500000D01*
X70000000Y-143000000D02*
X75500000Y-137500000D01*
X70000000Y-144000000D02*
X70000000Y-143000000D01*
D45*
X89000000Y-124500000D02*
X92500000Y-128000000D01*
X86660000Y-124500000D02*
X89000000Y-124500000D01*
X76500000Y-124500000D02*
X82000000Y-124500000D01*
D48*
X82000000Y-124500000D02*
X82000000Y-131000000D01*
D45*
X75380000Y-124500000D02*
X70880000Y-129000000D01*
X76500000Y-124500000D02*
X75380000Y-124500000D01*
D48*
X70880000Y-132880000D02*
X75500000Y-137500000D01*
X70880000Y-129000000D02*
X70880000Y-132880000D01*
X82000000Y-131000000D02*
X75500000Y-137500000D01*
X82000000Y-118000000D02*
X82000000Y-124500000D01*
X86120000Y-136380000D02*
X86120000Y-129000000D01*
X76000000Y-146500000D02*
X86120000Y-136380000D01*
X76000000Y-149500000D02*
X76000000Y-146500000D01*
X87420000Y-144580000D02*
X87420000Y-149500000D01*
X87500000Y-144500000D02*
X87420000Y-144580000D01*
X87500000Y-142500000D02*
X87500000Y-144500000D01*
X92500000Y-137500000D02*
X87500000Y-142500000D01*
D40*
X103500000Y-120080000D02*
X100920000Y-120080000D01*
X100920000Y-120080000D02*
X100500000Y-120500000D01*
X126500000Y-114500000D02*
X132500000Y-114500000D01*
X117249000Y-117251000D02*
X123749000Y-117251000D01*
X108880000Y-120000000D02*
X114500000Y-120000000D01*
X114500000Y-120000000D02*
X117249000Y-117251000D01*
X123749000Y-117251000D02*
X126500000Y-114500000D01*
X111920000Y-112500000D02*
X111920000Y-115500000D01*
X106420000Y-117540000D02*
X108880000Y-120000000D01*
X103500000Y-117540000D02*
X106420000Y-117540000D01*
X111420000Y-115000000D02*
X111920000Y-115500000D01*
X103500000Y-115000000D02*
X111420000Y-115000000D01*
D49*
X99000000Y-111500000D02*
X99000000Y-115500000D01*
X97500000Y-110000000D02*
X99000000Y-111500000D01*
D40*
X99000000Y-119000000D02*
X100500000Y-120500000D01*
X99000000Y-115500000D02*
X99000000Y-119000000D01*
X96500000Y-119500000D02*
X95500000Y-120500000D01*
X96500000Y-115500000D02*
X96500000Y-119500000D01*
D47*
X132080000Y-120000000D02*
X132500000Y-119580000D01*
X124120000Y-120000000D02*
X132080000Y-120000000D01*
D49*
X116500000Y-108750000D02*
X120750000Y-108750000D01*
X129000000Y-108500000D02*
X132500000Y-108500000D01*
X123740000Y-124800000D02*
X123240000Y-124300000D01*
X115740000Y-124720000D02*
X106820000Y-124720000D01*
X74000000Y-110000000D02*
X78000000Y-110000000D01*
X110000000Y-110000000D02*
X115250000Y-110000000D01*
X69000000Y-108500000D02*
X72500000Y-108500000D01*
X84000000Y-108500000D02*
X85500000Y-110000000D01*
X120750000Y-108750000D02*
X122000000Y-110000000D01*
X122000000Y-110000000D02*
X127500000Y-110000000D01*
X105000000Y-108500000D02*
X108500000Y-108500000D01*
X103500000Y-110000000D02*
X105000000Y-108500000D01*
X79500000Y-108500000D02*
X84000000Y-108500000D01*
X78000000Y-110000000D02*
X79500000Y-108500000D01*
X106740000Y-124800000D02*
X102740000Y-124800000D01*
X92000000Y-108500000D02*
X96000000Y-108500000D01*
X96000000Y-108500000D02*
X97500000Y-110000000D01*
X106820000Y-124720000D02*
X106740000Y-124800000D01*
D11*
X124700001Y-81639999D02*
X125500000Y-80840000D01*
D49*
X136740000Y-124800000D02*
X127740000Y-124800000D01*
X102740000Y-124800000D02*
X102240000Y-124300000D01*
X116160000Y-124300000D02*
X115740000Y-124720000D01*
X97500000Y-110000000D02*
X103500000Y-110000000D01*
X127500000Y-110000000D02*
X129000000Y-108500000D01*
X115250000Y-110000000D02*
X116500000Y-108750000D01*
X123240000Y-124300000D02*
X116160000Y-124300000D01*
X72500000Y-108500000D02*
X74000000Y-110000000D01*
X108500000Y-108500000D02*
X110000000Y-110000000D01*
X127740000Y-124800000D02*
X123740000Y-124800000D01*
X132500000Y-108500000D02*
X134000000Y-110000000D01*
X122000000Y-105000000D02*
X128000000Y-105000000D01*
D48*
X88045000Y-70832500D02*
X88045000Y-76835000D01*
X76545000Y-70832500D02*
X76545000Y-76335000D01*
D49*
X69000000Y-106000000D02*
X73000000Y-106000000D01*
X79500000Y-106000000D02*
X84500000Y-106000000D01*
D48*
X99545000Y-77335000D02*
X97500000Y-79380000D01*
X99545000Y-70832500D02*
X99545000Y-77335000D01*
D49*
X128000000Y-105000000D02*
X129000000Y-106000000D01*
X133000000Y-106000000D02*
X134000000Y-105000000D01*
X78500000Y-105000000D02*
X79500000Y-106000000D01*
D48*
X88045000Y-76835000D02*
X85500000Y-79380000D01*
X134010000Y-78990000D02*
X133500000Y-79500000D01*
X111045000Y-77835000D02*
X109500000Y-79380000D01*
X122465000Y-78535000D02*
X121500000Y-79500000D01*
D49*
X73000000Y-106000000D02*
X74000000Y-105000000D01*
X84500000Y-106000000D02*
X85500000Y-105000000D01*
D48*
X134010000Y-70665000D02*
X134010000Y-78990000D01*
X76545000Y-76335000D02*
X73500000Y-79380000D01*
X122465000Y-70832500D02*
X122465000Y-78535000D01*
D49*
X74000000Y-105000000D02*
X78500000Y-105000000D01*
X129000000Y-106000000D02*
X133000000Y-106000000D01*
D48*
X111045000Y-70832500D02*
X111045000Y-77835000D01*
X128930000Y-70665000D02*
X128930000Y-70570000D01*
X128930000Y-70570000D02*
X129000000Y-70500000D01*
D44*
X35000000Y-84500000D02*
X40920000Y-84500000D01*
X34500000Y-85000000D02*
X35000000Y-84500000D01*
X34500000Y-104000000D02*
X34500000Y-85000000D01*
X33500000Y-105000000D02*
X34500000Y-104000000D01*
X35000000Y-125637810D02*
X33500000Y-124137810D01*
X35000000Y-143500000D02*
X35000000Y-125637810D01*
X34000000Y-149978736D02*
X34000000Y-144500000D01*
X36521264Y-152500000D02*
X34000000Y-149978736D01*
X34000000Y-144500000D02*
X35000000Y-143500000D01*
X51000000Y-152500000D02*
X36521264Y-152500000D01*
X52000000Y-153500000D02*
X51000000Y-152500000D01*
X33500000Y-124137810D02*
X33500000Y-105000000D01*
G04 #@! TA.AperFunction,Conductor*
G36*
X133005149Y-97500212D02*
G01*
X133485185Y-97520067D01*
X133505685Y-97521765D01*
X133977349Y-97580558D01*
X133997639Y-97583943D01*
X134462855Y-97681489D01*
X134482777Y-97686534D01*
X134938331Y-97822159D01*
X134957790Y-97828840D01*
X135400578Y-98001616D01*
X135419425Y-98009883D01*
X135846434Y-98218635D01*
X135864517Y-98228420D01*
X136272865Y-98471743D01*
X136290059Y-98482977D01*
X136676892Y-98759171D01*
X136693123Y-98771803D01*
X137020621Y-99049180D01*
X137055828Y-99078999D01*
X137070969Y-99092937D01*
X137407062Y-99429030D01*
X137421000Y-99444171D01*
X137423055Y-99446597D01*
X137699150Y-99772582D01*
X137728192Y-99806871D01*
X137740832Y-99823112D01*
X137853148Y-99980420D01*
X137893092Y-100068984D01*
X137899500Y-100125108D01*
X137899500Y-107792284D01*
X137880546Y-107887572D01*
X137852369Y-107938058D01*
X137719735Y-108121730D01*
X137706891Y-108138038D01*
X137394825Y-108501978D01*
X137380668Y-108517159D01*
X137039372Y-108853843D01*
X137023999Y-108867793D01*
X136655848Y-109174877D01*
X136639368Y-109187496D01*
X136246908Y-109462858D01*
X136229432Y-109474063D01*
X135815415Y-109715768D01*
X135797069Y-109725477D01*
X135364341Y-109931867D01*
X135345248Y-109940014D01*
X134896853Y-110109635D01*
X134877149Y-110116164D01*
X134416171Y-110247852D01*
X134395990Y-110252717D01*
X133925645Y-110345550D01*
X133905131Y-110348717D01*
X133428700Y-110402051D01*
X133407992Y-110403499D01*
X132923564Y-110417110D01*
X132913184Y-110417185D01*
X95334824Y-109905914D01*
X95239802Y-109885665D01*
X95162142Y-109833007D01*
X94740853Y-109411719D01*
X94740851Y-109411717D01*
X94623131Y-109321388D01*
X94532803Y-109252076D01*
X94305697Y-109120957D01*
X94305695Y-109120956D01*
X94305693Y-109120955D01*
X94305689Y-109120953D01*
X94126444Y-109046708D01*
X94063419Y-109020602D01*
X93810116Y-108952729D01*
X93810109Y-108952728D01*
X93680119Y-108935615D01*
X93680118Y-108935614D01*
X93680118Y-108935615D01*
X93550120Y-108918500D01*
X88949880Y-108918500D01*
X88819882Y-108935615D01*
X88819880Y-108935615D01*
X88689890Y-108952728D01*
X88689888Y-108952728D01*
X88689884Y-108952729D01*
X88498391Y-109004039D01*
X88436584Y-109020601D01*
X88436581Y-109020602D01*
X88194310Y-109120953D01*
X88194306Y-109120955D01*
X87967201Y-109252073D01*
X87967196Y-109252076D01*
X87872624Y-109324645D01*
X87759146Y-109411719D01*
X87447608Y-109723256D01*
X87366826Y-109777232D01*
X87271538Y-109796186D01*
X87268152Y-109796163D01*
X71423471Y-109580591D01*
X71413274Y-109580243D01*
X70937702Y-109554259D01*
X70917393Y-109552313D01*
X70450578Y-109488175D01*
X70430497Y-109484572D01*
X69970512Y-109382435D01*
X69950793Y-109377200D01*
X69500721Y-109237751D01*
X69481497Y-109230920D01*
X69044341Y-109055090D01*
X69025741Y-109046708D01*
X68668555Y-108867793D01*
X68604443Y-108835679D01*
X68586602Y-108825808D01*
X68183986Y-108580992D01*
X68167021Y-108569699D01*
X67785793Y-108292739D01*
X67769825Y-108280108D01*
X67412533Y-107972855D01*
X67397651Y-107958957D01*
X67066720Y-107623493D01*
X67053010Y-107608404D01*
X66911881Y-107439702D01*
X66750666Y-107246990D01*
X66738242Y-107230837D01*
X66466499Y-106845883D01*
X66455428Y-106828750D01*
X66216122Y-106422859D01*
X66206493Y-106404881D01*
X66001971Y-105982316D01*
X66001215Y-105980755D01*
X65993085Y-105962039D01*
X65962146Y-105881989D01*
X67199500Y-105881989D01*
X67199500Y-106118011D01*
X67230307Y-106352014D01*
X67291394Y-106579993D01*
X67306756Y-106617079D01*
X67381713Y-106798043D01*
X67381718Y-106798054D01*
X67499721Y-107002440D01*
X67499727Y-107002450D01*
X67643408Y-107189699D01*
X67810301Y-107356592D01*
X67997550Y-107500273D01*
X68058279Y-107535335D01*
X68201945Y-107618281D01*
X68201948Y-107618282D01*
X68201951Y-107618284D01*
X68420007Y-107708606D01*
X68647986Y-107769693D01*
X68881989Y-107800500D01*
X69118011Y-107800500D01*
X69352014Y-107769693D01*
X69579993Y-107708606D01*
X69674514Y-107669453D01*
X69769802Y-107650500D01*
X73129893Y-107650500D01*
X73129897Y-107650500D01*
X73386493Y-107609860D01*
X73577201Y-107547895D01*
X73633573Y-107529579D01*
X73865051Y-107411635D01*
X74075229Y-107258931D01*
X74610728Y-106723430D01*
X74691510Y-106669454D01*
X74786798Y-106650500D01*
X77654222Y-106650500D01*
X77749510Y-106669454D01*
X77830292Y-106723430D01*
X77875976Y-106791786D01*
X77878109Y-106790735D01*
X77881718Y-106798054D01*
X77999721Y-107002440D01*
X77999727Y-107002450D01*
X78143408Y-107189699D01*
X78310301Y-107356592D01*
X78497550Y-107500273D01*
X78558279Y-107535335D01*
X78701945Y-107618281D01*
X78701948Y-107618282D01*
X78701951Y-107618284D01*
X78920007Y-107708606D01*
X79147986Y-107769693D01*
X79381989Y-107800500D01*
X79618011Y-107800500D01*
X79852014Y-107769693D01*
X80079993Y-107708606D01*
X80174514Y-107669453D01*
X80269802Y-107650500D01*
X84629893Y-107650500D01*
X84629897Y-107650500D01*
X84886493Y-107609860D01*
X85077201Y-107547895D01*
X85133573Y-107529579D01*
X85365051Y-107411635D01*
X85575229Y-107258931D01*
X86217081Y-106617076D01*
X86269936Y-106579341D01*
X86268827Y-106577420D01*
X86275883Y-106573345D01*
X86275888Y-106573344D01*
X86474612Y-106458611D01*
X86656661Y-106318919D01*
X86818919Y-106156661D01*
X86958611Y-105974612D01*
X87012087Y-105881989D01*
X90199500Y-105881989D01*
X90199500Y-106118011D01*
X90230307Y-106352014D01*
X90291394Y-106579993D01*
X90306756Y-106617079D01*
X90381713Y-106798043D01*
X90381718Y-106798054D01*
X90499721Y-107002440D01*
X90499727Y-107002450D01*
X90643408Y-107189699D01*
X90810301Y-107356592D01*
X90997550Y-107500273D01*
X91058279Y-107535335D01*
X91201945Y-107618281D01*
X91201948Y-107618282D01*
X91201951Y-107618284D01*
X91420007Y-107708606D01*
X91647986Y-107769693D01*
X91881989Y-107800500D01*
X92118011Y-107800500D01*
X92352014Y-107769693D01*
X92579993Y-107708606D01*
X92798049Y-107618284D01*
X93002450Y-107500273D01*
X93189699Y-107356592D01*
X93356592Y-107189699D01*
X93500273Y-107002450D01*
X93618284Y-106798049D01*
X93708606Y-106579993D01*
X93769693Y-106352014D01*
X93800500Y-106118011D01*
X93800500Y-105881989D01*
X93769693Y-105647986D01*
X93708606Y-105420007D01*
X93618284Y-105201951D01*
X93618281Y-105201945D01*
X93502620Y-105001614D01*
X93500278Y-104997558D01*
X93500272Y-104997549D01*
X93420364Y-104893411D01*
X93414114Y-104885266D01*
X95749500Y-104885266D01*
X95749500Y-105114733D01*
X95779451Y-105342234D01*
X95838841Y-105563885D01*
X95926653Y-105775882D01*
X95926658Y-105775893D01*
X96034130Y-105962039D01*
X96041389Y-105974612D01*
X96041396Y-105974621D01*
X96151423Y-106118011D01*
X96181081Y-106156661D01*
X96343339Y-106318919D01*
X96525388Y-106458611D01*
X96525397Y-106458616D01*
X96724106Y-106573341D01*
X96724109Y-106573342D01*
X96724112Y-106573344D01*
X96936113Y-106661158D01*
X97157762Y-106720548D01*
X97385266Y-106750500D01*
X97614734Y-106750500D01*
X97842238Y-106720548D01*
X98063887Y-106661158D01*
X98275888Y-106573344D01*
X98474612Y-106458611D01*
X98656661Y-106318919D01*
X98818919Y-106156661D01*
X98958611Y-105974612D01*
X99012087Y-105881989D01*
X103199500Y-105881989D01*
X103199500Y-106118011D01*
X103230307Y-106352014D01*
X103291394Y-106579993D01*
X103306756Y-106617079D01*
X103381713Y-106798043D01*
X103381718Y-106798054D01*
X103499721Y-107002440D01*
X103499727Y-107002450D01*
X103643408Y-107189699D01*
X103810301Y-107356592D01*
X103997550Y-107500273D01*
X104058279Y-107535335D01*
X104201945Y-107618281D01*
X104201948Y-107618282D01*
X104201951Y-107618284D01*
X104420007Y-107708606D01*
X104647986Y-107769693D01*
X104881989Y-107800500D01*
X105118011Y-107800500D01*
X105352014Y-107769693D01*
X105579993Y-107708606D01*
X105798049Y-107618284D01*
X106002450Y-107500273D01*
X106189699Y-107356592D01*
X106356592Y-107189699D01*
X106500273Y-107002450D01*
X106618284Y-106798049D01*
X106708606Y-106579993D01*
X106769693Y-106352014D01*
X106800500Y-106118011D01*
X106800500Y-105881989D01*
X106769693Y-105647986D01*
X106708606Y-105420007D01*
X106618284Y-105201951D01*
X106618281Y-105201945D01*
X106502620Y-105001614D01*
X106500278Y-104997558D01*
X106500272Y-104997549D01*
X106420364Y-104893411D01*
X106414114Y-104885266D01*
X108249500Y-104885266D01*
X108249500Y-105114733D01*
X108279451Y-105342234D01*
X108338841Y-105563885D01*
X108426653Y-105775882D01*
X108426658Y-105775893D01*
X108534130Y-105962039D01*
X108541389Y-105974612D01*
X108541396Y-105974621D01*
X108651423Y-106118011D01*
X108681081Y-106156661D01*
X108843339Y-106318919D01*
X109025388Y-106458611D01*
X109025397Y-106458616D01*
X109224106Y-106573341D01*
X109224109Y-106573342D01*
X109224112Y-106573344D01*
X109436113Y-106661158D01*
X109657762Y-106720548D01*
X109885266Y-106750500D01*
X110114734Y-106750500D01*
X110342238Y-106720548D01*
X110563887Y-106661158D01*
X110775888Y-106573344D01*
X110974612Y-106458611D01*
X111156661Y-106318919D01*
X111318919Y-106156661D01*
X111337851Y-106131989D01*
X114699500Y-106131989D01*
X114699500Y-106368010D01*
X114727935Y-106584001D01*
X114730307Y-106602014D01*
X114782833Y-106798043D01*
X114791393Y-106829989D01*
X114791394Y-106829992D01*
X114881713Y-107048043D01*
X114881718Y-107048054D01*
X114999721Y-107252440D01*
X114999727Y-107252450D01*
X115143408Y-107439699D01*
X115310301Y-107606592D01*
X115497550Y-107750273D01*
X115558279Y-107785335D01*
X115701945Y-107868281D01*
X115701948Y-107868282D01*
X115701951Y-107868284D01*
X115920007Y-107958606D01*
X116147986Y-108019693D01*
X116381989Y-108050500D01*
X116618011Y-108050500D01*
X116852014Y-108019693D01*
X117079993Y-107958606D01*
X117298049Y-107868284D01*
X117502450Y-107750273D01*
X117689699Y-107606592D01*
X117856592Y-107439699D01*
X118000273Y-107252450D01*
X118118284Y-107048049D01*
X118208606Y-106829993D01*
X118269693Y-106602014D01*
X118300500Y-106368011D01*
X118300500Y-106131989D01*
X118269693Y-105897986D01*
X118208606Y-105670007D01*
X118118284Y-105451951D01*
X118000273Y-105247550D01*
X117856592Y-105060301D01*
X117689699Y-104893408D01*
X117679088Y-104885266D01*
X120249500Y-104885266D01*
X120249500Y-105114733D01*
X120279451Y-105342234D01*
X120338841Y-105563885D01*
X120426653Y-105775882D01*
X120426658Y-105775893D01*
X120534130Y-105962039D01*
X120541389Y-105974612D01*
X120541396Y-105974621D01*
X120651423Y-106118011D01*
X120681081Y-106156661D01*
X120843339Y-106318919D01*
X121025388Y-106458611D01*
X121025397Y-106458616D01*
X121224106Y-106573341D01*
X121224109Y-106573342D01*
X121224112Y-106573344D01*
X121436113Y-106661158D01*
X121657762Y-106720548D01*
X121885266Y-106750500D01*
X122114734Y-106750500D01*
X122342238Y-106720548D01*
X122563887Y-106661158D01*
X122563888Y-106661157D01*
X122571761Y-106659048D01*
X122572299Y-106661057D01*
X122636395Y-106650500D01*
X127154222Y-106650500D01*
X127249510Y-106669454D01*
X127330292Y-106723430D01*
X127375976Y-106791786D01*
X127378109Y-106790735D01*
X127381718Y-106798054D01*
X127499721Y-107002440D01*
X127499727Y-107002450D01*
X127643408Y-107189699D01*
X127810301Y-107356592D01*
X127997550Y-107500273D01*
X128058279Y-107535335D01*
X128201945Y-107618281D01*
X128201948Y-107618282D01*
X128201951Y-107618284D01*
X128420007Y-107708606D01*
X128647986Y-107769693D01*
X128881989Y-107800500D01*
X129118011Y-107800500D01*
X129352014Y-107769693D01*
X129579993Y-107708606D01*
X129674514Y-107669453D01*
X129769802Y-107650500D01*
X133129893Y-107650500D01*
X133129897Y-107650500D01*
X133386493Y-107609860D01*
X133577201Y-107547895D01*
X133633573Y-107529579D01*
X133865051Y-107411635D01*
X134075229Y-107258931D01*
X134717081Y-106617076D01*
X134769936Y-106579341D01*
X134768827Y-106577420D01*
X134775883Y-106573345D01*
X134775888Y-106573344D01*
X134974612Y-106458611D01*
X135156661Y-106318919D01*
X135318919Y-106156661D01*
X135458611Y-105974612D01*
X135573344Y-105775888D01*
X135661158Y-105563887D01*
X135720548Y-105342238D01*
X135750500Y-105114734D01*
X135750500Y-104885266D01*
X135720548Y-104657762D01*
X135661158Y-104436113D01*
X135573344Y-104224112D01*
X135559134Y-104199500D01*
X135458616Y-104025397D01*
X135458611Y-104025388D01*
X135318919Y-103843339D01*
X135156661Y-103681081D01*
X135156656Y-103681077D01*
X135156655Y-103681076D01*
X134974621Y-103541396D01*
X134974622Y-103541396D01*
X134974612Y-103541389D01*
X134911827Y-103505140D01*
X134775893Y-103426658D01*
X134775882Y-103426653D01*
X134563885Y-103338841D01*
X134435911Y-103304551D01*
X134342238Y-103279452D01*
X134342235Y-103279451D01*
X134342236Y-103279451D01*
X134114734Y-103249500D01*
X133885266Y-103249500D01*
X133657765Y-103279451D01*
X133436114Y-103338841D01*
X133224117Y-103426653D01*
X133224106Y-103426658D01*
X133025397Y-103541383D01*
X133025378Y-103541396D01*
X132843344Y-103681076D01*
X132681076Y-103843344D01*
X132541396Y-104025378D01*
X132541390Y-104025386D01*
X132541389Y-104025388D01*
X132426656Y-104224112D01*
X132426654Y-104224116D01*
X132426144Y-104225000D01*
X132362085Y-104298045D01*
X132274949Y-104341015D01*
X132210503Y-104349500D01*
X129786798Y-104349500D01*
X129691510Y-104330546D01*
X129610731Y-104276572D01*
X129075229Y-103741069D01*
X128865051Y-103588365D01*
X128633573Y-103470421D01*
X128633566Y-103470418D01*
X128572979Y-103450733D01*
X128386493Y-103390140D01*
X128386487Y-103390138D01*
X128129908Y-103349501D01*
X128129899Y-103349500D01*
X128129897Y-103349500D01*
X128129893Y-103349500D01*
X122636395Y-103349500D01*
X122572299Y-103338942D01*
X122571761Y-103340952D01*
X122563888Y-103338842D01*
X122563887Y-103338842D01*
X122342238Y-103279452D01*
X122342235Y-103279451D01*
X122342236Y-103279451D01*
X122114734Y-103249500D01*
X121885266Y-103249500D01*
X121657765Y-103279451D01*
X121436114Y-103338841D01*
X121224117Y-103426653D01*
X121224106Y-103426658D01*
X121025397Y-103541383D01*
X121025378Y-103541396D01*
X120843344Y-103681076D01*
X120681076Y-103843344D01*
X120541396Y-104025378D01*
X120541383Y-104025397D01*
X120426658Y-104224106D01*
X120426653Y-104224117D01*
X120338841Y-104436114D01*
X120279451Y-104657765D01*
X120249500Y-104885266D01*
X117679088Y-104885266D01*
X117502450Y-104749727D01*
X117502440Y-104749721D01*
X117298054Y-104631718D01*
X117298043Y-104631713D01*
X117177222Y-104581667D01*
X117079993Y-104541394D01*
X116852014Y-104480307D01*
X116852007Y-104480306D01*
X116618011Y-104449500D01*
X116381989Y-104449500D01*
X116147992Y-104480306D01*
X116147990Y-104480306D01*
X116147986Y-104480307D01*
X115975640Y-104526487D01*
X115920010Y-104541393D01*
X115920007Y-104541394D01*
X115701956Y-104631713D01*
X115701945Y-104631718D01*
X115497559Y-104749721D01*
X115497549Y-104749727D01*
X115310301Y-104893408D01*
X115310297Y-104893411D01*
X115143411Y-105060297D01*
X115143408Y-105060301D01*
X114999727Y-105247549D01*
X114999721Y-105247559D01*
X114881718Y-105451945D01*
X114881713Y-105451956D01*
X114835351Y-105563885D01*
X114791394Y-105670007D01*
X114730307Y-105897986D01*
X114730306Y-105897990D01*
X114730306Y-105897992D01*
X114699500Y-106131989D01*
X111337851Y-106131989D01*
X111458611Y-105974612D01*
X111573344Y-105775888D01*
X111661158Y-105563887D01*
X111720548Y-105342238D01*
X111750500Y-105114734D01*
X111750500Y-104885266D01*
X111720548Y-104657762D01*
X111661158Y-104436113D01*
X111573344Y-104224112D01*
X111559134Y-104199500D01*
X111458616Y-104025397D01*
X111458611Y-104025388D01*
X111318919Y-103843339D01*
X111156661Y-103681081D01*
X111156656Y-103681077D01*
X111156655Y-103681076D01*
X110974621Y-103541396D01*
X110974622Y-103541396D01*
X110974612Y-103541389D01*
X110911827Y-103505140D01*
X110775893Y-103426658D01*
X110775882Y-103426653D01*
X110563885Y-103338841D01*
X110435911Y-103304551D01*
X110342238Y-103279452D01*
X110342235Y-103279451D01*
X110342236Y-103279451D01*
X110114734Y-103249500D01*
X109885266Y-103249500D01*
X109657765Y-103279451D01*
X109436114Y-103338841D01*
X109224117Y-103426653D01*
X109224106Y-103426658D01*
X109025397Y-103541383D01*
X109025378Y-103541396D01*
X108843344Y-103681076D01*
X108681076Y-103843344D01*
X108541396Y-104025378D01*
X108541383Y-104025397D01*
X108426658Y-104224106D01*
X108426653Y-104224117D01*
X108338841Y-104436114D01*
X108279451Y-104657765D01*
X108249500Y-104885266D01*
X106414114Y-104885266D01*
X106356592Y-104810301D01*
X106189699Y-104643408D01*
X106002450Y-104499727D01*
X105968812Y-104480306D01*
X105798054Y-104381718D01*
X105798043Y-104381713D01*
X105657769Y-104323610D01*
X105579993Y-104291394D01*
X105352014Y-104230307D01*
X105352007Y-104230306D01*
X105118011Y-104199500D01*
X104881989Y-104199500D01*
X104647992Y-104230306D01*
X104647990Y-104230306D01*
X104647986Y-104230307D01*
X104475640Y-104276487D01*
X104420010Y-104291393D01*
X104420007Y-104291394D01*
X104201956Y-104381713D01*
X104201945Y-104381718D01*
X103997559Y-104499721D01*
X103997549Y-104499727D01*
X103810301Y-104643408D01*
X103810297Y-104643411D01*
X103643411Y-104810297D01*
X103643408Y-104810301D01*
X103499727Y-104997549D01*
X103499721Y-104997559D01*
X103381718Y-105201945D01*
X103381713Y-105201956D01*
X103323607Y-105342238D01*
X103291394Y-105420007D01*
X103230307Y-105647986D01*
X103199500Y-105881989D01*
X99012087Y-105881989D01*
X99073344Y-105775888D01*
X99073346Y-105775882D01*
X99073350Y-105775875D01*
X99126323Y-105647986D01*
X99161158Y-105563887D01*
X99220548Y-105342238D01*
X99250500Y-105114734D01*
X99250500Y-104885266D01*
X99220548Y-104657762D01*
X99161158Y-104436113D01*
X99073344Y-104224112D01*
X99059134Y-104199500D01*
X98958616Y-104025397D01*
X98958611Y-104025388D01*
X98818919Y-103843339D01*
X98656661Y-103681081D01*
X98656656Y-103681077D01*
X98656655Y-103681076D01*
X98474621Y-103541396D01*
X98474622Y-103541396D01*
X98474612Y-103541389D01*
X98411827Y-103505140D01*
X98275893Y-103426658D01*
X98275882Y-103426653D01*
X98063885Y-103338841D01*
X97935911Y-103304551D01*
X97842238Y-103279452D01*
X97842235Y-103279451D01*
X97842236Y-103279451D01*
X97614734Y-103249500D01*
X97385266Y-103249500D01*
X97157765Y-103279451D01*
X96936114Y-103338841D01*
X96724117Y-103426653D01*
X96724106Y-103426658D01*
X96525397Y-103541383D01*
X96525378Y-103541396D01*
X96343344Y-103681076D01*
X96181076Y-103843344D01*
X96041396Y-104025378D01*
X96041383Y-104025397D01*
X95926658Y-104224106D01*
X95926653Y-104224117D01*
X95838841Y-104436114D01*
X95779451Y-104657765D01*
X95749500Y-104885266D01*
X93414114Y-104885266D01*
X93356592Y-104810301D01*
X93189699Y-104643408D01*
X93002450Y-104499727D01*
X92968812Y-104480306D01*
X92798054Y-104381718D01*
X92798043Y-104381713D01*
X92657769Y-104323610D01*
X92579993Y-104291394D01*
X92352014Y-104230307D01*
X92352007Y-104230306D01*
X92118011Y-104199500D01*
X91881989Y-104199500D01*
X91647992Y-104230306D01*
X91647990Y-104230306D01*
X91647986Y-104230307D01*
X91475640Y-104276487D01*
X91420010Y-104291393D01*
X91420007Y-104291394D01*
X91201956Y-104381713D01*
X91201945Y-104381718D01*
X90997559Y-104499721D01*
X90997549Y-104499727D01*
X90810301Y-104643408D01*
X90810297Y-104643411D01*
X90643411Y-104810297D01*
X90643408Y-104810301D01*
X90499727Y-104997549D01*
X90499721Y-104997559D01*
X90381718Y-105201945D01*
X90381713Y-105201956D01*
X90323607Y-105342238D01*
X90291394Y-105420007D01*
X90230307Y-105647986D01*
X90199500Y-105881989D01*
X87012087Y-105881989D01*
X87073344Y-105775888D01*
X87073346Y-105775882D01*
X87073350Y-105775875D01*
X87126323Y-105647986D01*
X87161158Y-105563887D01*
X87220548Y-105342238D01*
X87250500Y-105114734D01*
X87250500Y-104885266D01*
X87220548Y-104657762D01*
X87161158Y-104436113D01*
X87073344Y-104224112D01*
X87059134Y-104199500D01*
X86958616Y-104025397D01*
X86958611Y-104025388D01*
X86818919Y-103843339D01*
X86656661Y-103681081D01*
X86656656Y-103681077D01*
X86656655Y-103681076D01*
X86474621Y-103541396D01*
X86474622Y-103541396D01*
X86474612Y-103541389D01*
X86411827Y-103505140D01*
X86275893Y-103426658D01*
X86275882Y-103426653D01*
X86063885Y-103338841D01*
X85935911Y-103304551D01*
X85842238Y-103279452D01*
X85842235Y-103279451D01*
X85842236Y-103279451D01*
X85614734Y-103249500D01*
X85385266Y-103249500D01*
X85157765Y-103279451D01*
X84936114Y-103338841D01*
X84724117Y-103426653D01*
X84724106Y-103426658D01*
X84525397Y-103541383D01*
X84525378Y-103541396D01*
X84343344Y-103681076D01*
X84181076Y-103843344D01*
X84041396Y-104025378D01*
X84041390Y-104025386D01*
X84041389Y-104025388D01*
X83926656Y-104224112D01*
X83926654Y-104224116D01*
X83926144Y-104225000D01*
X83862085Y-104298045D01*
X83774949Y-104341015D01*
X83710503Y-104349500D01*
X80286798Y-104349500D01*
X80191510Y-104330546D01*
X80110731Y-104276572D01*
X79575229Y-103741069D01*
X79365051Y-103588365D01*
X79365046Y-103588362D01*
X79365042Y-103588359D01*
X79135416Y-103471359D01*
X79059119Y-103411211D01*
X79011647Y-103326444D01*
X79000228Y-103229962D01*
X79026600Y-103136455D01*
X79086748Y-103060158D01*
X79171515Y-103012686D01*
X79248454Y-103000499D01*
X81010536Y-103000499D01*
X81129918Y-102989886D01*
X81325549Y-102933909D01*
X81505907Y-102839698D01*
X81505910Y-102839695D01*
X81516645Y-102834088D01*
X81609880Y-102806770D01*
X81706473Y-102817211D01*
X81727215Y-102824744D01*
X81910882Y-102900822D01*
X82158171Y-102967083D01*
X82411994Y-103000500D01*
X82668006Y-103000500D01*
X82921829Y-102967083D01*
X83169118Y-102900822D01*
X83405643Y-102802850D01*
X83627357Y-102674844D01*
X83830465Y-102518993D01*
X84011493Y-102337965D01*
X84167344Y-102134857D01*
X84295350Y-101913143D01*
X84393322Y-101676618D01*
X84459583Y-101429329D01*
X84493000Y-101175506D01*
X84493000Y-100824494D01*
X84459583Y-100570671D01*
X84393322Y-100323382D01*
X84295350Y-100086857D01*
X84211696Y-99941963D01*
X90547000Y-99941963D01*
X90547000Y-102058031D01*
X90547001Y-102058043D01*
X90557613Y-102177414D01*
X90557613Y-102177417D01*
X90557614Y-102177418D01*
X90599286Y-102323053D01*
X90613590Y-102373045D01*
X90613593Y-102373053D01*
X90689827Y-102518997D01*
X90707802Y-102553407D01*
X90836391Y-102711109D01*
X90994093Y-102839698D01*
X91174451Y-102933909D01*
X91370082Y-102989886D01*
X91489463Y-103000500D01*
X93510536Y-103000499D01*
X93629918Y-102989886D01*
X93825549Y-102933909D01*
X94005907Y-102839698D01*
X94005910Y-102839695D01*
X94016645Y-102834088D01*
X94109880Y-102806770D01*
X94206473Y-102817211D01*
X94227215Y-102824744D01*
X94410882Y-102900822D01*
X94658171Y-102967083D01*
X94911994Y-103000500D01*
X95168006Y-103000500D01*
X95421829Y-102967083D01*
X95669118Y-102900822D01*
X95905643Y-102802850D01*
X96127357Y-102674844D01*
X96330465Y-102518993D01*
X96511493Y-102337965D01*
X96667344Y-102134857D01*
X96795350Y-101913143D01*
X96893322Y-101676618D01*
X96959583Y-101429329D01*
X96993000Y-101175506D01*
X96993000Y-100824494D01*
X96959583Y-100570671D01*
X96893322Y-100323382D01*
X96795350Y-100086857D01*
X96711696Y-99941963D01*
X103047000Y-99941963D01*
X103047000Y-102058031D01*
X103047001Y-102058043D01*
X103057613Y-102177414D01*
X103057613Y-102177417D01*
X103057614Y-102177418D01*
X103099286Y-102323053D01*
X103113590Y-102373045D01*
X103113593Y-102373053D01*
X103189827Y-102518997D01*
X103207802Y-102553407D01*
X103336391Y-102711109D01*
X103494093Y-102839698D01*
X103674451Y-102933909D01*
X103870082Y-102989886D01*
X103989463Y-103000500D01*
X106010536Y-103000499D01*
X106129918Y-102989886D01*
X106325549Y-102933909D01*
X106505907Y-102839698D01*
X106505910Y-102839695D01*
X106516645Y-102834088D01*
X106609880Y-102806770D01*
X106706473Y-102817211D01*
X106727215Y-102824744D01*
X106910882Y-102900822D01*
X107158171Y-102967083D01*
X107411994Y-103000500D01*
X107668006Y-103000500D01*
X107921829Y-102967083D01*
X108169118Y-102900822D01*
X108405643Y-102802850D01*
X108627357Y-102674844D01*
X108830465Y-102518993D01*
X109011493Y-102337965D01*
X109167344Y-102134857D01*
X109295350Y-101913143D01*
X109393322Y-101676618D01*
X109459583Y-101429329D01*
X109493000Y-101175506D01*
X109493000Y-100824494D01*
X109459583Y-100570671D01*
X109393322Y-100323382D01*
X109295350Y-100086857D01*
X109211696Y-99941963D01*
X115507000Y-99941963D01*
X115507000Y-102058031D01*
X115507001Y-102058043D01*
X115517613Y-102177414D01*
X115517613Y-102177417D01*
X115517614Y-102177418D01*
X115559286Y-102323053D01*
X115573590Y-102373045D01*
X115573593Y-102373053D01*
X115649827Y-102518997D01*
X115667802Y-102553407D01*
X115796391Y-102711109D01*
X115954093Y-102839698D01*
X116134451Y-102933909D01*
X116330082Y-102989886D01*
X116449463Y-103000500D01*
X118470536Y-103000499D01*
X118589918Y-102989886D01*
X118785549Y-102933909D01*
X118965907Y-102839698D01*
X118965910Y-102839695D01*
X118976645Y-102834088D01*
X119069880Y-102806770D01*
X119166473Y-102817211D01*
X119187215Y-102824744D01*
X119370882Y-102900822D01*
X119618171Y-102967083D01*
X119871994Y-103000500D01*
X120128006Y-103000500D01*
X120381829Y-102967083D01*
X120629118Y-102900822D01*
X120865643Y-102802850D01*
X121087357Y-102674844D01*
X121290465Y-102518993D01*
X121471493Y-102337965D01*
X121627344Y-102134857D01*
X121755350Y-101913143D01*
X121853322Y-101676618D01*
X121919583Y-101429329D01*
X121953000Y-101175506D01*
X121953000Y-100824494D01*
X121919583Y-100570671D01*
X121853322Y-100323382D01*
X121755350Y-100086857D01*
X121642828Y-99891963D01*
X128007000Y-99891963D01*
X128007000Y-102008031D01*
X128007001Y-102008043D01*
X128017613Y-102127414D01*
X128017613Y-102127417D01*
X128017614Y-102127418D01*
X128019746Y-102134867D01*
X128073590Y-102323045D01*
X128073593Y-102323053D01*
X128149827Y-102468997D01*
X128167802Y-102503407D01*
X128296391Y-102661109D01*
X128454093Y-102789698D01*
X128634451Y-102883909D01*
X128830082Y-102939886D01*
X128949463Y-102950500D01*
X130970536Y-102950499D01*
X131089918Y-102939886D01*
X131285549Y-102883909D01*
X131465907Y-102789698D01*
X131465910Y-102789695D01*
X131476645Y-102784088D01*
X131569880Y-102756770D01*
X131666473Y-102767211D01*
X131687215Y-102774744D01*
X131870882Y-102850822D01*
X132118171Y-102917083D01*
X132371994Y-102950500D01*
X132628006Y-102950500D01*
X132881829Y-102917083D01*
X133129118Y-102850822D01*
X133365643Y-102752850D01*
X133587357Y-102624844D01*
X133790465Y-102468993D01*
X133971493Y-102287965D01*
X134127344Y-102084857D01*
X134255350Y-101863143D01*
X134353322Y-101626618D01*
X134419583Y-101379329D01*
X134453000Y-101125506D01*
X134453000Y-100774494D01*
X134419583Y-100520671D01*
X134353322Y-100273382D01*
X134255350Y-100036857D01*
X134127344Y-99815143D01*
X134009863Y-99662040D01*
X133971497Y-99612040D01*
X133971496Y-99612039D01*
X133971493Y-99612035D01*
X133790465Y-99431007D01*
X133790460Y-99431003D01*
X133790459Y-99431002D01*
X133587367Y-99275163D01*
X133587352Y-99275153D01*
X133452246Y-99197150D01*
X133365643Y-99147150D01*
X133365641Y-99147149D01*
X133365639Y-99147148D01*
X133365635Y-99147146D01*
X133169954Y-99066093D01*
X133129118Y-99049178D01*
X132881829Y-98982917D01*
X132881824Y-98982916D01*
X132881827Y-98982916D01*
X132628006Y-98949500D01*
X132371994Y-98949500D01*
X132118174Y-98982916D01*
X131870888Y-99049176D01*
X131870876Y-99049180D01*
X131687218Y-99125253D01*
X131591930Y-99144207D01*
X131496642Y-99125253D01*
X131476646Y-99115911D01*
X131285553Y-99016093D01*
X131285552Y-99016092D01*
X131285549Y-99016091D01*
X131089918Y-98960114D01*
X130970537Y-98949500D01*
X130970535Y-98949500D01*
X128949468Y-98949500D01*
X128949456Y-98949501D01*
X128830085Y-98960113D01*
X128634454Y-99016090D01*
X128634446Y-99016093D01*
X128454097Y-99110299D01*
X128454092Y-99110302D01*
X128296393Y-99238889D01*
X128296389Y-99238893D01*
X128167802Y-99396592D01*
X128167799Y-99396597D01*
X128073593Y-99576946D01*
X128073590Y-99576954D01*
X128017615Y-99772578D01*
X128017614Y-99772582D01*
X128007000Y-99891963D01*
X121642828Y-99891963D01*
X121627344Y-99865143D01*
X121595092Y-99823112D01*
X121471497Y-99662040D01*
X121471496Y-99662039D01*
X121471493Y-99662035D01*
X121290465Y-99481007D01*
X121290460Y-99481003D01*
X121290459Y-99481002D01*
X121087367Y-99325163D01*
X121087352Y-99325153D01*
X120937937Y-99238889D01*
X120865643Y-99197150D01*
X120865641Y-99197149D01*
X120865639Y-99197148D01*
X120865635Y-99197146D01*
X120718139Y-99136051D01*
X120629118Y-99099178D01*
X120605826Y-99092937D01*
X120553809Y-99078999D01*
X120381829Y-99032917D01*
X120381824Y-99032916D01*
X120381827Y-99032916D01*
X120128006Y-98999500D01*
X119871994Y-98999500D01*
X119618174Y-99032916D01*
X119370888Y-99099176D01*
X119370876Y-99099180D01*
X119187218Y-99175253D01*
X119091930Y-99194207D01*
X118996642Y-99175253D01*
X118976646Y-99165911D01*
X118785553Y-99066093D01*
X118785552Y-99066092D01*
X118785549Y-99066091D01*
X118589918Y-99010114D01*
X118470537Y-98999500D01*
X118470535Y-98999500D01*
X116449468Y-98999500D01*
X116449456Y-98999501D01*
X116330085Y-99010113D01*
X116134454Y-99066090D01*
X116134446Y-99066093D01*
X115954097Y-99160299D01*
X115954092Y-99160302D01*
X115796393Y-99288889D01*
X115796389Y-99288893D01*
X115667802Y-99446592D01*
X115667799Y-99446597D01*
X115573593Y-99626946D01*
X115573590Y-99626954D01*
X115517615Y-99822578D01*
X115517614Y-99822582D01*
X115507000Y-99941963D01*
X109211696Y-99941963D01*
X109167344Y-99865143D01*
X109135092Y-99823112D01*
X109011497Y-99662040D01*
X109011496Y-99662039D01*
X109011493Y-99662035D01*
X108830465Y-99481007D01*
X108830460Y-99481003D01*
X108830459Y-99481002D01*
X108627367Y-99325163D01*
X108627352Y-99325153D01*
X108477937Y-99238889D01*
X108405643Y-99197150D01*
X108405641Y-99197149D01*
X108405639Y-99197148D01*
X108405635Y-99197146D01*
X108258139Y-99136051D01*
X108169118Y-99099178D01*
X108145826Y-99092937D01*
X108093809Y-99078999D01*
X107921829Y-99032917D01*
X107921824Y-99032916D01*
X107921827Y-99032916D01*
X107668006Y-98999500D01*
X107411994Y-98999500D01*
X107158174Y-99032916D01*
X106910888Y-99099176D01*
X106910876Y-99099180D01*
X106727218Y-99175253D01*
X106631930Y-99194207D01*
X106536642Y-99175253D01*
X106516646Y-99165911D01*
X106325553Y-99066093D01*
X106325552Y-99066092D01*
X106325549Y-99066091D01*
X106129918Y-99010114D01*
X106010537Y-98999500D01*
X106010535Y-98999500D01*
X103989468Y-98999500D01*
X103989456Y-98999501D01*
X103870085Y-99010113D01*
X103674454Y-99066090D01*
X103674446Y-99066093D01*
X103494097Y-99160299D01*
X103494092Y-99160302D01*
X103336393Y-99288889D01*
X103336389Y-99288893D01*
X103207802Y-99446592D01*
X103207799Y-99446597D01*
X103113593Y-99626946D01*
X103113590Y-99626954D01*
X103057615Y-99822578D01*
X103057614Y-99822582D01*
X103047000Y-99941963D01*
X96711696Y-99941963D01*
X96667344Y-99865143D01*
X96635092Y-99823112D01*
X96511497Y-99662040D01*
X96511496Y-99662039D01*
X96511493Y-99662035D01*
X96330465Y-99481007D01*
X96330460Y-99481003D01*
X96330459Y-99481002D01*
X96127367Y-99325163D01*
X96127352Y-99325153D01*
X95977937Y-99238889D01*
X95905643Y-99197150D01*
X95905641Y-99197149D01*
X95905639Y-99197148D01*
X95905635Y-99197146D01*
X95758139Y-99136051D01*
X95669118Y-99099178D01*
X95645826Y-99092937D01*
X95593809Y-99078999D01*
X95421829Y-99032917D01*
X95421824Y-99032916D01*
X95421827Y-99032916D01*
X95168006Y-98999500D01*
X94911994Y-98999500D01*
X94658174Y-99032916D01*
X94410888Y-99099176D01*
X94410876Y-99099180D01*
X94227218Y-99175253D01*
X94131930Y-99194207D01*
X94036642Y-99175253D01*
X94016646Y-99165911D01*
X93825553Y-99066093D01*
X93825552Y-99066092D01*
X93825549Y-99066091D01*
X93629918Y-99010114D01*
X93510537Y-98999500D01*
X93510535Y-98999500D01*
X91489468Y-98999500D01*
X91489456Y-98999501D01*
X91370085Y-99010113D01*
X91174454Y-99066090D01*
X91174446Y-99066093D01*
X90994097Y-99160299D01*
X90994092Y-99160302D01*
X90836393Y-99288889D01*
X90836389Y-99288893D01*
X90707802Y-99446592D01*
X90707799Y-99446597D01*
X90613593Y-99626946D01*
X90613590Y-99626954D01*
X90557615Y-99822578D01*
X90557614Y-99822582D01*
X90547000Y-99941963D01*
X84211696Y-99941963D01*
X84167344Y-99865143D01*
X84135092Y-99823112D01*
X84011497Y-99662040D01*
X84011496Y-99662039D01*
X84011493Y-99662035D01*
X83830465Y-99481007D01*
X83830460Y-99481003D01*
X83830459Y-99481002D01*
X83627367Y-99325163D01*
X83627352Y-99325153D01*
X83477937Y-99238889D01*
X83405643Y-99197150D01*
X83405641Y-99197149D01*
X83405639Y-99197148D01*
X83405635Y-99197146D01*
X83258139Y-99136051D01*
X83169118Y-99099178D01*
X83145826Y-99092937D01*
X83093809Y-99078999D01*
X82921829Y-99032917D01*
X82921824Y-99032916D01*
X82921827Y-99032916D01*
X82668006Y-98999500D01*
X82411994Y-98999500D01*
X82158174Y-99032916D01*
X81910888Y-99099176D01*
X81910876Y-99099180D01*
X81727218Y-99175253D01*
X81631930Y-99194207D01*
X81536642Y-99175253D01*
X81516646Y-99165911D01*
X81325553Y-99066093D01*
X81325552Y-99066092D01*
X81325549Y-99066091D01*
X81129918Y-99010114D01*
X81010537Y-98999500D01*
X81010535Y-98999500D01*
X78989468Y-98999500D01*
X78989456Y-98999501D01*
X78870085Y-99010113D01*
X78674454Y-99066090D01*
X78674446Y-99066093D01*
X78494097Y-99160299D01*
X78494092Y-99160302D01*
X78336393Y-99288889D01*
X78336389Y-99288893D01*
X78207802Y-99446592D01*
X78207799Y-99446597D01*
X78113593Y-99626946D01*
X78113590Y-99626954D01*
X78057615Y-99822578D01*
X78057614Y-99822582D01*
X78047000Y-99941963D01*
X78047000Y-102058031D01*
X78047001Y-102058043D01*
X78057613Y-102177414D01*
X78057613Y-102177417D01*
X78057614Y-102177418D01*
X78099286Y-102323053D01*
X78113590Y-102373045D01*
X78113593Y-102373053D01*
X78189827Y-102518997D01*
X78207802Y-102553407D01*
X78336391Y-102711109D01*
X78466515Y-102817211D01*
X78494092Y-102839697D01*
X78494096Y-102839700D01*
X78570857Y-102879796D01*
X78646541Y-102940714D01*
X78693152Y-103025958D01*
X78703594Y-103122550D01*
X78676276Y-103215785D01*
X78615358Y-103291469D01*
X78530114Y-103338080D01*
X78455572Y-103349500D01*
X74636395Y-103349500D01*
X74572299Y-103338942D01*
X74571761Y-103340952D01*
X74563888Y-103338842D01*
X74563887Y-103338842D01*
X74342238Y-103279452D01*
X74342235Y-103279451D01*
X74342236Y-103279451D01*
X74114734Y-103249500D01*
X73885266Y-103249500D01*
X73657765Y-103279451D01*
X73436114Y-103338841D01*
X73224117Y-103426653D01*
X73224106Y-103426658D01*
X73025397Y-103541383D01*
X73025378Y-103541396D01*
X72843344Y-103681076D01*
X72681076Y-103843344D01*
X72541396Y-104025378D01*
X72541390Y-104025386D01*
X72541389Y-104025388D01*
X72426656Y-104224112D01*
X72426654Y-104224116D01*
X72426144Y-104225000D01*
X72362085Y-104298045D01*
X72274949Y-104341015D01*
X72210503Y-104349500D01*
X69769802Y-104349500D01*
X69674514Y-104330546D01*
X69657769Y-104323610D01*
X69579993Y-104291394D01*
X69352014Y-104230307D01*
X69352007Y-104230306D01*
X69118011Y-104199500D01*
X68881989Y-104199500D01*
X68647992Y-104230306D01*
X68647990Y-104230306D01*
X68647986Y-104230307D01*
X68475640Y-104276487D01*
X68420010Y-104291393D01*
X68420007Y-104291394D01*
X68201956Y-104381713D01*
X68201945Y-104381718D01*
X67997559Y-104499721D01*
X67997549Y-104499727D01*
X67810301Y-104643408D01*
X67810297Y-104643411D01*
X67643411Y-104810297D01*
X67643408Y-104810301D01*
X67499727Y-104997549D01*
X67499721Y-104997559D01*
X67381718Y-105201945D01*
X67381713Y-105201956D01*
X67323607Y-105342238D01*
X67291394Y-105420007D01*
X67230307Y-105647986D01*
X67199500Y-105881989D01*
X65962146Y-105881989D01*
X65839203Y-105563888D01*
X65823218Y-105522531D01*
X65816651Y-105503220D01*
X65769162Y-105342234D01*
X65683336Y-105051284D01*
X65678372Y-105031500D01*
X65582501Y-104570164D01*
X65579174Y-104550055D01*
X65521389Y-104082386D01*
X65519722Y-104062084D01*
X65500209Y-103586174D01*
X65500000Y-103575973D01*
X65500000Y-103505140D01*
X65500213Y-103494850D01*
X65506661Y-103338942D01*
X65520067Y-103014812D01*
X65521766Y-102994314D01*
X65523482Y-102980545D01*
X65554074Y-102888332D01*
X65617627Y-102814846D01*
X65704463Y-102771275D01*
X65801364Y-102764251D01*
X65893577Y-102794843D01*
X65927921Y-102818358D01*
X65954093Y-102839698D01*
X66134451Y-102933909D01*
X66330082Y-102989886D01*
X66449463Y-103000500D01*
X68470536Y-103000499D01*
X68589918Y-102989886D01*
X68785549Y-102933909D01*
X68965907Y-102839698D01*
X68965910Y-102839695D01*
X68976645Y-102834088D01*
X69069880Y-102806770D01*
X69166473Y-102817211D01*
X69187215Y-102824744D01*
X69370882Y-102900822D01*
X69618171Y-102967083D01*
X69871994Y-103000500D01*
X70128006Y-103000500D01*
X70381829Y-102967083D01*
X70629118Y-102900822D01*
X70865643Y-102802850D01*
X71087357Y-102674844D01*
X71290465Y-102518993D01*
X71471493Y-102337965D01*
X71627344Y-102134857D01*
X71755350Y-101913143D01*
X71853322Y-101676618D01*
X71919583Y-101429329D01*
X71953000Y-101175506D01*
X71953000Y-100824494D01*
X71919583Y-100570671D01*
X71853322Y-100323382D01*
X71755350Y-100086857D01*
X71627344Y-99865143D01*
X71595092Y-99823112D01*
X71471497Y-99662040D01*
X71471496Y-99662039D01*
X71471493Y-99662035D01*
X71290465Y-99481007D01*
X71290460Y-99481003D01*
X71290459Y-99481002D01*
X71087367Y-99325163D01*
X71087352Y-99325153D01*
X70937937Y-99238889D01*
X70865643Y-99197150D01*
X70865641Y-99197149D01*
X70865639Y-99197148D01*
X70865635Y-99197146D01*
X70718139Y-99136051D01*
X70629118Y-99099178D01*
X70605826Y-99092937D01*
X70553809Y-99078999D01*
X70381829Y-99032917D01*
X70381824Y-99032916D01*
X70381827Y-99032916D01*
X70128006Y-98999500D01*
X69871994Y-98999500D01*
X69618174Y-99032916D01*
X69370888Y-99099176D01*
X69370876Y-99099180D01*
X69187218Y-99175253D01*
X69091930Y-99194207D01*
X68996642Y-99175253D01*
X68976646Y-99165911D01*
X68785553Y-99066093D01*
X68785552Y-99066092D01*
X68785549Y-99066091D01*
X68589918Y-99010114D01*
X68470537Y-98999500D01*
X68470536Y-98999500D01*
X68263766Y-98999500D01*
X68243467Y-98995462D01*
X68222784Y-98996104D01*
X68196276Y-98986075D01*
X68168478Y-98980546D01*
X68151271Y-98969048D01*
X68131915Y-98961726D01*
X68111263Y-98942316D01*
X68087696Y-98926570D01*
X68076197Y-98909361D01*
X68061119Y-98895190D01*
X68049466Y-98869354D01*
X68033720Y-98845788D01*
X68029682Y-98825490D01*
X68021174Y-98806626D01*
X68020295Y-98778297D01*
X68014766Y-98750500D01*
X68018803Y-98730201D01*
X68018162Y-98709518D01*
X68028190Y-98683010D01*
X68033720Y-98655212D01*
X68045217Y-98638005D01*
X68052540Y-98618649D01*
X68071949Y-98597997D01*
X68087696Y-98574430D01*
X68119072Y-98547856D01*
X68209951Y-98482969D01*
X68227122Y-98471750D01*
X68635492Y-98228414D01*
X68653556Y-98218639D01*
X69080584Y-98009878D01*
X69099412Y-98001619D01*
X69542221Y-97828835D01*
X69561660Y-97822162D01*
X70017227Y-97686533D01*
X70037138Y-97681490D01*
X70502364Y-97583942D01*
X70522646Y-97580558D01*
X70994316Y-97521765D01*
X71014812Y-97520067D01*
X71494850Y-97500212D01*
X71505140Y-97500000D01*
X132994860Y-97500000D01*
X133005149Y-97500212D01*
G37*
G04 #@! TD.AperFunction*
G04 #@! TA.AperFunction,NonConductor*
G36*
X56627137Y-124125020D02*
G01*
X56651562Y-124130121D01*
X56676510Y-124130446D01*
X56698647Y-124139954D01*
X56722237Y-124144881D01*
X56742851Y-124158941D01*
X56765779Y-124168789D01*
X56782595Y-124186048D01*
X56802501Y-124199625D01*
X56821332Y-124225806D01*
X56833579Y-124238375D01*
X56840691Y-124249324D01*
X56887713Y-124341610D01*
X57008034Y-124507219D01*
X57008516Y-124507701D01*
X57013170Y-124514866D01*
X57028809Y-124554056D01*
X57046473Y-124592373D01*
X57046732Y-124598969D01*
X57049179Y-124605101D01*
X57048630Y-124647289D01*
X57050287Y-124689453D01*
X57048001Y-124695647D01*
X57047916Y-124702248D01*
X57031265Y-124741014D01*
X57016660Y-124780603D01*
X57012178Y-124785451D01*
X57009573Y-124791517D01*
X56979352Y-124820961D01*
X56950711Y-124851946D01*
X56944715Y-124854709D01*
X56939987Y-124859317D01*
X56900796Y-124874956D01*
X56862480Y-124892620D01*
X56855883Y-124892879D01*
X56849752Y-124895326D01*
X56804353Y-124899500D01*
X56120825Y-124899500D01*
X56025537Y-124880546D01*
X55944755Y-124826570D01*
X55890779Y-124745788D01*
X55871825Y-124650500D01*
X55890779Y-124555212D01*
X55944755Y-124474430D01*
X55952266Y-124466919D01*
X55991966Y-124427219D01*
X56112287Y-124261610D01*
X56114010Y-124258226D01*
X56115582Y-124256232D01*
X56117400Y-124253267D01*
X56117750Y-124253481D01*
X56174147Y-124181930D01*
X56258910Y-124134451D01*
X56338239Y-124122269D01*
X56627137Y-124125020D01*
G37*
G04 #@! TD.AperFunction*
G04 #@! TA.AperFunction,NonConductor*
G36*
X53653469Y-124096700D02*
G01*
X53748568Y-124116560D01*
X53828831Y-124171303D01*
X53872952Y-124232642D01*
X53887707Y-124261600D01*
X53887711Y-124261607D01*
X53887713Y-124261610D01*
X54000035Y-124416209D01*
X54008035Y-124427220D01*
X54055245Y-124474430D01*
X54109221Y-124555212D01*
X54128175Y-124650500D01*
X54109221Y-124745788D01*
X54055245Y-124826570D01*
X53974463Y-124880546D01*
X53879175Y-124899500D01*
X52305389Y-124899500D01*
X52295683Y-124897569D01*
X52285854Y-124898733D01*
X52248331Y-124888150D01*
X52210101Y-124880546D01*
X52201871Y-124875047D01*
X52192346Y-124872361D01*
X52161736Y-124848230D01*
X52129319Y-124826570D01*
X52123818Y-124818338D01*
X52116049Y-124812213D01*
X52097003Y-124778205D01*
X52075343Y-124745788D01*
X52068576Y-124727446D01*
X52044051Y-124651967D01*
X52044050Y-124651963D01*
X52019876Y-124577561D01*
X52019875Y-124577559D01*
X52019873Y-124577556D01*
X52019873Y-124577554D01*
X51952160Y-124444661D01*
X51925791Y-124351158D01*
X51937210Y-124254676D01*
X51984682Y-124169909D01*
X52060979Y-124109760D01*
X52154486Y-124083389D01*
X52176376Y-124082632D01*
X53653469Y-124096700D01*
G37*
G04 #@! TD.AperFunction*
G04 #@! TA.AperFunction,NonConductor*
G36*
X85001819Y-124395255D02*
G01*
X85116577Y-124396348D01*
X85211678Y-124416209D01*
X85291942Y-124470952D01*
X85345147Y-124552243D01*
X85360138Y-124606384D01*
X85391522Y-124804531D01*
X85454778Y-124999214D01*
X85454782Y-124999224D01*
X85547711Y-125181607D01*
X85547713Y-125181610D01*
X85668034Y-125347219D01*
X85812781Y-125491966D01*
X85978390Y-125612287D01*
X86160781Y-125705220D01*
X86355466Y-125768477D01*
X86426575Y-125779739D01*
X86557638Y-125800499D01*
X86557645Y-125800499D01*
X86557648Y-125800500D01*
X86557651Y-125800500D01*
X86762349Y-125800500D01*
X86762352Y-125800500D01*
X86762355Y-125800499D01*
X86762361Y-125800499D01*
X86857870Y-125785371D01*
X86964534Y-125768477D01*
X87159219Y-125705220D01*
X87341610Y-125612287D01*
X87507219Y-125491966D01*
X87651966Y-125347219D01*
X87651970Y-125347212D01*
X87658314Y-125339786D01*
X87660289Y-125341473D01*
X87718987Y-125287204D01*
X87810134Y-125253569D01*
X87849108Y-125250500D01*
X88585992Y-125250500D01*
X88681280Y-125269454D01*
X88762062Y-125323430D01*
X89613062Y-126174430D01*
X89667038Y-126255212D01*
X89685992Y-126350500D01*
X89667038Y-126445788D01*
X89613062Y-126526570D01*
X89532280Y-126580546D01*
X89436993Y-126599500D01*
X89012134Y-126599500D01*
X89012130Y-126599500D01*
X89012128Y-126599501D01*
X88999314Y-126600878D01*
X88952519Y-126605908D01*
X88952515Y-126605909D01*
X88817670Y-126656203D01*
X88702455Y-126742453D01*
X88702453Y-126742455D01*
X88616204Y-126857669D01*
X88565908Y-126992518D01*
X88559500Y-127052123D01*
X88559500Y-128148797D01*
X88540546Y-128244085D01*
X88486570Y-128324867D01*
X88405788Y-128378843D01*
X88310500Y-128397797D01*
X88215212Y-128378843D01*
X88134430Y-128324867D01*
X88080455Y-128244087D01*
X88007923Y-128068979D01*
X87870249Y-127830521D01*
X87702628Y-127612072D01*
X87507928Y-127417372D01*
X87289479Y-127249751D01*
X87289469Y-127249745D01*
X87289469Y-127249744D01*
X87051029Y-127112081D01*
X87051025Y-127112079D01*
X87051021Y-127112077D01*
X86796637Y-127006707D01*
X86796630Y-127006704D01*
X86641676Y-126965185D01*
X86530666Y-126935440D01*
X86530661Y-126935439D01*
X86530662Y-126935439D01*
X86257674Y-126899500D01*
X85982326Y-126899500D01*
X85709338Y-126935439D01*
X85443364Y-127006706D01*
X85443360Y-127006707D01*
X85416559Y-127017809D01*
X85321271Y-127036763D01*
X85321270Y-127036762D01*
X85321270Y-127036763D01*
X85225982Y-127017809D01*
X85145201Y-126963833D01*
X84823430Y-126642062D01*
X84769454Y-126561280D01*
X84750500Y-126465992D01*
X84750500Y-124644245D01*
X84769454Y-124548957D01*
X84823430Y-124468175D01*
X84904212Y-124414199D01*
X84999500Y-124395245D01*
X85001819Y-124395255D01*
G37*
G04 #@! TD.AperFunction*
G04 #@! TA.AperFunction,NonConductor*
G36*
X63528604Y-124190749D02*
G01*
X63623704Y-124210609D01*
X63702299Y-124263667D01*
X65926570Y-126487937D01*
X65980546Y-126568719D01*
X65999500Y-126664007D01*
X65999500Y-128310891D01*
X65980546Y-128406179D01*
X65926570Y-128486961D01*
X65909842Y-128501250D01*
X65910214Y-128501686D01*
X65902781Y-128508033D01*
X65758035Y-128652779D01*
X65637711Y-128818392D01*
X65544782Y-129000775D01*
X65544778Y-129000785D01*
X65481522Y-129195468D01*
X65449500Y-129397638D01*
X65449500Y-129602355D01*
X65458006Y-129656060D01*
X65454191Y-129753140D01*
X65413515Y-129841370D01*
X65342171Y-129907318D01*
X65251021Y-129940945D01*
X65153941Y-129937130D01*
X65065711Y-129896454D01*
X65036001Y-129871080D01*
X64673430Y-129508509D01*
X64619454Y-129427727D01*
X64600500Y-129332439D01*
X64600500Y-127913393D01*
X64600500Y-127913389D01*
X64573402Y-127742299D01*
X64519873Y-127577555D01*
X64441232Y-127423212D01*
X64441230Y-127423209D01*
X64441229Y-127423207D01*
X64339417Y-127283076D01*
X64339413Y-127283071D01*
X64216928Y-127160585D01*
X64216928Y-127160586D01*
X62216928Y-125160586D01*
X62216924Y-125160583D01*
X62216922Y-125160581D01*
X62076792Y-125058770D01*
X61922443Y-124980126D01*
X61922437Y-124980124D01*
X61828195Y-124949503D01*
X61757701Y-124926598D01*
X61757699Y-124926597D01*
X61757697Y-124926597D01*
X61586621Y-124899501D01*
X61586614Y-124899500D01*
X61586611Y-124899500D01*
X61586607Y-124899500D01*
X59195647Y-124899500D01*
X59171937Y-124894783D01*
X59147758Y-124894852D01*
X59124750Y-124885397D01*
X59100359Y-124880546D01*
X59080256Y-124867114D01*
X59057894Y-124857925D01*
X59040258Y-124840389D01*
X59019577Y-124826570D01*
X59006143Y-124806465D01*
X58989002Y-124789420D01*
X58979419Y-124766468D01*
X58965601Y-124745788D01*
X58960884Y-124722077D01*
X58951569Y-124699766D01*
X58951498Y-124674891D01*
X58946647Y-124650500D01*
X58951363Y-124626790D01*
X58951295Y-124602611D01*
X58960269Y-124582014D01*
X58965601Y-124555212D01*
X58988222Y-124512747D01*
X58991749Y-124507435D01*
X58991966Y-124507219D01*
X59112287Y-124341610D01*
X59146604Y-124274257D01*
X59154530Y-124262324D01*
X59178869Y-124237847D01*
X59200241Y-124210737D01*
X59212847Y-124203676D01*
X59223035Y-124193432D01*
X59254890Y-124180131D01*
X59285009Y-124163264D01*
X59301266Y-124160768D01*
X59312689Y-124155999D01*
X59332702Y-124155942D01*
X59364318Y-124151089D01*
X63528604Y-124190749D01*
G37*
G04 #@! TD.AperFunction*
G04 #@! TA.AperFunction,NonConductor*
G36*
X61036306Y-127119454D02*
G01*
X61117088Y-127173430D01*
X62251166Y-128307508D01*
X62305142Y-128388290D01*
X62324096Y-128483578D01*
X62305142Y-128578866D01*
X62262354Y-128643593D01*
X62264393Y-128645335D01*
X62258037Y-128652776D01*
X62137713Y-128818390D01*
X62044778Y-129000782D01*
X62044778Y-129000783D01*
X62044228Y-129002477D01*
X62043648Y-129003512D01*
X62041038Y-129009814D01*
X62040291Y-129009504D01*
X61996751Y-129087242D01*
X61983490Y-129101586D01*
X61145569Y-129939508D01*
X61064787Y-129993485D01*
X60969499Y-130012439D01*
X60874211Y-129993485D01*
X60793430Y-129939509D01*
X60739453Y-129858727D01*
X60720499Y-129763439D01*
X60720499Y-127599993D01*
X60720499Y-127599991D01*
X60709999Y-127497203D01*
X60698464Y-127462394D01*
X60687009Y-127427823D01*
X60682113Y-127388431D01*
X60674370Y-127349500D01*
X60676158Y-127340507D01*
X60675028Y-127331409D01*
X60685580Y-127293142D01*
X60693324Y-127254212D01*
X60698417Y-127246588D01*
X60700855Y-127237750D01*
X60725243Y-127206440D01*
X60747300Y-127173430D01*
X60754925Y-127168334D01*
X60760558Y-127161104D01*
X60795072Y-127141509D01*
X60828082Y-127119454D01*
X60837073Y-127117665D01*
X60845047Y-127113139D01*
X60923370Y-127100500D01*
X60941018Y-127100500D01*
X61036306Y-127119454D01*
G37*
G04 #@! TD.AperFunction*
G04 #@! TA.AperFunction,NonConductor*
G36*
X59478728Y-131119453D02*
G01*
X59559510Y-131173429D01*
X59613486Y-131254211D01*
X59632440Y-131349499D01*
X59613486Y-131444787D01*
X59559510Y-131525569D01*
X59559509Y-131525569D01*
X58880364Y-132204713D01*
X58799583Y-132258689D01*
X58743248Y-132274577D01*
X58707176Y-132280290D01*
X58519982Y-132341113D01*
X58519976Y-132341115D01*
X58428740Y-132387602D01*
X58344595Y-132430476D01*
X58344592Y-132430477D01*
X58344590Y-132430479D01*
X58344589Y-132430479D01*
X58185357Y-132546169D01*
X58046169Y-132685357D01*
X57950944Y-132816422D01*
X57879600Y-132882370D01*
X57788450Y-132915997D01*
X57691370Y-132912182D01*
X57603140Y-132871506D01*
X57537192Y-132800162D01*
X57503565Y-132709012D01*
X57500500Y-132670062D01*
X57500500Y-131637558D01*
X57519454Y-131542270D01*
X57573426Y-131461493D01*
X57861492Y-131173426D01*
X57942271Y-131119453D01*
X58037559Y-131100499D01*
X59383440Y-131100499D01*
X59478728Y-131119453D01*
G37*
G04 #@! TD.AperFunction*
G04 #@! TA.AperFunction,NonConductor*
G36*
X80095788Y-125269454D02*
G01*
X80176570Y-125323430D01*
X80230546Y-125404212D01*
X80249500Y-125499500D01*
X80249500Y-130171779D01*
X80230546Y-130267067D01*
X80176570Y-130347849D01*
X76597849Y-133926570D01*
X76517067Y-133980546D01*
X76421779Y-133999500D01*
X74578221Y-133999500D01*
X74482933Y-133980546D01*
X74402151Y-133926570D01*
X72703430Y-132227849D01*
X72649454Y-132147067D01*
X72630500Y-132051779D01*
X72630500Y-131114007D01*
X72649454Y-131018719D01*
X72703427Y-130937940D01*
X72822712Y-130818656D01*
X72914814Y-130669334D01*
X72969999Y-130502797D01*
X72980500Y-130400009D01*
X72980499Y-128064006D01*
X72999453Y-127968719D01*
X73053426Y-127887940D01*
X75384610Y-125556756D01*
X75465389Y-125502783D01*
X75560677Y-125483829D01*
X75655965Y-125502783D01*
X75707031Y-125531381D01*
X75818390Y-125612287D01*
X76000781Y-125705220D01*
X76195466Y-125768477D01*
X76266575Y-125779739D01*
X76397638Y-125800499D01*
X76397645Y-125800499D01*
X76397648Y-125800500D01*
X76397651Y-125800500D01*
X76602349Y-125800500D01*
X76602352Y-125800500D01*
X76602355Y-125800499D01*
X76602361Y-125800499D01*
X76697870Y-125785371D01*
X76804534Y-125768477D01*
X76999219Y-125705220D01*
X77181610Y-125612287D01*
X77347219Y-125491966D01*
X77491966Y-125347219D01*
X77491970Y-125347212D01*
X77498314Y-125339786D01*
X77500289Y-125341473D01*
X77558987Y-125287204D01*
X77650134Y-125253569D01*
X77689108Y-125250500D01*
X80000500Y-125250500D01*
X80095788Y-125269454D01*
G37*
G04 #@! TD.AperFunction*
G04 #@! TA.AperFunction,NonConductor*
G36*
X66382424Y-124217928D02*
G01*
X73930064Y-124289810D01*
X74025166Y-124309671D01*
X74105429Y-124364414D01*
X74158634Y-124445706D01*
X74176680Y-124541170D01*
X74156819Y-124636274D01*
X74103761Y-124714869D01*
X71992060Y-126826570D01*
X71911278Y-126880546D01*
X71815990Y-126899500D01*
X69479993Y-126899500D01*
X69377199Y-126910001D01*
X69210667Y-126965185D01*
X69061346Y-127057286D01*
X68937286Y-127181346D01*
X68845184Y-127330668D01*
X68790002Y-127497197D01*
X68790001Y-127497204D01*
X68779500Y-127599988D01*
X68779500Y-130400006D01*
X68790001Y-130502800D01*
X68837482Y-130646086D01*
X68845186Y-130669334D01*
X68895098Y-130750254D01*
X68930642Y-130807882D01*
X68937288Y-130818656D01*
X69056572Y-130937940D01*
X69110546Y-131018719D01*
X69129500Y-131114007D01*
X69129500Y-132994734D01*
X69144968Y-133112219D01*
X69149218Y-133144504D01*
X69149218Y-133144505D01*
X69157468Y-133207174D01*
X69159452Y-133222239D01*
X69214071Y-133426082D01*
X69218842Y-133443887D01*
X69218843Y-133443890D01*
X69306653Y-133655882D01*
X69306658Y-133655893D01*
X69421383Y-133854602D01*
X69421390Y-133854614D01*
X69476605Y-133926570D01*
X69491235Y-133945636D01*
X69561080Y-134036661D01*
X69561083Y-134036664D01*
X70299758Y-134775340D01*
X70353734Y-134856121D01*
X70372688Y-134951409D01*
X70353734Y-135046697D01*
X70299757Y-135127479D01*
X70218976Y-135181455D01*
X70123688Y-135200409D01*
X70104157Y-135199642D01*
X70102352Y-135199500D01*
X69897648Y-135199500D01*
X69897638Y-135199500D01*
X69695468Y-135231522D01*
X69500785Y-135294778D01*
X69500775Y-135294782D01*
X69318392Y-135387711D01*
X69152779Y-135508035D01*
X69008034Y-135652780D01*
X68951445Y-135730669D01*
X68922830Y-135757120D01*
X68896385Y-135785736D01*
X68887383Y-135789887D01*
X68880102Y-135796618D01*
X68843540Y-135810105D01*
X68808160Y-135826422D01*
X68798253Y-135826812D01*
X68788952Y-135830244D01*
X68750020Y-135828714D01*
X68711080Y-135830250D01*
X68701776Y-135826819D01*
X68691872Y-135826430D01*
X68656490Y-135810119D01*
X68619926Y-135796635D01*
X68612644Y-135789905D01*
X68603641Y-135785755D01*
X68548574Y-135730695D01*
X68548074Y-135730007D01*
X68507388Y-135641782D01*
X68500500Y-135583622D01*
X68500500Y-133651459D01*
X68489948Y-133598412D01*
X68485076Y-133573918D01*
X68462052Y-133458165D01*
X68386632Y-133276086D01*
X68277140Y-133112219D01*
X66378915Y-131213994D01*
X66324942Y-131133216D01*
X66305988Y-131037928D01*
X66324942Y-130942640D01*
X66378918Y-130861858D01*
X66459700Y-130807882D01*
X66554988Y-130788928D01*
X66593941Y-130791994D01*
X66647638Y-130800499D01*
X66647645Y-130800499D01*
X66647648Y-130800500D01*
X66647651Y-130800500D01*
X66852349Y-130800500D01*
X66852352Y-130800500D01*
X66852355Y-130800499D01*
X66852361Y-130800499D01*
X66947870Y-130785371D01*
X67054534Y-130768477D01*
X67249219Y-130705220D01*
X67431610Y-130612287D01*
X67597219Y-130491966D01*
X67741966Y-130347219D01*
X67862287Y-130181610D01*
X67955220Y-129999219D01*
X68018477Y-129804534D01*
X68038735Y-129676630D01*
X68050499Y-129602361D01*
X68050499Y-129602355D01*
X68050500Y-129602352D01*
X68050500Y-129397648D01*
X68050499Y-129397645D01*
X68050499Y-129397638D01*
X68018477Y-129195468D01*
X68018477Y-129195466D01*
X67955220Y-129000781D01*
X67928261Y-128947872D01*
X67862288Y-128818392D01*
X67812962Y-128750500D01*
X67741966Y-128652781D01*
X67597219Y-128508034D01*
X67597218Y-128508033D01*
X67589786Y-128501686D01*
X67591466Y-128499717D01*
X67537162Y-128440942D01*
X67503556Y-128349784D01*
X67500500Y-128310891D01*
X67500500Y-126176081D01*
X67500499Y-126176079D01*
X67482704Y-126086621D01*
X67471658Y-126031087D01*
X67415084Y-125894505D01*
X67332951Y-125771584D01*
X67285736Y-125724369D01*
X67228416Y-125667048D01*
X67228416Y-125667049D01*
X66204357Y-124642989D01*
X66150381Y-124562207D01*
X66131427Y-124466919D01*
X66150381Y-124371631D01*
X66204357Y-124290849D01*
X66285139Y-124236873D01*
X66380427Y-124217919D01*
X66382424Y-124217928D01*
G37*
G04 #@! TD.AperFunction*
G04 #@! TA.AperFunction,NonConductor*
G36*
X48562551Y-124177113D02*
G01*
X48652094Y-124214811D01*
X48688632Y-124244974D01*
X49826570Y-125382912D01*
X49880546Y-125463694D01*
X49899500Y-125558982D01*
X49899500Y-126086606D01*
X49899501Y-126086621D01*
X49926597Y-126257697D01*
X49980124Y-126422437D01*
X49980126Y-126422443D01*
X50058770Y-126576792D01*
X50160581Y-126716922D01*
X50160583Y-126716924D01*
X50160586Y-126716928D01*
X50283072Y-126839414D01*
X50283075Y-126839416D01*
X50283077Y-126839418D01*
X50423207Y-126941229D01*
X50423209Y-126941230D01*
X50423212Y-126941232D01*
X50577555Y-127019873D01*
X50742299Y-127073402D01*
X50913389Y-127100500D01*
X56316630Y-127100500D01*
X56411918Y-127119454D01*
X56492700Y-127173430D01*
X56546676Y-127254212D01*
X56565630Y-127349500D01*
X56552992Y-127427821D01*
X56530001Y-127497203D01*
X56530001Y-127497204D01*
X56519500Y-127599988D01*
X56519500Y-129582439D01*
X56500546Y-129677727D01*
X56446571Y-129758506D01*
X55862220Y-130342859D01*
X55862218Y-130342861D01*
X55862217Y-130342860D01*
X55722862Y-130482216D01*
X55722860Y-130482219D01*
X55613369Y-130646084D01*
X55613367Y-130646088D01*
X55583202Y-130718911D01*
X55583203Y-130718912D01*
X55541888Y-130818656D01*
X55537949Y-130828165D01*
X55505103Y-130993295D01*
X55499500Y-131021461D01*
X55499500Y-132670062D01*
X55480546Y-132765350D01*
X55426570Y-132846132D01*
X55345788Y-132900108D01*
X55250500Y-132919062D01*
X55155212Y-132900108D01*
X55074430Y-132846132D01*
X55049056Y-132816422D01*
X54953830Y-132685357D01*
X54953828Y-132685354D01*
X54814646Y-132546172D01*
X54814642Y-132546169D01*
X54655410Y-132430479D01*
X54655407Y-132430477D01*
X54655405Y-132430476D01*
X54480025Y-132341116D01*
X54480024Y-132341115D01*
X54480023Y-132341115D01*
X54480017Y-132341113D01*
X54372928Y-132306318D01*
X54292826Y-132280291D01*
X54292824Y-132280290D01*
X54292822Y-132280290D01*
X54098428Y-132249501D01*
X54098419Y-132249500D01*
X54098417Y-132249500D01*
X53901583Y-132249500D01*
X53901580Y-132249500D01*
X53901571Y-132249501D01*
X53707177Y-132280290D01*
X53519982Y-132341113D01*
X53519976Y-132341115D01*
X53428740Y-132387602D01*
X53344595Y-132430476D01*
X53344592Y-132430477D01*
X53344590Y-132430479D01*
X53344589Y-132430479D01*
X53185357Y-132546169D01*
X53046169Y-132685357D01*
X52930479Y-132844589D01*
X52930479Y-132844590D01*
X52930477Y-132844592D01*
X52930476Y-132844595D01*
X52911229Y-132882370D01*
X52841115Y-133019976D01*
X52841113Y-133019982D01*
X52780290Y-133207177D01*
X52749501Y-133401571D01*
X52749500Y-133401587D01*
X52749500Y-133598412D01*
X52749501Y-133598428D01*
X52774578Y-133756755D01*
X52780291Y-133792826D01*
X52841116Y-133980025D01*
X52930476Y-134155405D01*
X52930479Y-134155409D01*
X52930479Y-134155410D01*
X52987567Y-134233984D01*
X53046172Y-134314646D01*
X53185354Y-134453828D01*
X53344595Y-134569524D01*
X53519975Y-134658884D01*
X53707174Y-134719709D01*
X53901583Y-134750500D01*
X53901587Y-134750500D01*
X54098413Y-134750500D01*
X54098417Y-134750500D01*
X54292826Y-134719709D01*
X54480025Y-134658884D01*
X54655405Y-134569524D01*
X54814646Y-134453828D01*
X54953828Y-134314646D01*
X55049055Y-134183577D01*
X55120399Y-134117629D01*
X55211549Y-134084002D01*
X55308629Y-134087817D01*
X55396859Y-134128492D01*
X55462808Y-134199836D01*
X55496435Y-134290986D01*
X55499500Y-134329937D01*
X55499500Y-138750500D01*
X55480546Y-138845788D01*
X55426570Y-138926570D01*
X55345788Y-138980546D01*
X55250500Y-138999500D01*
X54249499Y-138999500D01*
X54154211Y-138980546D01*
X54073429Y-138926570D01*
X54019453Y-138845788D01*
X54002134Y-138758723D01*
X54000856Y-138758792D01*
X54000499Y-138752148D01*
X54000499Y-138752128D01*
X53994091Y-138692517D01*
X53943796Y-138557669D01*
X53857546Y-138442454D01*
X53742331Y-138356204D01*
X53662117Y-138326286D01*
X53607481Y-138305908D01*
X53547873Y-138299500D01*
X50552134Y-138299500D01*
X50552130Y-138299500D01*
X50552128Y-138299501D01*
X50539314Y-138300878D01*
X50492519Y-138305908D01*
X50492515Y-138305909D01*
X50357670Y-138356203D01*
X50242455Y-138442453D01*
X50242453Y-138442455D01*
X50156204Y-138557669D01*
X50105908Y-138692518D01*
X50099500Y-138752123D01*
X50099500Y-139450500D01*
X50080546Y-139545788D01*
X50026570Y-139626570D01*
X49945788Y-139680546D01*
X49850500Y-139699500D01*
X48288010Y-139699500D01*
X48192722Y-139680546D01*
X48111940Y-139626570D01*
X48057964Y-139545788D01*
X48039010Y-139450500D01*
X48051196Y-139373558D01*
X48066015Y-139327951D01*
X48100500Y-139110222D01*
X48100500Y-138889778D01*
X48066015Y-138672049D01*
X47997895Y-138462394D01*
X47997891Y-138462386D01*
X47997890Y-138462383D01*
X47897820Y-138265986D01*
X47897816Y-138265981D01*
X47897815Y-138265978D01*
X47768242Y-138087635D01*
X47612365Y-137931758D01*
X47434022Y-137802185D01*
X47434019Y-137802183D01*
X47434013Y-137802179D01*
X47237616Y-137702109D01*
X47237609Y-137702106D01*
X47237606Y-137702105D01*
X47027951Y-137633985D01*
X47027945Y-137633984D01*
X47027938Y-137633982D01*
X46810232Y-137599501D01*
X46810225Y-137599500D01*
X46810222Y-137599500D01*
X46589778Y-137599500D01*
X46589775Y-137599500D01*
X46589767Y-137599501D01*
X46372061Y-137633982D01*
X46372054Y-137633984D01*
X46372052Y-137633984D01*
X46372049Y-137633985D01*
X46162394Y-137702105D01*
X46162392Y-137702105D01*
X46162392Y-137702106D01*
X46162383Y-137702109D01*
X45965986Y-137802179D01*
X45965979Y-137802184D01*
X45787633Y-137931759D01*
X45631759Y-138087633D01*
X45502184Y-138265979D01*
X45502179Y-138265986D01*
X45402109Y-138462383D01*
X45402105Y-138462392D01*
X45402105Y-138462394D01*
X45333985Y-138672049D01*
X45333984Y-138672052D01*
X45333984Y-138672054D01*
X45333982Y-138672061D01*
X45299501Y-138889767D01*
X45299500Y-138889782D01*
X45299500Y-139110217D01*
X45299501Y-139110232D01*
X45333982Y-139327938D01*
X45333984Y-139327946D01*
X45333985Y-139327951D01*
X45348803Y-139373557D01*
X45360222Y-139470036D01*
X45333851Y-139563544D01*
X45273703Y-139639841D01*
X45188935Y-139687313D01*
X45111990Y-139699500D01*
X44083246Y-139699500D01*
X44045301Y-139691952D01*
X44006869Y-139687497D01*
X43999132Y-139682768D01*
X43987958Y-139680546D01*
X43921988Y-139640229D01*
X43914311Y-139633704D01*
X43912365Y-139631758D01*
X43909998Y-139630038D01*
X43902776Y-139623900D01*
X43878376Y-139593101D01*
X43851715Y-139564254D01*
X43848398Y-139555261D01*
X43842445Y-139547747D01*
X43831689Y-139509957D01*
X43818096Y-139473101D01*
X43816685Y-139457243D01*
X43815849Y-139454303D01*
X43816174Y-139451494D01*
X43815086Y-139439252D01*
X43814010Y-139386524D01*
X43797623Y-138583592D01*
X43814629Y-138487942D01*
X43866945Y-138406076D01*
X43900218Y-138377067D01*
X43912365Y-138368242D01*
X44068242Y-138212365D01*
X44197815Y-138034022D01*
X44224143Y-137982352D01*
X44297890Y-137837616D01*
X44297890Y-137837615D01*
X44297895Y-137837606D01*
X44366015Y-137627951D01*
X44400500Y-137410222D01*
X44400500Y-137189778D01*
X44366015Y-136972049D01*
X44297895Y-136762394D01*
X44297891Y-136762386D01*
X44297890Y-136762383D01*
X44197820Y-136565986D01*
X44197816Y-136565981D01*
X44197815Y-136565978D01*
X44068242Y-136387635D01*
X44068238Y-136387631D01*
X44068236Y-136387628D01*
X43912367Y-136231760D01*
X43912365Y-136231758D01*
X43868986Y-136200241D01*
X43853141Y-136188729D01*
X43787192Y-136117385D01*
X43753565Y-136026235D01*
X43750500Y-135987284D01*
X43750500Y-135489782D01*
X45299500Y-135489782D01*
X45299500Y-135710217D01*
X45299501Y-135710232D01*
X45333982Y-135927938D01*
X45333984Y-135927945D01*
X45333985Y-135927951D01*
X45402105Y-136137606D01*
X45402106Y-136137607D01*
X45402109Y-136137616D01*
X45502179Y-136334013D01*
X45502183Y-136334019D01*
X45502185Y-136334022D01*
X45631758Y-136512365D01*
X45787635Y-136668242D01*
X45965978Y-136797815D01*
X45965981Y-136797816D01*
X45965986Y-136797820D01*
X46162383Y-136897890D01*
X46162386Y-136897891D01*
X46162394Y-136897895D01*
X46372049Y-136966015D01*
X46372060Y-136966016D01*
X46372061Y-136966017D01*
X46410222Y-136972061D01*
X46589778Y-137000500D01*
X46589782Y-137000500D01*
X46810218Y-137000500D01*
X46810222Y-137000500D01*
X47027951Y-136966015D01*
X47237606Y-136897895D01*
X47420828Y-136804538D01*
X47434013Y-136797820D01*
X47434015Y-136797818D01*
X47434022Y-136797815D01*
X47612365Y-136668242D01*
X47768242Y-136512365D01*
X47897815Y-136334022D01*
X47913419Y-136303399D01*
X47997890Y-136137616D01*
X47997890Y-136137615D01*
X47997895Y-136137606D01*
X48066015Y-135927951D01*
X48100500Y-135710222D01*
X48100500Y-135489778D01*
X48066015Y-135272049D01*
X47997895Y-135062394D01*
X47997891Y-135062386D01*
X47997890Y-135062383D01*
X47897820Y-134865986D01*
X47897816Y-134865981D01*
X47897815Y-134865978D01*
X47768242Y-134687635D01*
X47612365Y-134531758D01*
X47434022Y-134402185D01*
X47434019Y-134402183D01*
X47434013Y-134402179D01*
X47237616Y-134302109D01*
X47237609Y-134302106D01*
X47237606Y-134302105D01*
X47027951Y-134233985D01*
X47027945Y-134233984D01*
X47027938Y-134233982D01*
X46810232Y-134199501D01*
X46810225Y-134199500D01*
X46810222Y-134199500D01*
X46589778Y-134199500D01*
X46589775Y-134199500D01*
X46589767Y-134199501D01*
X46372061Y-134233982D01*
X46372054Y-134233984D01*
X46372052Y-134233984D01*
X46372049Y-134233985D01*
X46162394Y-134302105D01*
X46162392Y-134302105D01*
X46162392Y-134302106D01*
X46162383Y-134302109D01*
X45965986Y-134402179D01*
X45965979Y-134402184D01*
X45787633Y-134531759D01*
X45631759Y-134687633D01*
X45502184Y-134865979D01*
X45502179Y-134865986D01*
X45402109Y-135062383D01*
X45402105Y-135062392D01*
X45402105Y-135062394D01*
X45333985Y-135272049D01*
X45333984Y-135272052D01*
X45333984Y-135272054D01*
X45333982Y-135272061D01*
X45299501Y-135489767D01*
X45299500Y-135489782D01*
X43750500Y-135489782D01*
X43750500Y-133426080D01*
X43750499Y-133426079D01*
X43746274Y-133404837D01*
X43746273Y-133404836D01*
X43744763Y-133397241D01*
X43721659Y-133281088D01*
X43699276Y-133227052D01*
X43694998Y-133210868D01*
X43693288Y-133183366D01*
X43686781Y-133152312D01*
X43685963Y-133112222D01*
X43648952Y-131298683D01*
X43665957Y-131203036D01*
X43718273Y-131121170D01*
X43797937Y-131065556D01*
X43833441Y-131053098D01*
X44056632Y-130993295D01*
X44311021Y-130887923D01*
X44549479Y-130750249D01*
X44767928Y-130582628D01*
X44962628Y-130387928D01*
X45130249Y-130169479D01*
X45146995Y-130140475D01*
X45215636Y-130021584D01*
X45267923Y-129931021D01*
X45373295Y-129676632D01*
X45444560Y-129410666D01*
X45480500Y-129137674D01*
X45480500Y-128862326D01*
X45444560Y-128589334D01*
X45373295Y-128323368D01*
X45267923Y-128068979D01*
X45265052Y-128064007D01*
X45130254Y-127830530D01*
X45130249Y-127830521D01*
X44962628Y-127612072D01*
X44767928Y-127417372D01*
X44565392Y-127261961D01*
X44539373Y-127232293D01*
X44511221Y-127204653D01*
X44507541Y-127195995D01*
X44501338Y-127188922D01*
X44488652Y-127151551D01*
X44473219Y-127115239D01*
X44473132Y-127105833D01*
X44470108Y-127096923D01*
X44472689Y-127057539D01*
X44472327Y-127018088D01*
X44475846Y-127009365D01*
X44476462Y-126999976D01*
X44508679Y-126927995D01*
X44735769Y-126581280D01*
X44747314Y-126565104D01*
X45029438Y-126201519D01*
X45042248Y-126186308D01*
X45352520Y-125846462D01*
X45366503Y-125832325D01*
X45702973Y-125518354D01*
X45718040Y-125505384D01*
X45992988Y-125287204D01*
X46078501Y-125219347D01*
X46094571Y-125207609D01*
X46476779Y-124951285D01*
X46493714Y-124940886D01*
X46895194Y-124715940D01*
X46912905Y-124706928D01*
X47331064Y-124514809D01*
X47349467Y-124507231D01*
X47781632Y-124349165D01*
X47800586Y-124343080D01*
X48244023Y-124220067D01*
X48263394Y-124215520D01*
X48465399Y-124176552D01*
X48562551Y-124177113D01*
G37*
G04 #@! TD.AperFunction*
G04 #@! TA.AperFunction,NonConductor*
G36*
X45145788Y-141719454D02*
G01*
X45226570Y-141773430D01*
X45280546Y-141854212D01*
X45299500Y-141949500D01*
X45299500Y-143347865D01*
X45299500Y-143347868D01*
X45299501Y-143347872D01*
X45299779Y-143350460D01*
X45305908Y-143407480D01*
X45305909Y-143407484D01*
X45340707Y-143500781D01*
X45356204Y-143542331D01*
X45442454Y-143657546D01*
X45557669Y-143743796D01*
X45557677Y-143743799D01*
X45569826Y-143750433D01*
X45644376Y-143812733D01*
X45689411Y-143898820D01*
X45699500Y-143968979D01*
X45699500Y-146163864D01*
X45697743Y-146172692D01*
X45698866Y-146181627D01*
X45688321Y-146220063D01*
X45680546Y-146259152D01*
X45675543Y-146266638D01*
X45673162Y-146275320D01*
X45648716Y-146306789D01*
X45626570Y-146339934D01*
X45619082Y-146344936D01*
X45613561Y-146352045D01*
X45578929Y-146371766D01*
X45545788Y-146393910D01*
X45536958Y-146395666D01*
X45529134Y-146400122D01*
X45489583Y-146405089D01*
X45450500Y-146412864D01*
X45441671Y-146411107D01*
X45432737Y-146412230D01*
X45394300Y-146401685D01*
X45355212Y-146393910D01*
X45347725Y-146388907D01*
X45339044Y-146386526D01*
X45307574Y-146362080D01*
X45274430Y-146339934D01*
X45262319Y-146326925D01*
X45194481Y-146248636D01*
X45181816Y-146232755D01*
X44904515Y-145854343D01*
X44893187Y-145837482D01*
X44744900Y-145596055D01*
X44647658Y-145437734D01*
X44637745Y-145420012D01*
X44626405Y-145397644D01*
X44425618Y-145001585D01*
X44417180Y-144983108D01*
X44239857Y-144548767D01*
X44232952Y-144529663D01*
X44223332Y-144499214D01*
X44091626Y-144082323D01*
X44086304Y-144062727D01*
X44056801Y-143933469D01*
X43981906Y-143605341D01*
X43978200Y-143585379D01*
X43975902Y-143569395D01*
X43911433Y-143121021D01*
X43909367Y-143100842D01*
X43880358Y-142627480D01*
X43879945Y-142617333D01*
X43875209Y-142385266D01*
X43866419Y-141954578D01*
X43883425Y-141858926D01*
X43935741Y-141777060D01*
X44015405Y-141721446D01*
X44110286Y-141700552D01*
X44115367Y-141700500D01*
X45050500Y-141700500D01*
X45145788Y-141719454D01*
G37*
G04 #@! TD.AperFunction*
G04 #@! TA.AperFunction,NonConductor*
G36*
X63220287Y-130912013D02*
G01*
X63301069Y-130965989D01*
X66426570Y-134091490D01*
X66480546Y-134172272D01*
X66499500Y-134267560D01*
X66499500Y-135583622D01*
X66480546Y-135678910D01*
X66451946Y-135729979D01*
X66387714Y-135818388D01*
X66387712Y-135818390D01*
X66294782Y-136000775D01*
X66294778Y-136000785D01*
X66231524Y-136195462D01*
X66231521Y-136195474D01*
X66214427Y-136303399D01*
X66180800Y-136394549D01*
X66144563Y-136440515D01*
X64125597Y-138459481D01*
X64044815Y-138513457D01*
X63949527Y-138532411D01*
X63854239Y-138513457D01*
X63773457Y-138459481D01*
X63766223Y-138451132D01*
X63757548Y-138442457D01*
X63757546Y-138442454D01*
X63642331Y-138356204D01*
X63562117Y-138326286D01*
X63507481Y-138305908D01*
X63447873Y-138299500D01*
X60452134Y-138299500D01*
X60452130Y-138299500D01*
X60452128Y-138299501D01*
X60439314Y-138300878D01*
X60392519Y-138305908D01*
X60392515Y-138305909D01*
X60257670Y-138356203D01*
X60142455Y-138442453D01*
X60142453Y-138442455D01*
X60056204Y-138557669D01*
X60005908Y-138692518D01*
X59999500Y-138752123D01*
X59999500Y-144247865D01*
X59999500Y-144247868D01*
X59999501Y-144247872D01*
X60001567Y-144267093D01*
X60005908Y-144307480D01*
X60005909Y-144307484D01*
X60029629Y-144371080D01*
X60056204Y-144442331D01*
X60142454Y-144557546D01*
X60257669Y-144643796D01*
X60392517Y-144694091D01*
X60452127Y-144700500D01*
X63447872Y-144700499D01*
X63507483Y-144694091D01*
X63642331Y-144643796D01*
X63757546Y-144557546D01*
X63843796Y-144442331D01*
X63894091Y-144307483D01*
X63900500Y-144247873D01*
X63900499Y-141617558D01*
X63919453Y-141522271D01*
X63973426Y-141441492D01*
X67559486Y-137855432D01*
X67640265Y-137801459D01*
X67696594Y-137785572D01*
X67804534Y-137768477D01*
X67999219Y-137705220D01*
X68181610Y-137612287D01*
X68347219Y-137491966D01*
X68491966Y-137347219D01*
X68548557Y-137269326D01*
X68619896Y-137203382D01*
X68711045Y-137169754D01*
X68808126Y-137173567D01*
X68896357Y-137214241D01*
X68951441Y-137269325D01*
X69008034Y-137347219D01*
X69152781Y-137491966D01*
X69318390Y-137612287D01*
X69500781Y-137705220D01*
X69695466Y-137768477D01*
X69766575Y-137779739D01*
X69897638Y-137800499D01*
X69897645Y-137800499D01*
X69897648Y-137800500D01*
X69897651Y-137800500D01*
X70102349Y-137800500D01*
X70102352Y-137800500D01*
X70102355Y-137800499D01*
X70102361Y-137800499D01*
X70197870Y-137785371D01*
X70304534Y-137768477D01*
X70499219Y-137705220D01*
X70681610Y-137612287D01*
X70847219Y-137491966D01*
X70991966Y-137347219D01*
X71112287Y-137181610D01*
X71205220Y-136999219D01*
X71268477Y-136804534D01*
X71268478Y-136804529D01*
X71300499Y-136602361D01*
X71300500Y-136602349D01*
X71300500Y-136397652D01*
X71300359Y-136395862D01*
X71300500Y-136394670D01*
X71300500Y-136387865D01*
X71301305Y-136387865D01*
X71311772Y-136299380D01*
X71359239Y-136214610D01*
X71435533Y-136154457D01*
X71529039Y-136128080D01*
X71625521Y-136139493D01*
X71710291Y-136186960D01*
X71724659Y-136200241D01*
X71926569Y-136402150D01*
X71980546Y-136482931D01*
X71999500Y-136578219D01*
X71999500Y-139071448D01*
X72014804Y-139285429D01*
X72036796Y-139386524D01*
X72038530Y-139483664D01*
X72002958Y-139574072D01*
X71969556Y-139615522D01*
X69362220Y-142222859D01*
X69362218Y-142222861D01*
X69362217Y-142222860D01*
X69222862Y-142362216D01*
X69222860Y-142362219D01*
X69113369Y-142526083D01*
X69113368Y-142526086D01*
X69076649Y-142614734D01*
X69071370Y-142627480D01*
X69038681Y-142706398D01*
X69038674Y-142706415D01*
X69037948Y-142708166D01*
X69037947Y-142708169D01*
X68999500Y-142901454D01*
X68999500Y-143083622D01*
X68980546Y-143178910D01*
X68951946Y-143229979D01*
X68887714Y-143318388D01*
X68887712Y-143318390D01*
X68794782Y-143500775D01*
X68794778Y-143500785D01*
X68731524Y-143695462D01*
X68731521Y-143695474D01*
X68714427Y-143803398D01*
X68680799Y-143894548D01*
X68644563Y-143940513D01*
X68213998Y-144371079D01*
X68133216Y-144425056D01*
X68037928Y-144444010D01*
X67942640Y-144425056D01*
X67861859Y-144371080D01*
X67807882Y-144290298D01*
X67788928Y-144195010D01*
X67791994Y-144156056D01*
X67800499Y-144102358D01*
X67800500Y-144102349D01*
X67800500Y-143897650D01*
X67800499Y-143897638D01*
X67776132Y-143743796D01*
X67768477Y-143695466D01*
X67705220Y-143500781D01*
X67612287Y-143318390D01*
X67491966Y-143152781D01*
X67347219Y-143008034D01*
X67181610Y-142887713D01*
X67181609Y-142887712D01*
X67181607Y-142887711D01*
X66999224Y-142794782D01*
X66999214Y-142794778D01*
X66804531Y-142731522D01*
X66602361Y-142699500D01*
X66602352Y-142699500D01*
X66397648Y-142699500D01*
X66397638Y-142699500D01*
X66195468Y-142731522D01*
X66000785Y-142794778D01*
X66000775Y-142794782D01*
X65818392Y-142887711D01*
X65652779Y-143008035D01*
X65508035Y-143152779D01*
X65387711Y-143318392D01*
X65294782Y-143500775D01*
X65294778Y-143500785D01*
X65231522Y-143695468D01*
X65199500Y-143897638D01*
X65199500Y-144102361D01*
X65231522Y-144304531D01*
X65294778Y-144499214D01*
X65294782Y-144499224D01*
X65387711Y-144681607D01*
X65387713Y-144681610D01*
X65508034Y-144847219D01*
X65652781Y-144991966D01*
X65818390Y-145112287D01*
X66000781Y-145205220D01*
X66195466Y-145268477D01*
X66266575Y-145279739D01*
X66397638Y-145300499D01*
X66397645Y-145300499D01*
X66397648Y-145300500D01*
X66397651Y-145300500D01*
X66602349Y-145300500D01*
X66602352Y-145300500D01*
X66602356Y-145300499D01*
X66602360Y-145300499D01*
X66656058Y-145291994D01*
X66753138Y-145295808D01*
X66841368Y-145336482D01*
X66907318Y-145407825D01*
X66940945Y-145498975D01*
X66937131Y-145596055D01*
X66896457Y-145684285D01*
X66871081Y-145713998D01*
X65658510Y-146926570D01*
X65577728Y-146980546D01*
X65482440Y-146999500D01*
X50436645Y-146999500D01*
X50341357Y-146980546D01*
X50260575Y-146926570D01*
X50206599Y-146845788D01*
X50187645Y-146750500D01*
X50206599Y-146655212D01*
X50214778Y-146637468D01*
X50285220Y-146499219D01*
X50348477Y-146304534D01*
X50380500Y-146102352D01*
X50380500Y-145897648D01*
X50380499Y-145897645D01*
X50380499Y-145897638D01*
X50348477Y-145695468D01*
X50348477Y-145695466D01*
X50285220Y-145500781D01*
X50192287Y-145318390D01*
X50071966Y-145152781D01*
X49927219Y-145008034D01*
X49761610Y-144887713D01*
X49761609Y-144887712D01*
X49761607Y-144887711D01*
X49579224Y-144794782D01*
X49579214Y-144794778D01*
X49384531Y-144731522D01*
X49182361Y-144699500D01*
X49182352Y-144699500D01*
X48977648Y-144699500D01*
X48977638Y-144699500D01*
X48775468Y-144731522D01*
X48580785Y-144794778D01*
X48580775Y-144794782D01*
X48398392Y-144887711D01*
X48232779Y-145008035D01*
X48125570Y-145115245D01*
X48044788Y-145169221D01*
X47949500Y-145188175D01*
X47854212Y-145169221D01*
X47773430Y-145115245D01*
X47719454Y-145034463D01*
X47700500Y-144939175D01*
X47700500Y-143968979D01*
X47719454Y-143873691D01*
X47773430Y-143792909D01*
X47830174Y-143750433D01*
X47842319Y-143743800D01*
X47842331Y-143743796D01*
X47957546Y-143657546D01*
X48043796Y-143542331D01*
X48094091Y-143407483D01*
X48100500Y-143347873D01*
X48100499Y-141949499D01*
X48119453Y-141854212D01*
X48173429Y-141773431D01*
X48254211Y-141719454D01*
X48349499Y-141700500D01*
X49850501Y-141700500D01*
X49945789Y-141719454D01*
X50026571Y-141773430D01*
X50080547Y-141854212D01*
X50099501Y-141949500D01*
X50099501Y-144247872D01*
X50101567Y-144267093D01*
X50105908Y-144307480D01*
X50105909Y-144307484D01*
X50129629Y-144371080D01*
X50156204Y-144442331D01*
X50242454Y-144557546D01*
X50357669Y-144643796D01*
X50492517Y-144694091D01*
X50552127Y-144700500D01*
X53547872Y-144700499D01*
X53607483Y-144694091D01*
X53742331Y-144643796D01*
X53857546Y-144557546D01*
X53943796Y-144442331D01*
X53994091Y-144307483D01*
X54000500Y-144247873D01*
X54000499Y-141249499D01*
X54019453Y-141154212D01*
X54073429Y-141073430D01*
X54154211Y-141019454D01*
X54249499Y-141000500D01*
X56598541Y-141000500D01*
X56791835Y-140962051D01*
X56973914Y-140886632D01*
X57137782Y-140777139D01*
X57277139Y-140637782D01*
X57386632Y-140473914D01*
X57462051Y-140291835D01*
X57500500Y-140098541D01*
X57500500Y-134329937D01*
X57519454Y-134234649D01*
X57573430Y-134153867D01*
X57654212Y-134099891D01*
X57749500Y-134080937D01*
X57844788Y-134099891D01*
X57925570Y-134153867D01*
X57950944Y-134183577D01*
X58046172Y-134314646D01*
X58185354Y-134453828D01*
X58344595Y-134569524D01*
X58519975Y-134658884D01*
X58707174Y-134719709D01*
X58901583Y-134750500D01*
X58901587Y-134750500D01*
X59098413Y-134750500D01*
X59098417Y-134750500D01*
X59292826Y-134719709D01*
X59480025Y-134658884D01*
X59655405Y-134569524D01*
X59814646Y-134453828D01*
X59953828Y-134314646D01*
X60069524Y-134155405D01*
X60158884Y-133980025D01*
X60219709Y-133792826D01*
X60225422Y-133756751D01*
X60259046Y-133665605D01*
X60295282Y-133619636D01*
X62948934Y-130965985D01*
X63029711Y-130912013D01*
X63124999Y-130893059D01*
X63220287Y-130912013D01*
G37*
G04 #@! TD.AperFunction*
G04 #@! TA.AperFunction,NonConductor*
G36*
X68845788Y-146786513D02*
G01*
X68926570Y-146840489D01*
X68980546Y-146921271D01*
X68999500Y-147016559D01*
X68999500Y-148098543D01*
X69007922Y-148140881D01*
X69012133Y-148162051D01*
X69020164Y-148202424D01*
X69020163Y-148299579D01*
X68982983Y-148389338D01*
X68914284Y-148458037D01*
X68824524Y-148495216D01*
X68775948Y-148500000D01*
X67516059Y-148500000D01*
X67420771Y-148481046D01*
X67339989Y-148427070D01*
X67286013Y-148346288D01*
X67267059Y-148251000D01*
X67286013Y-148155712D01*
X67339989Y-148074930D01*
X67837191Y-147577728D01*
X68574432Y-146840487D01*
X68655212Y-146786513D01*
X68750500Y-146767559D01*
X68845788Y-146786513D01*
G37*
G04 #@! TD.AperFunction*
G04 #@! TA.AperFunction,NonConductor*
G36*
X90672662Y-124479515D02*
G01*
X91065536Y-124531761D01*
X91066326Y-124531866D01*
X91086383Y-124535373D01*
X91545890Y-124635236D01*
X91565563Y-124640362D01*
X92015423Y-124777447D01*
X92034596Y-124784159D01*
X92471710Y-124957522D01*
X92490307Y-124965793D01*
X92911803Y-125174293D01*
X92929667Y-125184058D01*
X93332697Y-125426281D01*
X93349705Y-125437474D01*
X93731609Y-125711824D01*
X93747645Y-125724369D01*
X93947707Y-125894507D01*
X94105851Y-126028996D01*
X94120805Y-126042805D01*
X94452945Y-126375697D01*
X94466709Y-126390670D01*
X94513368Y-126445788D01*
X94770533Y-126749577D01*
X94783039Y-126765638D01*
X94793529Y-126780310D01*
X94833531Y-126868848D01*
X94836606Y-126965955D01*
X94833302Y-126982388D01*
X94830909Y-126992514D01*
X94824500Y-127052123D01*
X94824500Y-128947865D01*
X94824501Y-128947869D01*
X94830908Y-129007480D01*
X94830909Y-129007484D01*
X94879467Y-129137674D01*
X94881204Y-129142331D01*
X94967454Y-129257546D01*
X95082669Y-129343796D01*
X95217517Y-129394091D01*
X95252117Y-129397811D01*
X95344833Y-129426842D01*
X95419382Y-129489144D01*
X95464414Y-129575233D01*
X95474500Y-129645384D01*
X95474500Y-134107521D01*
X95455546Y-134202809D01*
X95401570Y-134283591D01*
X95320788Y-134337567D01*
X95225500Y-134356521D01*
X95130212Y-134337567D01*
X95090885Y-134316996D01*
X95084322Y-134312778D01*
X95064783Y-134302109D01*
X95001512Y-134267560D01*
X94833158Y-134175631D01*
X94650546Y-134107521D01*
X94565046Y-134075631D01*
X94565047Y-134075631D01*
X94285429Y-134014804D01*
X94071448Y-133999500D01*
X90928552Y-133999500D01*
X90928551Y-133999500D01*
X90714570Y-134014804D01*
X90434954Y-134075631D01*
X90166841Y-134175631D01*
X89915682Y-134312775D01*
X89751951Y-134435343D01*
X89686605Y-134484261D01*
X89484261Y-134686605D01*
X89483490Y-134687635D01*
X89312775Y-134915682D01*
X89175631Y-135166841D01*
X89075631Y-135434954D01*
X89014804Y-135714570D01*
X88999500Y-135928551D01*
X88999500Y-138421779D01*
X88980546Y-138517067D01*
X88926570Y-138597849D01*
X86181083Y-141343335D01*
X86181080Y-141343339D01*
X86111497Y-141434022D01*
X86041389Y-141525387D01*
X86041383Y-141525397D01*
X85926658Y-141724106D01*
X85926653Y-141724117D01*
X85838841Y-141936114D01*
X85784806Y-142137782D01*
X85784804Y-142137790D01*
X85779452Y-142157761D01*
X85749500Y-142385266D01*
X85749500Y-144018196D01*
X85741016Y-144082640D01*
X85735733Y-144102358D01*
X85701124Y-144231523D01*
X85699452Y-144237762D01*
X85690273Y-144307481D01*
X85669500Y-144465266D01*
X85669500Y-148137822D01*
X85656861Y-148216144D01*
X85630002Y-148297197D01*
X85630001Y-148297204D01*
X85619500Y-148399988D01*
X85619500Y-150600006D01*
X85630001Y-150702800D01*
X85685185Y-150869331D01*
X85685186Y-150869334D01*
X85777288Y-151018656D01*
X85901344Y-151142712D01*
X86050666Y-151234814D01*
X86050669Y-151234815D01*
X86050667Y-151234815D01*
X86213274Y-151288697D01*
X86217203Y-151289999D01*
X86319991Y-151300500D01*
X88520008Y-151300499D01*
X88622797Y-151289999D01*
X88789334Y-151234814D01*
X88938656Y-151142712D01*
X89062712Y-151018656D01*
X89154814Y-150869334D01*
X89209999Y-150702797D01*
X89220500Y-150600009D01*
X89220499Y-148399992D01*
X89209999Y-148297203D01*
X89183138Y-148216144D01*
X89170500Y-148137822D01*
X89170500Y-145061804D01*
X89176566Y-145007175D01*
X89177674Y-145002245D01*
X89208653Y-144886632D01*
X89220548Y-144842239D01*
X89228814Y-144779452D01*
X89250500Y-144614734D01*
X89250500Y-143328221D01*
X89269454Y-143232933D01*
X89323430Y-143152151D01*
X91402151Y-141073430D01*
X91482933Y-141019454D01*
X91578221Y-141000500D01*
X94071443Y-141000500D01*
X94071448Y-141000500D01*
X94285428Y-140985196D01*
X94565046Y-140924369D01*
X94833161Y-140824367D01*
X95084315Y-140687226D01*
X95313395Y-140515739D01*
X95515739Y-140313395D01*
X95666060Y-140112588D01*
X95738336Y-140047668D01*
X95829956Y-140015345D01*
X95926972Y-140020546D01*
X96014613Y-140062476D01*
X96079536Y-140134754D01*
X96111859Y-140226374D01*
X96114386Y-140260004D01*
X96125666Y-141814078D01*
X96107405Y-141909501D01*
X96054016Y-141990672D01*
X96052743Y-141991954D01*
X94475305Y-143569393D01*
X94475304Y-143569395D01*
X94401380Y-143680030D01*
X94401377Y-143680035D01*
X94350460Y-143802960D01*
X94350459Y-143802963D01*
X94350459Y-143802964D01*
X94333817Y-143886631D01*
X94324500Y-143933469D01*
X94324500Y-148186560D01*
X94305546Y-148281848D01*
X94251570Y-148362630D01*
X94170788Y-148416606D01*
X94075500Y-148435560D01*
X93980212Y-148416606D01*
X93899430Y-148362630D01*
X93877956Y-148338143D01*
X93856594Y-148310303D01*
X93689702Y-148143411D01*
X93689699Y-148143408D01*
X93502450Y-147999727D01*
X93502440Y-147999721D01*
X93298054Y-147881718D01*
X93298043Y-147881713D01*
X93177222Y-147831667D01*
X93079993Y-147791394D01*
X92852014Y-147730307D01*
X92852007Y-147730306D01*
X92618011Y-147699500D01*
X92381989Y-147699500D01*
X92147992Y-147730306D01*
X92147990Y-147730306D01*
X92147986Y-147730307D01*
X91975640Y-147776487D01*
X91920010Y-147791393D01*
X91920007Y-147791394D01*
X91701956Y-147881713D01*
X91701945Y-147881718D01*
X91497559Y-147999721D01*
X91497549Y-147999727D01*
X91310301Y-148143408D01*
X91310297Y-148143411D01*
X91143411Y-148310297D01*
X91143408Y-148310301D01*
X90999727Y-148497549D01*
X90999721Y-148497559D01*
X90881718Y-148701945D01*
X90881713Y-148701956D01*
X90844228Y-148792454D01*
X90791394Y-148920007D01*
X90730307Y-149147986D01*
X90730306Y-149147990D01*
X90730306Y-149147992D01*
X90711238Y-149292828D01*
X90699500Y-149381989D01*
X90699500Y-149618011D01*
X90730307Y-149852014D01*
X90791394Y-150079993D01*
X90824072Y-150158884D01*
X90881713Y-150298043D01*
X90881718Y-150298054D01*
X90976171Y-150461650D01*
X90999727Y-150502450D01*
X91143408Y-150689699D01*
X91310301Y-150856592D01*
X91497550Y-151000273D01*
X91497559Y-151000278D01*
X91701945Y-151118281D01*
X91701948Y-151118282D01*
X91701951Y-151118284D01*
X91920007Y-151208606D01*
X92147986Y-151269693D01*
X92381989Y-151300500D01*
X92618011Y-151300500D01*
X92852014Y-151269693D01*
X93079993Y-151208606D01*
X93298049Y-151118284D01*
X93502450Y-151000273D01*
X93689699Y-150856592D01*
X93856592Y-150689699D01*
X93877955Y-150661858D01*
X93950998Y-150597800D01*
X94042997Y-150566570D01*
X94139944Y-150572923D01*
X94227080Y-150615893D01*
X94291139Y-150688937D01*
X94322369Y-150780936D01*
X94324500Y-150813439D01*
X94324500Y-153117059D01*
X94305546Y-153212347D01*
X94251570Y-153293129D01*
X92793129Y-154751570D01*
X92712347Y-154805546D01*
X92617059Y-154824500D01*
X72388853Y-154824500D01*
X72293565Y-154805546D01*
X72212783Y-154751570D01*
X72158807Y-154670788D01*
X72139853Y-154575500D01*
X72156924Y-154489675D01*
X72155861Y-154489330D01*
X72158779Y-154480348D01*
X72158806Y-154480214D01*
X72158879Y-154480033D01*
X72158884Y-154480025D01*
X72219709Y-154292826D01*
X72250500Y-154098417D01*
X72250500Y-153901583D01*
X72219709Y-153707174D01*
X72158884Y-153519975D01*
X72069524Y-153344595D01*
X71953828Y-153185354D01*
X71814646Y-153046172D01*
X71736935Y-152989711D01*
X71655410Y-152930479D01*
X71655407Y-152930477D01*
X71655405Y-152930476D01*
X71480025Y-152841116D01*
X71480024Y-152841115D01*
X71480023Y-152841115D01*
X71480017Y-152841113D01*
X71324572Y-152790606D01*
X71292826Y-152780291D01*
X71292824Y-152780290D01*
X71292822Y-152780290D01*
X71098428Y-152749501D01*
X71098419Y-152749500D01*
X71098417Y-152749500D01*
X70901583Y-152749500D01*
X70901580Y-152749500D01*
X70901571Y-152749501D01*
X70707177Y-152780290D01*
X70519982Y-152841113D01*
X70519976Y-152841115D01*
X70447171Y-152878211D01*
X70344595Y-152930476D01*
X70344592Y-152930477D01*
X70344590Y-152930479D01*
X70344589Y-152930479D01*
X70185357Y-153046169D01*
X70046169Y-153185357D01*
X69930479Y-153344589D01*
X69930479Y-153344590D01*
X69841115Y-153519976D01*
X69841113Y-153519981D01*
X69836309Y-153534768D01*
X69788836Y-153619534D01*
X69753791Y-153647160D01*
X69712541Y-153679679D01*
X69712538Y-153679679D01*
X69712537Y-153679681D01*
X69619030Y-153706052D01*
X69547951Y-153697638D01*
X69522552Y-153694632D01*
X69522550Y-153694631D01*
X69522548Y-153694631D01*
X69455164Y-153656893D01*
X69437785Y-153647160D01*
X69437784Y-153647159D01*
X69437782Y-153647158D01*
X69377637Y-153570863D01*
X69308514Y-153435202D01*
X69297920Y-153411411D01*
X69175972Y-153093725D01*
X69167924Y-153068953D01*
X69130820Y-152930479D01*
X69079857Y-152740282D01*
X69074443Y-152714812D01*
X69021214Y-152378740D01*
X69018490Y-152352823D01*
X69000341Y-152006506D01*
X69000000Y-151993475D01*
X69000000Y-149016060D01*
X69018954Y-148920772D01*
X69072930Y-148839990D01*
X69153712Y-148786014D01*
X69249000Y-148767060D01*
X69344288Y-148786014D01*
X69425070Y-148839990D01*
X69704713Y-149119633D01*
X69758689Y-149200415D01*
X69774578Y-149256752D01*
X69780291Y-149292828D01*
X69841113Y-149480017D01*
X69841116Y-149480025D01*
X69930476Y-149655405D01*
X69930479Y-149655409D01*
X69930479Y-149655410D01*
X69951075Y-149683757D01*
X70046172Y-149814646D01*
X70185354Y-149953828D01*
X70344595Y-150069524D01*
X70519975Y-150158884D01*
X70707174Y-150219709D01*
X70901583Y-150250500D01*
X70901587Y-150250500D01*
X71098413Y-150250500D01*
X71098417Y-150250500D01*
X71292826Y-150219709D01*
X71480025Y-150158884D01*
X71655405Y-150069524D01*
X71814646Y-149953828D01*
X71953828Y-149814646D01*
X72069524Y-149655405D01*
X72158884Y-149480025D01*
X72219709Y-149292826D01*
X72250500Y-149098417D01*
X72250500Y-148901583D01*
X72219709Y-148707174D01*
X72158884Y-148519975D01*
X72069524Y-148344595D01*
X72064836Y-148338143D01*
X71953830Y-148185357D01*
X71953828Y-148185354D01*
X71814646Y-148046172D01*
X71814642Y-148046169D01*
X71655410Y-147930479D01*
X71655407Y-147930477D01*
X71655405Y-147930476D01*
X71480025Y-147841116D01*
X71480024Y-147841115D01*
X71480023Y-147841115D01*
X71480017Y-147841113D01*
X71326994Y-147791393D01*
X71292826Y-147780291D01*
X71284844Y-147779026D01*
X71256746Y-147774576D01*
X71229203Y-147764414D01*
X71200414Y-147758688D01*
X71184056Y-147747758D01*
X71165597Y-147740948D01*
X71119632Y-147704712D01*
X71088834Y-147673914D01*
X71073428Y-147658508D01*
X71019454Y-147577728D01*
X71000500Y-147482440D01*
X71000500Y-144916376D01*
X71019454Y-144821088D01*
X71048056Y-144770016D01*
X71049305Y-144768298D01*
X71112287Y-144681610D01*
X71205220Y-144499219D01*
X71268477Y-144304534D01*
X71300500Y-144102352D01*
X71300500Y-143897648D01*
X71300499Y-143897645D01*
X71300499Y-143897638D01*
X71276132Y-143743796D01*
X71268477Y-143695466D01*
X71205220Y-143500781D01*
X71189100Y-143469144D01*
X71162727Y-143375641D01*
X71174144Y-143279159D01*
X71221614Y-143194391D01*
X71234876Y-143180042D01*
X73384478Y-141030440D01*
X73465257Y-140976467D01*
X73560545Y-140957513D01*
X73613470Y-140963202D01*
X73714572Y-140985196D01*
X73928552Y-141000500D01*
X73928557Y-141000500D01*
X77071443Y-141000500D01*
X77071448Y-141000500D01*
X77285428Y-140985196D01*
X77565046Y-140924369D01*
X77833161Y-140824367D01*
X78084315Y-140687226D01*
X78313395Y-140515739D01*
X78515739Y-140313395D01*
X78687226Y-140084315D01*
X78824367Y-139833161D01*
X78924369Y-139565046D01*
X78985196Y-139285428D01*
X79000500Y-139071448D01*
X79000500Y-136578219D01*
X79019454Y-136482931D01*
X79073427Y-136402152D01*
X83318919Y-132156661D01*
X83346666Y-132120500D01*
X83458611Y-131974612D01*
X83573344Y-131775888D01*
X83661158Y-131563887D01*
X83699340Y-131421390D01*
X83720548Y-131342239D01*
X83724031Y-131315777D01*
X83724033Y-131315771D01*
X83724032Y-131315771D01*
X83750500Y-131114733D01*
X83750500Y-130020198D01*
X83757143Y-129986799D01*
X83759782Y-129952844D01*
X83766543Y-129939541D01*
X83769454Y-129924910D01*
X83788372Y-129896595D01*
X83803805Y-129866235D01*
X83815140Y-129856534D01*
X83823430Y-129844128D01*
X83851746Y-129825207D01*
X83877620Y-129803066D01*
X83891805Y-129798441D01*
X83904212Y-129790152D01*
X83937614Y-129783507D01*
X83969991Y-129772953D01*
X83984865Y-129774108D01*
X83999500Y-129771198D01*
X84032898Y-129777841D01*
X84066854Y-129780480D01*
X84080156Y-129787241D01*
X84094788Y-129790152D01*
X84123102Y-129809070D01*
X84153463Y-129824503D01*
X84160912Y-129834334D01*
X84175570Y-129844128D01*
X84216632Y-129898318D01*
X84223877Y-129911226D01*
X84232077Y-129931021D01*
X84336907Y-130112592D01*
X84337632Y-130113883D01*
X84352219Y-130158629D01*
X84367370Y-130203261D01*
X84367521Y-130205567D01*
X84367745Y-130206254D01*
X84367647Y-130207502D01*
X84369500Y-130235763D01*
X84369500Y-135551779D01*
X84350546Y-135647067D01*
X84296570Y-135727849D01*
X74681073Y-145343346D01*
X74639411Y-145397644D01*
X74639408Y-145397648D01*
X74608649Y-145437734D01*
X74541390Y-145525385D01*
X74541383Y-145525397D01*
X74426658Y-145724106D01*
X74426653Y-145724117D01*
X74338841Y-145936114D01*
X74279451Y-146157765D01*
X74249500Y-146385266D01*
X74249500Y-148137822D01*
X74236861Y-148216144D01*
X74210002Y-148297197D01*
X74210001Y-148297204D01*
X74199500Y-148399988D01*
X74199500Y-150600006D01*
X74210001Y-150702800D01*
X74265185Y-150869331D01*
X74265186Y-150869334D01*
X74357288Y-151018656D01*
X74481344Y-151142712D01*
X74630666Y-151234814D01*
X74630669Y-151234815D01*
X74630667Y-151234815D01*
X74793274Y-151288697D01*
X74797203Y-151289999D01*
X74899991Y-151300500D01*
X77100008Y-151300499D01*
X77202797Y-151289999D01*
X77369334Y-151234814D01*
X77518656Y-151142712D01*
X77642712Y-151018656D01*
X77734814Y-150869334D01*
X77789999Y-150702797D01*
X77800500Y-150600009D01*
X77800499Y-149381989D01*
X79279500Y-149381989D01*
X79279500Y-149618011D01*
X79310307Y-149852014D01*
X79371394Y-150079993D01*
X79404072Y-150158884D01*
X79461713Y-150298043D01*
X79461718Y-150298054D01*
X79556171Y-150461650D01*
X79579727Y-150502450D01*
X79723408Y-150689699D01*
X79890301Y-150856592D01*
X80077550Y-151000273D01*
X80077559Y-151000278D01*
X80281945Y-151118281D01*
X80281948Y-151118282D01*
X80281951Y-151118284D01*
X80500007Y-151208606D01*
X80727986Y-151269693D01*
X80961989Y-151300500D01*
X81198011Y-151300500D01*
X81432014Y-151269693D01*
X81659993Y-151208606D01*
X81878049Y-151118284D01*
X82082450Y-151000273D01*
X82269699Y-150856592D01*
X82436592Y-150689699D01*
X82580273Y-150502450D01*
X82698284Y-150298049D01*
X82788606Y-150079993D01*
X82849693Y-149852014D01*
X82880500Y-149618011D01*
X82880500Y-149381989D01*
X82849693Y-149147986D01*
X82788606Y-148920007D01*
X82698284Y-148701951D01*
X82668001Y-148649500D01*
X82593220Y-148519975D01*
X82580273Y-148497550D01*
X82436592Y-148310301D01*
X82269699Y-148143408D01*
X82082450Y-147999727D01*
X82082440Y-147999721D01*
X81878054Y-147881718D01*
X81878043Y-147881713D01*
X81757222Y-147831667D01*
X81659993Y-147791394D01*
X81432014Y-147730307D01*
X81432007Y-147730306D01*
X81198011Y-147699500D01*
X80961989Y-147699500D01*
X80727992Y-147730306D01*
X80727990Y-147730306D01*
X80727986Y-147730307D01*
X80555640Y-147776487D01*
X80500010Y-147791393D01*
X80500007Y-147791394D01*
X80281956Y-147881713D01*
X80281945Y-147881718D01*
X80077559Y-147999721D01*
X80077549Y-147999727D01*
X79890301Y-148143408D01*
X79890297Y-148143411D01*
X79723411Y-148310297D01*
X79723408Y-148310301D01*
X79579727Y-148497549D01*
X79579721Y-148497559D01*
X79461718Y-148701945D01*
X79461713Y-148701956D01*
X79424228Y-148792454D01*
X79371394Y-148920007D01*
X79310307Y-149147986D01*
X79310306Y-149147990D01*
X79310306Y-149147992D01*
X79291238Y-149292828D01*
X79279500Y-149381989D01*
X77800499Y-149381989D01*
X77800499Y-148399992D01*
X77789999Y-148297203D01*
X77763138Y-148216144D01*
X77750500Y-148137822D01*
X77750500Y-147328219D01*
X77769454Y-147232931D01*
X77823427Y-147152152D01*
X87438919Y-137536661D01*
X87521232Y-137429389D01*
X87535941Y-137410221D01*
X87540254Y-137404599D01*
X87578611Y-137354612D01*
X87693344Y-137155888D01*
X87781158Y-136943887D01*
X87818497Y-136804534D01*
X87840548Y-136722239D01*
X87847657Y-136668242D01*
X87870500Y-136494734D01*
X87870500Y-130235763D01*
X87889454Y-130140475D01*
X87903856Y-130111268D01*
X88007923Y-129931021D01*
X88113295Y-129676632D01*
X88184560Y-129410666D01*
X88199357Y-129298265D01*
X88230586Y-129206269D01*
X88294644Y-129133224D01*
X88381780Y-129090253D01*
X88478727Y-129083898D01*
X88570726Y-129115127D01*
X88643771Y-129179185D01*
X88645561Y-129181547D01*
X88702454Y-129257546D01*
X88817669Y-129343796D01*
X88952517Y-129394091D01*
X89012127Y-129400500D01*
X90907872Y-129400499D01*
X90967483Y-129394091D01*
X91102331Y-129343796D01*
X91217546Y-129257546D01*
X91292610Y-129157273D01*
X91364884Y-129092354D01*
X91456504Y-129060031D01*
X91553520Y-129065232D01*
X91638297Y-129105050D01*
X91765978Y-129197815D01*
X91765981Y-129197816D01*
X91765986Y-129197820D01*
X91962383Y-129297890D01*
X91962386Y-129297891D01*
X91962394Y-129297895D01*
X92172049Y-129366015D01*
X92172060Y-129366016D01*
X92172061Y-129366017D01*
X92232640Y-129375611D01*
X92389778Y-129400500D01*
X92389782Y-129400500D01*
X92610218Y-129400500D01*
X92610222Y-129400500D01*
X92827951Y-129366015D01*
X93037606Y-129297895D01*
X93116795Y-129257546D01*
X93234013Y-129197820D01*
X93234015Y-129197818D01*
X93234022Y-129197815D01*
X93412365Y-129068242D01*
X93568242Y-128912365D01*
X93697815Y-128734022D01*
X93704115Y-128721659D01*
X93797890Y-128537616D01*
X93797890Y-128537615D01*
X93797895Y-128537606D01*
X93866015Y-128327951D01*
X93900500Y-128110222D01*
X93900500Y-127889778D01*
X93866015Y-127672049D01*
X93797895Y-127462394D01*
X93797891Y-127462386D01*
X93797890Y-127462383D01*
X93697820Y-127265986D01*
X93697816Y-127265981D01*
X93697815Y-127265978D01*
X93568242Y-127087635D01*
X93412365Y-126931758D01*
X93234022Y-126802185D01*
X93234019Y-126802183D01*
X93234013Y-126802179D01*
X93037616Y-126702109D01*
X93037609Y-126702106D01*
X93037606Y-126702105D01*
X92827951Y-126633985D01*
X92827945Y-126633984D01*
X92827938Y-126633982D01*
X92610232Y-126599501D01*
X92610225Y-126599500D01*
X92610222Y-126599500D01*
X92389778Y-126599500D01*
X92389772Y-126599500D01*
X92317473Y-126610951D01*
X92220393Y-126607135D01*
X92132163Y-126566460D01*
X92102454Y-126541086D01*
X90463781Y-124902413D01*
X90409805Y-124821631D01*
X90390851Y-124726343D01*
X90409805Y-124631055D01*
X90463781Y-124550273D01*
X90544563Y-124496297D01*
X90639851Y-124477343D01*
X90672662Y-124479515D01*
G37*
G04 #@! TD.AperFunction*
M02*
