M48
; DRILL file {KiCad 9.0.7} date 2026-02-01T12:29:19+0530
; FORMAT={-:-/ absolute / metric / decimal}
; #@! TF.CreationDate,2026-02-01T12:29:19+05:30
; #@! TF.GenerationSoftware,Kicad,Pcbnew,9.0.7
; #@! TF.FileFunction,Plated,1,2,PTH
FMAT,2
METRIC
; #@! TA.AperFunction,Plated,PTH,ViaDrill
T1C0.300
; #@! TA.AperFunction,Plated,PTH,ComponentDrill
T2C0.750
; #@! TA.AperFunction,Plated,PTH,ComponentDrill
T3C0.800
; #@! TA.AperFunction,Plated,PTH,ComponentDrill
T4C0.900
; #@! TA.AperFunction,Plated,PTH,ComponentDrill
T5C1.000
; #@! TA.AperFunction,Plated,PTH,ComponentDrill
T6C1.100
; #@! TA.AperFunction,Plated,PTH,ComponentDrill
T7C1.200
; #@! TA.AperFunction,Plated,PTH,ComponentDrill
T8C1.300
; #@! TA.AperFunction,Plated,PTH,ComponentDrill
T9C1.600
%
G90
G05
T1
X25.0Y-109.5
X25.25Y-112.75
X25.25Y-114.75
X32.0Y-116.0
X36.25Y-122.75
X38.46Y-99.54
X38.5Y-117.5
X39.25Y-85.5
X41.0Y-142.0
X43.5Y-122.0
X45.0Y-79.375
X46.0Y-78.5
X52.0Y-153.5
T2
X27.0Y-132.0
X27.0Y-144.0
X30.0Y-82.04
X30.0Y-87.04
X30.0Y-94.0
X30.0Y-99.0
X31.5Y-147.0
X32.0Y-132.0
X32.0Y-144.0
X36.5Y-147.0
X50.0Y-154.0
X54.0Y-133.5
X55.0Y-154.0
X59.0Y-133.5
X61.0Y-154.0
X66.0Y-154.0
X69.5Y-116.0
X69.5Y-121.0
X71.0Y-149.0
X71.0Y-154.0
X74.0Y-105.0
X74.0Y-110.0
X85.5Y-105.0
X85.5Y-110.0
X95.5Y-120.5
X97.5Y-105.0
X97.5Y-110.0
X100.5Y-120.5
X110.0Y-105.0
X110.0Y-110.0
X122.0Y-105.0
X122.0Y-110.0
X134.0Y-105.0
X134.0Y-110.0
T3
X28.5Y-68.0
X28.5Y-78.16
X33.5Y-64.42
X33.5Y-74.58
X36.5Y-67.85
X36.5Y-70.39
X36.5Y-72.93
X36.5Y-75.47
X36.5Y-78.01
X36.5Y-80.55
X36.5Y-83.09
X36.5Y-85.63
X36.5Y-88.17
X36.5Y-90.71
X36.5Y-93.25
X36.5Y-95.79
X36.5Y-98.35
X36.5Y-100.89
X36.5Y-103.43
X36.5Y-105.97
X36.5Y-108.51
X36.5Y-111.05
X36.5Y-113.59
X36.5Y-116.13
X36.5Y-118.67
X36.5Y-121.21
X38.92Y-146.0
X40.0Y-105.42
X40.0Y-115.58
X40.0Y-122.42
X40.0Y-132.58
X40.8Y-69.38
X40.8Y-77.0
X40.92Y-84.5
X41.0Y-87.42
X41.0Y-91.92
X41.0Y-102.08
X43.34Y-69.38
X43.34Y-77.0
X44.5Y-91.92
X44.5Y-102.08
X44.5Y-105.42
X44.5Y-115.58
X45.88Y-69.38
X45.88Y-77.0
X48.42Y-69.38
X48.42Y-77.0
X48.5Y-107.5
X48.5Y-110.5
X49.08Y-146.0
X50.96Y-69.38
X50.96Y-77.0
X51.08Y-84.5
X51.16Y-87.42
X53.5Y-69.38
X53.5Y-77.0
X55.0Y-81.42
X55.0Y-91.58
X55.0Y-94.92
X55.0Y-105.08
X55.0Y-113.42
X55.0Y-123.58
X56.04Y-69.38
X56.04Y-77.0
X58.0Y-81.5
X58.0Y-91.66
X58.0Y-94.92
X58.0Y-105.08
X58.0Y-113.5
X58.0Y-123.66
X58.58Y-69.38
X58.58Y-77.0
X58.66Y-107.5
X58.66Y-110.5
X62.0Y-67.85
X62.0Y-70.39
X62.0Y-72.93
X62.0Y-75.47
X62.0Y-78.01
X62.0Y-80.55
X62.0Y-83.09
X62.0Y-85.63
X62.0Y-88.17
X62.0Y-90.71
X62.0Y-93.25
X62.0Y-95.79
X62.0Y-98.35
X62.0Y-100.89
X62.0Y-103.43
X62.0Y-105.97
X62.0Y-108.51
X62.0Y-111.05
X62.0Y-113.59
X62.0Y-116.13
X62.0Y-118.67
X62.0Y-121.21
X63.25Y-129.5
X66.0Y-80.42
X66.0Y-90.58
X66.5Y-144.0
X66.75Y-129.5
X67.5Y-136.5
X69.0Y-80.42
X69.0Y-90.58
X69.0Y-106.0
X69.0Y-108.5
X70.0Y-136.5
X70.0Y-144.0
X76.5Y-124.5
X78.0Y-80.5
X78.0Y-90.66
X79.5Y-106.0
X79.5Y-108.5
X81.0Y-80.5
X81.0Y-90.66
X82.0Y-118.0
X86.66Y-124.5
X87.0Y-118.0
X90.0Y-80.5
X90.0Y-90.66
X91.0Y-112.92
X91.0Y-123.08
X92.0Y-106.0
X92.0Y-108.5
X93.0Y-80.5
X93.0Y-90.66
X96.5Y-115.5
X98.0Y-137.88
X98.0Y-145.5
X99.0Y-115.5
X100.54Y-137.88
X100.54Y-145.5
X102.0Y-80.5
X102.0Y-90.66
X103.08Y-137.88
X103.08Y-145.5
X105.0Y-80.5
X105.0Y-90.66
X105.0Y-106.0
X105.0Y-108.5
X105.62Y-137.88
X105.62Y-145.5
X106.74Y-124.8
X106.74Y-134.96
X108.16Y-137.88
X108.16Y-145.5
X109.74Y-124.8
X109.74Y-134.96
X110.7Y-137.88
X110.7Y-145.5
X111.92Y-112.5
X111.92Y-115.5
X112.74Y-124.8
X112.74Y-134.96
X113.24Y-137.88
X113.24Y-145.5
X114.0Y-80.5
X114.0Y-90.66
X115.74Y-124.72
X115.74Y-134.88
X115.78Y-137.88
X115.78Y-145.5
X116.5Y-106.25
X116.5Y-108.75
X117.0Y-80.34
X117.0Y-90.5
X118.96Y-137.88
X118.96Y-145.5
X121.5Y-137.88
X121.5Y-145.5
X122.08Y-112.5
X122.08Y-115.5
X124.04Y-137.88
X124.04Y-145.5
X125.5Y-80.84
X125.5Y-91.0
X126.58Y-137.88
X126.58Y-145.5
X127.74Y-124.8
X127.74Y-134.96
X128.5Y-80.84
X128.5Y-91.0
X129.0Y-106.0
X129.0Y-108.5
X129.12Y-137.88
X129.12Y-145.5
X130.725Y-124.8
X130.725Y-134.96
X131.66Y-137.88
X131.66Y-145.5
X133.74Y-124.8
X133.74Y-134.96
X134.2Y-137.88
X134.2Y-145.5
X136.74Y-124.8
X136.74Y-134.96
X136.74Y-137.88
X136.74Y-145.5
T4
X89.96Y-128.0
X92.5Y-128.0
X96.225Y-128.0
X98.765Y-128.0
T5
X24.88Y-129.0
X24.88Y-140.5
X27.42Y-129.0
X27.42Y-140.5
X29.96Y-129.0
X29.96Y-140.5
X32.5Y-129.0
X32.5Y-140.5
X33.0Y-82.46
X33.0Y-85.0
X33.0Y-87.54
X33.0Y-90.08
X33.0Y-94.46
X33.0Y-97.0
X33.0Y-99.54
X33.0Y-102.08
X36.96Y-150.0
X39.5Y-150.0
X42.04Y-150.0
X44.58Y-150.0
X48.46Y-150.0
X51.0Y-150.0
X53.54Y-150.0
X56.08Y-150.0
X59.92Y-150.0
X62.46Y-150.0
X65.0Y-150.0
X66.0Y-112.88
X66.0Y-115.42
X66.0Y-117.96
X66.0Y-120.5
X67.54Y-150.0
X73.0Y-112.92
X73.0Y-115.46
X73.0Y-118.0
X73.0Y-120.54
X77.0Y-112.88
X77.0Y-115.42
X77.0Y-117.96
X77.0Y-120.5
T6
X43.0Y-137.3
X43.0Y-140.7
X46.7Y-135.6
X46.7Y-139.0
X46.7Y-142.4
X67.46Y-101.0
X70.0Y-101.0
X72.54Y-101.0
X80.0Y-101.0
X82.54Y-101.0
X85.08Y-101.0
X92.5Y-101.0
X95.04Y-101.0
X97.58Y-101.0
X102.24Y-124.3
X102.24Y-134.46
X103.5Y-115.0
X103.5Y-117.54
X103.5Y-120.08
X105.0Y-101.0
X107.54Y-101.0
X110.08Y-101.0
X117.46Y-101.0
X120.0Y-101.0
X122.54Y-101.0
X123.24Y-124.3
X123.24Y-134.46
X129.96Y-100.95
X132.5Y-100.95
X135.04Y-100.95
T7
X99.74Y-150.88
X103.24Y-150.88
X106.74Y-150.88
X110.24Y-150.88
X113.74Y-150.88
X121.74Y-150.88
X125.24Y-150.88
X128.74Y-150.88
X132.24Y-150.88
X135.74Y-150.88
T8
X71.465Y-70.832
X76.0Y-149.5
X76.545Y-70.832
X81.08Y-149.5
X82.965Y-70.832
X87.42Y-149.5
X88.045Y-70.832
X92.5Y-149.5
X94.465Y-70.832
X99.545Y-70.832
X105.965Y-70.832
X111.045Y-70.832
X117.385Y-70.832
X122.465Y-70.832
X128.93Y-70.665
X132.5Y-114.5
X132.5Y-119.58
X134.01Y-70.665
T9
X43.38Y-129.0
X58.62Y-129.0
X70.88Y-129.0
X73.5Y-79.38
X73.5Y-94.62
X85.5Y-79.38
X85.5Y-94.62
X86.12Y-129.0
X97.5Y-79.38
X97.5Y-94.62
X108.88Y-120.0
X109.5Y-79.38
X109.5Y-94.62
X121.5Y-79.5
X121.5Y-94.74
X124.12Y-120.0
X133.5Y-79.5
X133.5Y-94.74
M30
