G04 #@! TF.GenerationSoftware,KiCad,Pcbnew,9.0.7*
G04 #@! TF.CreationDate,2026-02-01T12:24:03+05:30*
G04 #@! TF.ProjectId,motherboard_sub,6d6f7468-6572-4626-9f61-72645f737562,rev?*
G04 #@! TF.SameCoordinates,Original*
G04 #@! TF.FileFunction,Soldermask,Top*
G04 #@! TF.FilePolarity,Negative*
%FSLAX46Y46*%
G04 Gerber Fmt 4.6, Leading zero omitted, Abs format (unit mm)*
G04 Created by KiCad (PCBNEW 9.0.7) date 2026-02-01 12:24:03*
%MOMM*%
%LPD*%
G01*
G04 APERTURE LIST*
G04 Aperture macros list*
%AMRoundRect*
0 Rectangle with rounded corners*
0 $1 Rounding radius*
0 $2 $3 $4 $5 $6 $7 $8 $9 X,Y pos of 4 corners*
0 Add a 4 corners polygon primitive as box body*
4,1,4,$2,$3,$4,$5,$6,$7,$8,$9,$2,$3,0*
0 Add four circle primitives for the rounded corners*
1,1,$1+$1,$2,$3*
1,1,$1+$1,$4,$5*
1,1,$1+$1,$6,$7*
1,1,$1+$1,$8,$9*
0 Add four rect primitives between the rounded corners*
20,1,$1+$1,$2,$3,$4,$5,0*
20,1,$1+$1,$4,$5,$6,$7,0*
20,1,$1+$1,$6,$7,$8,$9,0*
20,1,$1+$1,$8,$9,$2,$3,0*%
G04 Aperture macros list end*
%ADD10C,1.600000*%
%ADD11R,1.700000X1.700000*%
%ADD12C,1.700000*%
%ADD13C,1.500000*%
%ADD14O,2.000000X1.200000*%
%ADD15R,1.800000X1.800000*%
%ADD16C,1.800000*%
%ADD17RoundRect,0.250000X-0.550000X0.550000X-0.550000X-0.550000X0.550000X-0.550000X0.550000X0.550000X0*%
%ADD18R,2.900000X5.400000*%
%ADD19R,2.000000X1.905000*%
%ADD20O,2.000000X1.905000*%
%ADD21RoundRect,0.250000X1.050000X-1.050000X1.050000X1.050000X-1.050000X1.050000X-1.050000X-1.050000X0*%
%ADD22C,2.600000*%
%ADD23RoundRect,0.250000X1.350000X1.350000X-1.350000X1.350000X-1.350000X-1.350000X1.350000X-1.350000X0*%
%ADD24C,3.200000*%
%ADD25RoundRect,0.250000X1.050000X1.050000X-1.050000X1.050000X-1.050000X-1.050000X1.050000X-1.050000X0*%
%ADD26RoundRect,0.250000X-1.350000X1.350000X-1.350000X-1.350000X1.350000X-1.350000X1.350000X1.350000X0*%
%ADD27R,1.905000X2.000000*%
%ADD28O,1.905000X2.000000*%
%ADD29RoundRect,0.249999X0.850001X-0.850001X0.850001X0.850001X-0.850001X0.850001X-0.850001X-0.850001X0*%
%ADD30C,2.200000*%
%ADD31RoundRect,0.250000X-1.050000X-1.050000X1.050000X-1.050000X1.050000X1.050000X-1.050000X1.050000X0*%
%ADD32RoundRect,0.250000X-1.350000X-1.350000X1.350000X-1.350000X1.350000X1.350000X-1.350000X1.350000X0*%
%ADD33RoundRect,0.250000X0.650000X1.550000X-0.650000X1.550000X-0.650000X-1.550000X0.650000X-1.550000X0*%
%ADD34O,1.800000X3.600000*%
%ADD35RoundRect,1.500000X-1.500000X-1.500000X1.500000X-1.500000X1.500000X1.500000X-1.500000X1.500000X0*%
G04 APERTURE END LIST*
D10*
X41000000Y-91920000D03*
X41000000Y-102080000D03*
D11*
X32500000Y-129000000D03*
D12*
X29960000Y-129000000D03*
X27420000Y-129000000D03*
X24880000Y-129000000D03*
D11*
X67540000Y-150000000D03*
D12*
X65000000Y-150000000D03*
X62460000Y-150000000D03*
X59920000Y-150000000D03*
D11*
X56080000Y-150000000D03*
D12*
X53540000Y-150000000D03*
X51000000Y-150000000D03*
X48460000Y-150000000D03*
D11*
X44580000Y-150000000D03*
D12*
X42040000Y-150000000D03*
X39500000Y-150000000D03*
X36960000Y-150000000D03*
D11*
X32500000Y-140500000D03*
D12*
X29960000Y-140500000D03*
X27420000Y-140500000D03*
X24880000Y-140500000D03*
D13*
X27000000Y-144000000D03*
X32000000Y-144000000D03*
X61000000Y-154000000D03*
X66000000Y-154000000D03*
D14*
X62000000Y-121210000D03*
X62000000Y-118670000D03*
X62000000Y-116130000D03*
X62000000Y-113590000D03*
X62000000Y-111050000D03*
X62000000Y-108510000D03*
X62000000Y-105970000D03*
X62000000Y-103430000D03*
X62000000Y-100890000D03*
X62000000Y-98350000D03*
X62000000Y-95790000D03*
X62000000Y-93250000D03*
X62000000Y-90710000D03*
X62000000Y-88170000D03*
X62000000Y-85630000D03*
X62000000Y-83090000D03*
X62000000Y-80550000D03*
X62000000Y-78010000D03*
X62000000Y-75470000D03*
X62000000Y-72930000D03*
X62000000Y-70390000D03*
X62000000Y-67850000D03*
X36500000Y-121210000D03*
X36500000Y-118670000D03*
X36500000Y-116130000D03*
X36500000Y-113590000D03*
X36500000Y-111050000D03*
X36500000Y-108510000D03*
X36500000Y-105970000D03*
X36500000Y-103430000D03*
X36500000Y-100890000D03*
X36500000Y-98350000D03*
X36500000Y-95790000D03*
X36500000Y-93250000D03*
X36500000Y-90710000D03*
X36500000Y-85630000D03*
X36500000Y-83090000D03*
X36500000Y-80550000D03*
X36500000Y-78010000D03*
X36500000Y-75470000D03*
X36500000Y-72930000D03*
X36500000Y-70390000D03*
X36500000Y-67850000D03*
X36500000Y-88170000D03*
D11*
X66000000Y-120500000D03*
D12*
X66000000Y-117960000D03*
X66000000Y-115420000D03*
X66000000Y-112880000D03*
D11*
X33000000Y-94460000D03*
D12*
X33000000Y-97000000D03*
X33000000Y-99540000D03*
X33000000Y-102080000D03*
D11*
X73000000Y-120540000D03*
D12*
X73000000Y-118000000D03*
X73000000Y-115460000D03*
X73000000Y-112920000D03*
D11*
X33000000Y-82460000D03*
D12*
X33000000Y-85000000D03*
X33000000Y-87540000D03*
X33000000Y-90080000D03*
D11*
X77000000Y-120500000D03*
D12*
X77000000Y-117960000D03*
X77000000Y-115420000D03*
X77000000Y-112880000D03*
D10*
X76500000Y-124500000D03*
X86660000Y-124500000D03*
D15*
X89960000Y-128000000D03*
D16*
X92500000Y-128000000D03*
D15*
X46700000Y-142400000D03*
D16*
X43000000Y-140700000D03*
X46700000Y-139000000D03*
X43000000Y-137300000D03*
X46700000Y-135600000D03*
D17*
X58580000Y-69380000D03*
D10*
X56040000Y-69380000D03*
X53500000Y-69380000D03*
X50960000Y-69380000D03*
X48420000Y-69380000D03*
X45880000Y-69380000D03*
X43340000Y-69380000D03*
X40800000Y-69380000D03*
X40800000Y-77000000D03*
X43340000Y-77000000D03*
X45880000Y-77000000D03*
X48420000Y-77000000D03*
X50960000Y-77000000D03*
X53500000Y-77000000D03*
X56040000Y-77000000D03*
X58580000Y-77000000D03*
X44500000Y-102080000D03*
X44500000Y-91920000D03*
X28500000Y-68000000D03*
X28500000Y-78160000D03*
X33500000Y-64420000D03*
X33500000Y-74580000D03*
D18*
X52050000Y-141500000D03*
X61950000Y-141500000D03*
D13*
X30000000Y-87040000D03*
X30000000Y-82040000D03*
D19*
X103500000Y-115000000D03*
D20*
X103500000Y-117540000D03*
X103500000Y-120080000D03*
D10*
X96500000Y-115500000D03*
X99000000Y-115500000D03*
D21*
X132500000Y-119580000D03*
D22*
X132500000Y-114500000D03*
D10*
X111920000Y-112500000D03*
X122080000Y-112500000D03*
X111920000Y-115500000D03*
X122080000Y-115500000D03*
D23*
X124120000Y-120000000D03*
D24*
X108880000Y-120000000D03*
D13*
X95500000Y-120500000D03*
X100500000Y-120500000D03*
D10*
X66000000Y-90580000D03*
X66000000Y-80420000D03*
D25*
X111045000Y-70832500D03*
D22*
X105965000Y-70832500D03*
D25*
X134010000Y-70665000D03*
D22*
X128930000Y-70665000D03*
D10*
X105000000Y-90660000D03*
X105000000Y-80500000D03*
D26*
X73500000Y-79380000D03*
D24*
X73500000Y-94620000D03*
D27*
X117460000Y-101000000D03*
D28*
X120000000Y-101000000D03*
X122540000Y-101000000D03*
D10*
X70000000Y-144000000D03*
X66500000Y-144000000D03*
X67500000Y-136500000D03*
X70000000Y-136500000D03*
D13*
X71000000Y-149000000D03*
X71000000Y-154000000D03*
D10*
X58000000Y-81500000D03*
X58000000Y-91660000D03*
D29*
X123240000Y-134460000D03*
D30*
X123240000Y-124300000D03*
D13*
X122000000Y-105000000D03*
X122000000Y-110000000D03*
D10*
X41000000Y-87420000D03*
X51160000Y-87420000D03*
D27*
X129960000Y-100950000D03*
D28*
X132500000Y-100950000D03*
X135040000Y-100950000D03*
D10*
X58000000Y-123660000D03*
X58000000Y-113500000D03*
D25*
X88045000Y-70832500D03*
D22*
X82965000Y-70832500D03*
D15*
X96225000Y-128000000D03*
D16*
X98765000Y-128000000D03*
D10*
X44500000Y-115580000D03*
X44500000Y-105420000D03*
X49080000Y-146000000D03*
X38920000Y-146000000D03*
X51080000Y-84500000D03*
X40920000Y-84500000D03*
D13*
X97500000Y-105000000D03*
X97500000Y-110000000D03*
X31500000Y-147000000D03*
X36500000Y-147000000D03*
D25*
X122465000Y-70832500D03*
D22*
X117385000Y-70832500D03*
D10*
X129000000Y-106000000D03*
X129000000Y-108500000D03*
D27*
X92500000Y-101000000D03*
D28*
X95040000Y-101000000D03*
X97580000Y-101000000D03*
D31*
X87420000Y-149500000D03*
D22*
X92500000Y-149500000D03*
D17*
X115780000Y-137880000D03*
D10*
X113240000Y-137880000D03*
X110700000Y-137880000D03*
X108160000Y-137880000D03*
X105620000Y-137880000D03*
X103080000Y-137880000D03*
X100540000Y-137880000D03*
X98000000Y-137880000D03*
X98000000Y-145500000D03*
X100540000Y-145500000D03*
X103080000Y-145500000D03*
X105620000Y-145500000D03*
X108160000Y-145500000D03*
X110700000Y-145500000D03*
X113240000Y-145500000D03*
X115780000Y-145500000D03*
X55000000Y-94920000D03*
X55000000Y-105080000D03*
X133740000Y-134960000D03*
X133740000Y-124800000D03*
X55000000Y-113420000D03*
X55000000Y-123580000D03*
D13*
X134000000Y-105000000D03*
X134000000Y-110000000D03*
D25*
X76545000Y-70832500D03*
D22*
X71465000Y-70832500D03*
D10*
X58000000Y-105080000D03*
X58000000Y-94920000D03*
X116500000Y-106250000D03*
X116500000Y-108750000D03*
X81000000Y-90660000D03*
X81000000Y-80500000D03*
X69000000Y-90580000D03*
X69000000Y-80420000D03*
X40000000Y-132580000D03*
X40000000Y-122420000D03*
D31*
X76000000Y-149500000D03*
D22*
X81080000Y-149500000D03*
D10*
X91000000Y-112920000D03*
X91000000Y-123080000D03*
X48500000Y-107500000D03*
X58660000Y-107500000D03*
D32*
X70880000Y-129000000D03*
D24*
X86120000Y-129000000D03*
D26*
X109500000Y-79380000D03*
D24*
X109500000Y-94620000D03*
D10*
X115740000Y-134880000D03*
X115740000Y-124720000D03*
X48500000Y-110500000D03*
X58660000Y-110500000D03*
X105000000Y-106000000D03*
X105000000Y-108500000D03*
D33*
X113740000Y-150880000D03*
D34*
X110240000Y-150880000D03*
X106740000Y-150880000D03*
X103240000Y-150880000D03*
X99740000Y-150880000D03*
D10*
X106740000Y-134960000D03*
X106740000Y-124800000D03*
D26*
X97500000Y-79380000D03*
D24*
X97500000Y-94620000D03*
D33*
X135740000Y-150880000D03*
D34*
X132240000Y-150880000D03*
X128740000Y-150880000D03*
X125240000Y-150880000D03*
X121740000Y-150880000D03*
D10*
X117000000Y-90500000D03*
X117000000Y-80340000D03*
D26*
X85500000Y-79380000D03*
D24*
X85500000Y-94620000D03*
D10*
X63250000Y-129500000D03*
X66750000Y-129500000D03*
X55000000Y-91580000D03*
X55000000Y-81420000D03*
X78000000Y-90660000D03*
X78000000Y-80500000D03*
X128500000Y-91000000D03*
X128500000Y-80840000D03*
D13*
X110000000Y-105000000D03*
X110000000Y-110000000D03*
X55000000Y-154000000D03*
X50000000Y-154000000D03*
X69500000Y-121000000D03*
X69500000Y-116000000D03*
D10*
X127740000Y-134960000D03*
X127740000Y-124800000D03*
D23*
X58620000Y-129000000D03*
D24*
X43380000Y-129000000D03*
D10*
X92000000Y-106000000D03*
X92000000Y-108500000D03*
D29*
X102240000Y-134460000D03*
D30*
X102240000Y-124300000D03*
D13*
X59000000Y-133500000D03*
X54000000Y-133500000D03*
D27*
X105000000Y-101000000D03*
D28*
X107540000Y-101000000D03*
X110080000Y-101000000D03*
D10*
X79500000Y-106000000D03*
X79500000Y-108500000D03*
X114000000Y-90660000D03*
X114000000Y-80500000D03*
X136740000Y-134960000D03*
X136740000Y-124800000D03*
D35*
X75500000Y-137500000D03*
X92500000Y-137500000D03*
D27*
X67460000Y-101000000D03*
D28*
X70000000Y-101000000D03*
X72540000Y-101000000D03*
D10*
X112740000Y-134960000D03*
X112740000Y-124800000D03*
D13*
X85500000Y-105000000D03*
X85500000Y-110000000D03*
X32000000Y-132000000D03*
X27000000Y-132000000D03*
D10*
X109740000Y-134960000D03*
X109740000Y-124800000D03*
D25*
X99545000Y-70832500D03*
D22*
X94465000Y-70832500D03*
D13*
X30000000Y-94000000D03*
X30000000Y-99000000D03*
D10*
X130725000Y-134960000D03*
X130725000Y-124800000D03*
X82000000Y-118000000D03*
X87000000Y-118000000D03*
X90000000Y-90660000D03*
X90000000Y-80500000D03*
D26*
X121500000Y-79500000D03*
D24*
X121500000Y-94740000D03*
D27*
X80000000Y-101000000D03*
D28*
X82540000Y-101000000D03*
X85080000Y-101000000D03*
D10*
X69000000Y-106000000D03*
X69000000Y-108500000D03*
D13*
X74000000Y-105000000D03*
X74000000Y-110000000D03*
D26*
X133500000Y-79500000D03*
D24*
X133500000Y-94740000D03*
D10*
X102000000Y-90660000D03*
X102000000Y-80500000D03*
X93000000Y-90660000D03*
X93000000Y-80500000D03*
X125500000Y-91000000D03*
X125500000Y-80840000D03*
D17*
X136740000Y-137880000D03*
D10*
X134200000Y-137880000D03*
X131660000Y-137880000D03*
X129120000Y-137880000D03*
X126580000Y-137880000D03*
X124040000Y-137880000D03*
X121500000Y-137880000D03*
X118960000Y-137880000D03*
X118960000Y-145500000D03*
X121500000Y-145500000D03*
X124040000Y-145500000D03*
X126580000Y-145500000D03*
X129120000Y-145500000D03*
X131660000Y-145500000D03*
X134200000Y-145500000D03*
X136740000Y-145500000D03*
X40000000Y-105420000D03*
X40000000Y-115580000D03*
M02*
